{
    "asset" : {
        "generator" : "Khronos glTF Blender I/O v3.3.32",
        "version" : "2.0"
    },
    "scene" : 0,
    "scenes" : [
        {
            "name" : "Scene",
            "nodes" : [
                0,
                1,
                2
            ]
        }
    ],
    "nodes" : [
        {
            "mesh" : 0,
            "name" : "mult_1",
            "scale" : [
                1,
                0.19974541664123535,
                1
            ],
            "translation" : [
                -0.01215505599975586,
                0.23517347872257233,
                0
            ]
        },
        {
            "mesh" : 1,
            "name" : "mult_2",
            "rotation" : [
                -0.7071068286895752,
                0,
                0.7071068286895752,
                3.090862321641907e-08
            ],
            "scale" : [
                10.65653133392334,
                10.656533241271973,
                10.65653133392334
            ],
            "translation" : [
                0.07463564723730087,
                0,
                -0.004281088709831238
            ]
        },
        {
            "mesh" : 2,
            "name" : "mult_3",
            "rotation" : [
                -0.7070798277854919,
                -0.006170672830194235,
                0.7070798873901367,
                0.006170673295855522
            ],
            "scale" : [
                10.65653133392334,
                10.656532287597656,
                10.65653133392334
            ],
            "translation" : [
                0.07463564723730087,
                0.46108725666999817,
                -0.004281088709831238
            ]
        }
    ],
    "materials" : [
        {
            "doubleSided" : true,
            "name" : "black",
            "pbrMetallicRoughness" : {
                "baseColorFactor" : [
                    0,
                    0,
                    0,
                    1
                ],
                "metallicFactor" : 0,
                "roughnessFactor" : 0.4000000059604645
            }
        },
        {
            "doubleSided" : true,
            "name" : "white",
            "pbrMetallicRoughness" : {
                "metallicFactor" : 0,
                "roughnessFactor" : 0.4000000059604645
            }
        }
    ],
    "meshes" : [
        {
            "name" : "mult_1",
            "primitives" : [
                {
                    "attributes" : {
                        "POSITION" : 0,
                        "NORMAL" : 1,
                        "TEXCOORD_0" : 2
                    },
                    "indices" : 3,
                    "material" : 0
                }
            ]
        },
        {
            "name" : "mult_2",
            "primitives" : [
                {
                    "attributes" : {
                        "POSITION" : 4,
                        "NORMAL" : 5,
                        "TEXCOORD_0" : 6
                    },
                    "indices" : 7,
                    "material" : 1
                }
            ]
        },
        {
            "name" : "mult_3",
            "primitives" : [
                {
                    "attributes" : {
                        "POSITION" : 8,
                        "NORMAL" : 9,
                        "TEXCOORD_0" : 10
                    },
                    "indices" : 7,
                    "material" : 1
                }
            ]
        }
    ],
    "accessors" : [
        {
            "bufferView" : 0,
            "componentType" : 5126,
            "count" : 267,
            "max" : [
                1,
                1,
                1
            ],
            "min" : [
                -1,
                -1,
                -1
            ],
            "type" : "VEC3"
        },
        {
            "bufferView" : 1,
            "componentType" : 5126,
            "count" : 267,
            "type" : "VEC3"
        },
        {
            "bufferView" : 2,
            "componentType" : 5126,
            "count" : 267,
            "type" : "VEC2"
        },
        {
            "bufferView" : 3,
            "componentType" : 5123,
            "count" : 372,
            "type" : "SCALAR"
        },
        {
            "bufferView" : 4,
            "componentType" : 5126,
            "count" : 949,
            "max" : [
                0.062246836721897125,
                0,
                0.053574420511722565
            ],
            "min" : [
                -0.07322965562343597,
                0,
                -0.049960218369960785
            ],
            "type" : "VEC3"
        },
        {
            "bufferView" : 5,
            "componentType" : 5126,
            "count" : 949,
            "type" : "VEC3"
        },
        {
            "bufferView" : 6,
            "componentType" : 5126,
            "count" : 949,
            "type" : "VEC2"
        },
        {
            "bufferView" : 7,
            "componentType" : 5123,
            "count" : 2166,
            "type" : "SCALAR"
        },
        {
            "bufferView" : 8,
            "componentType" : 5126,
            "count" : 949,
            "max" : [
                0.062246836721897125,
                0,
                0.053574420511722565
            ],
            "min" : [
                -0.07322965562343597,
                0,
                -0.049960218369960785
            ],
            "type" : "VEC3"
        },
        {
            "bufferView" : 9,
            "componentType" : 5126,
            "count" : 949,
            "type" : "VEC3"
        },
        {
            "bufferView" : 10,
            "componentType" : 5126,
            "count" : 949,
            "type" : "VEC2"
        }
    ],
    "bufferViews" : [
        {
            "buffer" : 0,
            "byteLength" : 3204,
            "byteOffset" : 0,
            "target" : 34962
        },
        {
            "buffer" : 0,
            "byteLength" : 3204,
            "byteOffset" : 3204,
            "target" : 34962
        },
        {
            "buffer" : 0,
            "byteLength" : 2136,
            "byteOffset" : 6408,
            "target" : 34962
        },
        {
            "buffer" : 0,
            "byteLength" : 744,
            "byteOffset" : 8544,
            "target" : 34963
        },
        {
            "buffer" : 0,
            "byteLength" : 11388,
            "byteOffset" : 9288,
            "target" : 34962
        },
        {
            "buffer" : 0,
            "byteLength" : 11388,
            "byteOffset" : 20676,
            "target" : 34962
        },
        {
            "buffer" : 0,
            "byteLength" : 7592,
            "byteOffset" : 32064,
            "target" : 34962
        },
        {
            "buffer" : 0,
            "byteLength" : 4332,
            "byteOffset" : 39656,
            "target" : 34963
        },
        {
            "buffer" : 0,
            "byteLength" : 11388,
            "byteOffset" : 43988,
            "target" : 34962
        },
        {
            "buffer" : 0,
            "byteLength" : 11388,
            "byteOffset" : 55376,
            "target" : 34962
        },
        {
            "buffer" : 0,
            "byteLength" : 7592,
            "byteOffset" : 66764,
            "target" : 34962
        }
    ],
    "buffers" : [
        {
            "byteLength" : 74356,
            "uri" : "data:application/octet-stream;base64,"
        }
    ]
}
