<?xml version="1.0" encoding="utf-8"?>
<!-- Generator: Adobe Illustrator 21.0.0, SVG Export Plug-In . SVG Version: 6.00 Build 0)  -->
<svg version="1.1" id="Capa_1" xmlns="http://www.w3.org/2000/svg" xmlns:xlink="http://www.w3.org/1999/xlink" x="0px" y="0px"
	 viewBox="0 0 200 200" style="enable-background:new 0 0 200 200;" xml:space="preserve">
<style type="text/css">
	.st0{fill:#EFFFEE;}
</style>
<path class="st0" d="M57.8,0.2c0.3,1.6,1.6,2.5,2.6,3.6c1.8,1.9,3.7,3.7,5.6,5.5c5.8,5.4,5.7,12.8-0.4,17.9
	c-2.8,2.4-5.7,4.7-7.7,7.8c-0.3,0.4-0.5,0.5-0.8,0c-1.7-2.7-4.6-4.6-6.7-7c-1.8-2.1-3.5-4.2-4.4-6.8c-1.6-4.7-0.3-8.7,3.3-12
	c2.2-2,4.5-3.9,6.3-6.2c0.7-0.9,1.4-1.7,1.7-2.9C57.4,0.2,57.6,0.2,57.8,0.2z M55.7,28.4c2-3.3,4.9-5.5,8.3-7.2
	c1.2-0.6,2.2-1.5,3-2.4c2.1-2.3,2.1-4.6,0.1-6.9c-0.3-0.4-0.7-0.8-1,0.1c-0.8,2.7-2.7,4.6-5.1,6.1c-1.6,1-3.2,1.9-4.4,3.3
	C54.1,24.2,54.2,24.9,55.7,28.4z M69.1,17.8c-1.6,2.5-4.1,4-6.6,5.4c-1.7,1-3.2,2.3-4.5,3.7c-1.5,1.7-2.2,3.4-0.8,5.4
	c0,0.1,0.1,0.1,0.1,0.2c0.3,0.9,0.7,0.7,1.1,0.1c1-1.3,2.2-2.5,3.4-3.6c1.2-1.1,2.6-1.9,3.8-3.1C67.8,23.6,69.3,21,69.1,17.8z
	 M54.6,21.9c1.6-2.1,3.8-3.5,6.1-4.8c1.5-0.9,2.6-2.1,3.5-3.5c0.6-0.9,0.9-1.8,1.1-2.9c0.1-1-0.6-1.4-1.3-1.8
	c-0.7-0.4-0.8,0.5-1.1,0.8c-0.7,0.6-1.3,1.2-2,1.7c-2.6,1.9-4.3,4.3-5.6,7.1C54.7,19.6,54.4,20.7,54.6,21.9z M49.7,10.6
	c-1.7,1.4-2.6,2.8-2,4.8c0.4,1,0.6,2.1,1,3.2c0.9,2.5,2.9,4.3,4.6,6.6c0.3-1.3-0.2-2.4,0.1-3.4c0.3-1.2,0-2.3-0.5-3.4
	C51.9,15.8,50.3,13.5,49.7,10.6z M54.1,18.4c0.3-0.6,0.5-1.1,0.8-1.5c1.1-1.4,1-2.7,0.3-4.2c-0.7-1.5-1.4-3-2-4.4
	c-0.1-0.2-0.1-0.6-0.6-0.4c-1,0.4-2,2-1.8,3C51.3,13.5,53,15.7,54.1,18.4z M46.7,16.1c-1,4.7,3.9,13.2,8.8,15.1
	c-0.8-2.2-2-4.1-3.4-5.8C50,22.5,47.5,19.8,46.7,16.1z M56.8,13.6c1.5-3.6,1.9-6.9,0.9-10.3c-0.2-0.6-0.5-0.5-0.8-0.1
	c-0.8,1-1.7,2-2.5,2.9c-0.4,0.4-0.5,0.9-0.3,1.4C54.9,9.4,55.8,11.4,56.8,13.6z M58.7,11.7c1.6-1,2.7-1.8,3.6-3
	c0.3-0.4,0.6-0.8,0.2-1.3c-1.1-1.1-2.1-2.2-3.5-3.5C59.4,6.7,59.2,9,58.7,11.7z"/>
<path class="st0" d="M29,0.2c0.8,1.9,2.4,3.2,3.8,4.6c1.5,1.5,3.1,3,4.6,4.5c5.9,5.5,5.7,13-0.6,18.1c-2.8,2.3-5.6,4.6-7.5,7.6
	c-0.2,0.4-0.5,0.6-0.8,0.1c-1.8-2.9-4.8-4.9-7.1-7.4c-2.2-2.5-4-5.1-4.5-8.4c-0.6-3.9,0.8-7.1,3.7-9.8c2.5-2.3,5.1-4.5,7.1-7.3
	c0.4-0.6,0.8-1.3,1-2C28.8,0.2,28.9,0.2,29,0.2z M27,31.6L27,31.6L27,31.6c0-0.4-0.2-0.8-0.4-1.2c-1.1-2.3-2.4-4.5-4.1-6.4
	c-2-2.3-3.5-4.8-4.3-7.7c0,0-0.1,0-0.2-0.1c-0.5,1.7-0.2,3.3,0.4,4.8C20,25.5,23.5,28.5,27,31.6z M40,15.1c-0.2-1.2-0.9-2.2-1.6-3.2
	c-0.5-0.6-0.7-0.5-1,0.2c-0.9,2.8-2.9,4.8-5.5,6.3c-1.6,1-3.1,2-4.3,3.3c-1.5,1.7-2,3.5-1.1,5.5c0.1,0.3,0.1,0.7,0.5,0.7
	c0.4,0.1,0.5-0.3,0.7-0.6c1.8-2.6,4.3-4.4,7.1-5.9c1.2-0.7,2.4-1.4,3.3-2.5C39.2,17.9,40,16.8,40,15.1z M40.5,17.9
	c-1.6,2.6-4.1,4-6.7,5.4c-2.4,1.4-4.3,3.2-5.7,5.5c-0.4,0.7-0.6,1.3-0.2,2c0.3,0.6,0.5,1.2,0.8,1.7c0.3,0.7,0.6,0.9,1.2,0.2
	c1.7-2.3,3.9-4,6.2-5.8c1.8-1.5,3.2-3.3,4-5.4C40.5,20.3,40.9,19.1,40.5,17.9z M25.8,21.9c1.3-1.1,2.4-2.2,3.8-3.2
	c1.3-0.9,2.8-1.6,4-2.7c1.6-1.4,2.7-3.1,3.1-5.1c0.2-1-0.6-1.4-1.2-1.9c-0.3-0.3-0.6-0.1-0.8,0.2c-1,1.4-2.5,2.3-3.8,3.4
	c-2.4,2.1-3.9,4.7-4.8,7.6C25.9,20.7,25.9,21.3,25.8,21.9z M24.8,24.9c0.1-1.1-0.2-2.2,0.1-3.3c0.2-1.1,0-2.1-0.4-3.1
	c-1-2.5-2.6-4.8-3.2-7.4c-0.1-0.6-0.5-0.4-0.8-0.1c-1.1,1.2-1.7,2.5-1.4,4.2C19.8,19,22,22.1,24.8,24.9z M27.3,14.9
	c0-0.2,0-0.3,0-0.3c-0.4-2.4-1.9-4.4-2.7-6.6c-0.1-0.3-0.4-0.2-0.6-0.1c-1.4,0.8-2,1.9-1.6,3.3c0.6,2.3,2,4.3,2.9,6.5
	c0.1,0.2,0.3,0.5,0.5,0.2C26.3,16.8,27.1,15.9,27.3,14.9z M28,13.2c1.7-3.3,1.9-6.6,1.1-10c-0.1-0.5-0.4-0.7-0.8-0.1
	c-0.7,1-1.6,2-2.5,2.9c-0.5,0.5-0.6,0.9-0.3,1.5C26.3,9.4,27.2,11.3,28,13.2z M30.4,4.3c0.5,2.5,0.2,5-0.4,7.7
	c1.4-1.1,2.6-1.9,3.6-3c0.6-0.7,0.8-1.4-0.1-2.1C32.4,6.1,31.5,5.2,30.4,4.3z"/>
<path class="st0" d="M143.5,0.2c0,1,0.7,1.6,1.3,2.2c2.1,2.5,4.5,4.6,6.9,6.8c5.8,5.5,5.8,12.5-0.1,17.9c-1.1,1-2.4,1.9-3.6,2.9
	c-1.6,1.4-3.1,3-4.2,4.8c-0.4,0.7-0.7,0.7-1.1,0c-1.1-1.6-2.5-2.9-4-4.2c-2.2-2.1-4.3-4.2-5.9-6.8c-3.1-5.3-2.2-10.7,2.5-14.8
	c2.4-2.1,4.6-4.2,6.5-6.6c0.5-0.7,1.1-1.3,0.9-2.2C143,0.2,143.3,0.2,143.5,0.2z M141.4,28.4c1-1.7,2.2-3,3.5-4.1
	c1.4-1.2,3-2.1,4.6-3c1-0.6,2-1.3,2.8-2.1c2.3-2.4,2.5-4.5,0.4-7.2c-0.2-0.2-0.3-0.5-0.6-0.5c-0.3,0-0.3,0.4-0.4,0.6
	c-0.9,2.7-2.7,4.6-5.2,6.1c-1.6,0.9-3.1,2-4.4,3.3C140,23.7,139.8,25.6,141.4,28.4z M154.8,17.9c-1.5,2.2-3.5,3.7-5.8,4.9
	c-2,1.1-3.7,2.5-5.3,4.1c-1.5,1.7-2.2,3.3-0.9,5.4c0.7,1,0.6,1.1,1.4,0.2c1.4-1.7,3-3.3,4.8-4.6c2.1-1.5,3.9-3.3,5-5.7
	C154.6,20.9,155,19.4,154.8,17.9z M140.3,22c1.8-2.5,4.6-3.8,7-5.6c1.7-1.2,2.8-2.8,3.5-4.7c0.4-1.2,0.1-1.9-0.8-2.7
	c-0.4-0.3-0.7-0.5-1,0.1c-0.5,0.8-1.3,1.4-2,2c-1.5,1.1-2.9,2.3-4,3.9C141.5,17.2,140.2,19.3,140.3,22z M139.2,25.1
	c-0.1-1.2-0.3-2.3,0-3.4c0.2-1.1,0-2-0.3-3c-1-2.5-2.7-4.8-3.2-7.5c-0.2-0.7-0.5-0.4-0.8-0.1c-1.2,1.2-1.7,2.5-1.3,4.2
	C134.1,19.2,136.5,22.2,139.2,25.1z M139.8,18.3c1-1.7,2.3-3.1,1.5-5c-0.8-1.7-1.6-3.5-2.4-5.2c-0.1-0.3-0.3-0.4-0.6-0.2
	c-1.6,0.8-2.1,2-1.5,3.7C137.4,13.8,138.7,15.9,139.8,18.3z M141.3,31.4c-0.4-1.4-1.1-2.4-1.7-3.4c-2.3-4-6.3-7.1-7.1-12.2
	C130.9,21,135.7,27.3,141.3,31.4z M143.1,2.6C142,3.9,141,5,140,6.1c-0.3,0.3-0.5,0.6-0.4,1.1c0.6,2.1,1.9,4,2.8,6.1
	C144.1,9.8,144.4,6.3,143.1,2.6z M145,4.3c-0.1,0-0.2,0-0.3,0.1c0.5,2.5,0.2,4.9-0.4,7.6c1.4-1.1,2.7-1.9,3.6-3
	c0.5-0.6,0.5-1.2-0.1-1.8C146.9,6.1,145.9,5.2,145,4.3z"/>
<path class="st0" d="M114.8,0.2c0.7,1.8,2.3,3.1,3.6,4.5c1.7,1.8,3.6,3.5,5.4,5.2c4.9,4.7,4.8,12-0.3,16.7c-2.3,2.1-5,3.7-6.8,6.2
	c-0.5,0.7-1.1,1.5-1.6,2.2c-0.3,0.4-0.5,0.5-0.8,0c-1.4-2.2-3.5-3.8-5.3-5.6c-2.4-2.4-4.7-4.8-5.7-8c-1.5-4.5-0.5-8.5,3-11.8
	c2.1-2,4.5-3.9,6.3-6.2c0.8-1,1.5-2.1,2-3.2C114.6,0.2,114.7,0.2,114.8,0.2z M112.8,28.4c2-3.2,4.8-5.4,8.1-7c1.1-0.6,2.1-1.4,3-2.3
	c2.3-2.4,2.4-4.7,0.3-7.2c-0.4-0.4-0.7-0.8-0.9,0.1c-0.9,2.9-3,4.8-5.6,6.4c-1.4,0.9-2.8,1.8-4,3C111.5,23.6,111.2,25.4,112.8,28.4z
	 M126.1,18c-1.7,2.6-4.4,4-7,5.5c-2.2,1.3-3.9,3-5.3,5.1c-0.3,0.5-0.7,1-0.4,1.6c0.4,1,0.9,2,1.4,3.2c1.6-2,3.3-3.9,5.3-5.3
	c1.3-0.9,2.5-1.9,3.5-3.2C125.3,22.9,126.4,20.7,126.1,18z M111.7,21.9c1.7-2.2,4.1-3.6,6.4-5c0.8-0.5,1.4-1.1,2-1.7
	c1.2-1.2,1.9-2.7,2.3-4.4c0.2-1-0.6-1.4-1.3-1.8c-0.7-0.5-0.8,0.4-1.1,0.7c-0.5,0.5-1,1-1.6,1.5c-1.3,0.9-2.6,2-3.5,3.3
	C113.1,16.6,111.7,19,111.7,21.9z M110.6,25.3c-0.1-1.5-0.3-2.7-0.1-3.9c0.2-0.9,0-1.7-0.3-2.5c-1-2.6-2.8-4.9-3.3-7.7
	c-0.1-0.4-0.4-0.5-0.6-0.2c-0.8,1-1.9,1.8-1.7,3.2C105.1,18.5,107.5,21.9,110.6,25.3z M113,14.9c0-0.3,0-0.3,0-0.4
	c-0.4-2.3-1.9-4.3-2.7-6.4c-0.1-0.2-0.3-0.3-0.6-0.2c-0.9,0.3-1.9,1.8-1.7,2.7c0.4,2.6,2,4.7,3,7.1c0.1,0.2,0.3,0.6,0.6,0.2
	C112.1,16.9,112.7,15.9,113,14.9z M112.5,31c-0.1-0.6-0.3-1-0.5-1.5c-1.2-2.1-2.5-4.2-4.1-6c-1.8-2.1-3.2-4.3-3.8-7
	c0-0.2,0-0.4-0.3-0.5C102.3,20,107.7,29.3,112.5,31z M114.6,2.6c-1.2,1.4-2.3,2.5-3.3,3.7c-0.2,0.3-0.3,0.6-0.2,0.9
	c0.6,2.2,1.9,4,2.8,6.1C115.5,9.8,115.7,6.3,114.6,2.6z M116.1,3.8c0.4,2.8,0.3,5.3-0.1,7.8c1.2-0.9,2.6-1.6,3.4-2.8
	c0.4-0.5,0.5-1.1,0-1.6C118.3,6.1,117.3,5.1,116.1,3.8z"/>
<path class="st0" d="M171.8,0.2c1.2,2.1,3,3.8,4.7,5.5c1.3,1.4,2.7,2.6,4.1,3.9c5.3,5,5.2,12.2-0.1,17.1c-2.2,2-4.9,3.7-6.7,6.1
	c-0.5,0.7-1,1.4-1.6,2.1c-0.2,0.3-0.4,0.7-0.7,0.2c-2.4-3.4-6-5.7-8.5-9.1c-1.6-2.2-2.9-4.4-3.2-7.1c-0.5-4.2,1.2-7.6,4.5-10.3
	c2.4-2,4.6-4.1,6.4-6.6c0.4-0.6,0.8-1.2,0.9-1.9C171.6,0.2,171.7,0.2,171.8,0.2z M169.7,31.4c0,0.1,0.1,0.2,0.1,0.2
	c0.2-0.1,0-0.2,0-0.2c-0.7-2.1-2-4-3.3-5.8c-2.1-2.9-4.7-5.7-5.4-9.3c0,0-0.1-0.1-0.2-0.1c-0.4,2-0.2,4,0.9,6.2
	C163.6,26,166.5,28.8,169.7,31.4z M169.9,28.4c2-3.5,5.1-5.5,8.5-7.3c1-0.5,1.8-1.2,2.6-2c2.3-2.4,2.4-4.4,0.4-7
	c-0.2-0.2-0.3-0.6-0.7-0.6c-0.4,0-0.4,0.5-0.5,0.7c-0.7,2-2,3.7-3.8,5c-1.3,1-2.8,1.7-4,2.7C168.4,23.3,168.2,24.8,169.9,28.4z
	 M183.3,17.8c-1.4,2.3-3.6,3.8-6,5.1c-1.9,1-3.5,2.3-4.9,3.8c-1.7,1.8-2.5,3.6-1,5.9c0.5,0.7,0.6,0.8,1.2,0.1
	c1.5-1.9,3.2-3.5,5.2-4.9c1.2-0.9,2.3-1.8,3.2-3C182.6,22.7,183.6,20.4,183.3,17.8z M168.7,21c0,0.3-0.1,0.6,0.3,0.6
	c0.3,0.1,0.4-0.2,0.6-0.4c1.4-1.7,3.3-2.9,5.2-4c1.8-1.1,3.2-2.6,4.1-4.5c0.3-0.6,0.5-1.3,0.6-2c0.1-0.9-0.6-1.5-1.3-1.8
	c-0.7-0.4-0.8,0.5-1.1,0.8c-0.6,0.6-1.2,1.2-1.9,1.7c-2.4,1.7-4.1,3.9-5.4,6.5C169.3,18.9,168.9,19.9,168.7,21z M167.8,25.2
	c0-1.9,0-3.4,0-4.9c0-0.4-0.2-0.8-0.3-1.3c-0.9-2.7-2.8-5.1-3.4-7.9c-0.1-0.4-0.4-0.6-0.7-0.2c-0.9,1.1-1.9,2-1.6,3.6
	C162.3,18.7,164.7,21.9,167.8,25.2z M168.3,18.4c0.5-0.9,0.8-1.6,1.3-2.2c0.6-0.8,0.6-1.6,0.3-2.5c-0.6-1.9-1.7-3.7-2.5-5.5
	c-0.1-0.3-0.2-0.5-0.6-0.3c-1.2,0.5-1.9,1.9-1.7,3.2C165.7,13.6,167.3,15.7,168.3,18.4z M171,13.5c1.6-3.4,1.8-6.7,1-10
	c-0.1-0.3-0.1-0.6-0.4-0.7c-0.3-0.1-0.4,0.3-0.6,0.5c-0.8,0.9-1.5,1.8-2.3,2.6c-0.5,0.5-0.6,1-0.4,1.6C169.2,9.5,170,11.4,171,13.5z
	 M173.1,11.5c1.2-0.8,2.4-1.5,3.3-2.6c0.4-0.4,0.8-1,0.4-1.5c-1-1.1-2-2.3-3.5-3.5C173.7,6.7,173.5,9.1,173.1,11.5z"/>
<path class="st0" d="M86,0.2c2.2,3.3,5.1,6,8.1,8.6c2.1,1.9,3.7,4,4.4,6.7c0.9,3.8-0.1,7.1-2.6,10c-1,1.2-2.1,2.2-3.4,3.1
	c-2.3,1.7-4.2,3.7-5.7,6c-0.5,0.7-0.7,0.9-1.3,0c-1.3-2.1-3.4-3.6-5.1-5.3c-1.3-1.3-2.6-2.7-3.7-4.2c-4.2-5.5-3.5-12,1.9-16.5
	c2.3-2,4.5-4,6.2-6.4c0.5-0.6,0.9-1.3,1-2.1C85.8,0.2,85.9,0.2,86,0.2z M84.1,28.3c0.2-0.2,0.3-0.3,0.4-0.4c1.8-2.7,4.3-4.8,7.3-6.3
	c0.9-0.5,1.8-1,2.5-1.7c2.9-2.6,3.8-4.8,1.3-7.8c-0.2-0.2-0.3-0.6-0.7-0.6c-0.4,0-0.4,0.5-0.5,0.7c-0.9,2.4-2.6,4.3-4.8,5.7
	c-1.4,0.9-2.9,1.7-4.1,2.9C82.7,23.8,82.7,24.7,84.1,28.3z M97.6,17.8c-1.3,2.3-3.4,3.7-5.7,4.9c-2,1.1-3.7,2.4-5.2,4
	c-1.8,1.8-2.5,3.7-0.9,6c0.4,0.6,0.6,0.7,1,0.1c1.4-1.9,3.1-3.6,5.1-5c1.1-0.8,2-1.6,2.9-2.6C96.7,23.1,97.9,20.7,97.6,17.8z
	 M83,22.3c1.6-2.1,3.5-3.5,5.6-4.8c2.3-1.4,4.1-3.1,5-5.7c0.4-1.2,0.2-2-0.9-2.8c-0.4-0.3-0.6-0.4-1,0.1c-0.6,1-1.6,1.7-2.5,2.4
	c-2.3,1.7-4,3.9-5.2,6.4C83.4,19.2,82.9,20.5,83,22.3z M81.9,24.8c-0.2-2.3,0.6-4.6-0.5-6.8c-1.1-2.2-2.5-4.4-3-6.8
	c-0.1-0.3-0.2-0.5-0.6-0.3c-0.7,0.4-1.8,2.5-1.7,3.4C76.5,18.5,78.8,21.8,81.9,24.8z M75.4,15.8c-1.6,4.4,3.3,12.9,8.8,15.7
	c-0.4-1.5-1.2-2.7-2-4C79.9,23.7,76.1,20.7,75.4,15.8z M82.6,18.3c0.5-0.8,0.7-1.4,1.1-1.9c0.7-1,0.8-2,0.3-3
	c-0.7-1.7-1.5-3.4-2.3-5.1c-0.1-0.3-0.2-0.6-0.7-0.4C80,8.3,79.2,9.8,79.4,11C80,13.5,81.6,15.7,82.6,18.3z M85.2,13.2
	c1.6-3.2,1.9-6.5,1.1-9.8c-0.1-0.2-0.1-0.5-0.3-0.6c-0.4-0.1-0.5,0.3-0.6,0.5C84.5,4.2,83.8,5.1,83,6c-0.4,0.5-0.6,1-0.3,1.5
	C83.5,9.4,84.3,11.3,85.2,13.2z M87.4,11.6c1.2-1,2.7-1.7,3.6-3c0.2-0.4,0.4-0.8,0-1.2c-1-1.1-2.1-2.2-3.4-3.5
	C87.9,6.7,87.9,9.1,87.4,11.6z"/>
<path class="st0" d="M147.8,200.2c-0.2-1.1-1.1-2-1.5-3.1c-1.9-4.8-0.9-9.1,2.9-12.7c2.2-2.1,4.6-4.1,6.5-6.5
	c0.5-0.6,0.9-1.2,1.3-1.9c0.3-0.6,0.6-0.7,1-0.1c2.4,3.1,5.3,5.8,8.2,8.4c4.3,4,5.6,9.9,2.2,14.7c-0.2,0.3-0.5,0.7-0.3,1.1
	c-0.5,0-1,0-1.5,0c0.5-1.3,1.5-2.3,2-3.6c0.6-1.5,0.8-3.1,0.4-4c-1.4,2.5-3.7,4-6.2,5.3c-1.1,0.6-2.2,1.1-2.8,2.2
	c-0.6,0-1.2,0-1.8,0c0.7-0.9,1.6-1.5,2.5-2.1c2-1.4,4.3-2.2,6-4c2.2-2.4,2.4-4.4,0.5-7c-0.2-0.2-0.4-0.6-0.7-0.6
	c-0.4,0-0.4,0.5-0.5,0.7c-0.9,2.4-2.5,4.2-4.7,5.6c-1.3,0.8-2.6,1.6-3.7,2.6c-1.5,1.3-2.9,2.7-3,4.8c-0.3,0-0.7,0-1,0
	c-0.2-1.5-0.3-3,0-4.6c0.1-0.4,0-0.9-0.2-1.3c-1-3-3-5.6-3.7-8.9c-1.6,1.4-2.5,2.8-2,4.8c0.7,2.7,1.7,5.2,3.6,7.3
	c0.7,0.8,1.4,1.8,2,2.7c-0.5,0-1,0-1.5,0c0.1-0.7-0.5-1.1-0.8-1.5c-1.9-2.1-3.3-4.4-4-7.1c0-0.2-0.1-0.4-0.4-0.5
	c-0.5,2.3,0.1,4.5,1.1,6.6c0.4,0.9,1.1,1.6,1.4,2.5C148.6,200.2,148.2,200.2,147.8,200.2z M154.5,197.2c1.7-2.4,3.9-3.7,6.1-5.1
	c1.9-1.2,3.4-2.8,4.2-4.8c0.2-0.5,0.3-1.1,0.4-1.6c0.1-0.9-0.7-1.4-1.3-1.7c-0.7-0.4-0.8,0.4-1.1,0.8c-0.6,0.6-1.2,1.1-1.8,1.6
	c-2.7,2-4.6,4.5-5.9,7.4C154.7,194.7,154.4,195.7,154.5,197.2z M154.1,193.2c0.8-1.7,2.2-2.8,1.5-4.6c-0.7-1.9-1.7-3.7-2.5-5.5
	c-0.1-0.2-0.2-0.4-0.5-0.3c-1.2,0.4-2,1.9-1.8,3C151.4,188.4,152.9,190.6,154.1,193.2z M157.3,177.6c-1.1,1.3-2.1,2.5-3.2,3.6
	c-0.3,0.3-0.4,0.7-0.2,1.1c0.9,2,1.7,3.9,2.7,6C158.4,185.7,158.7,180.4,157.3,177.6z M159.3,179.2c-0.1,0.1-0.2,0.1-0.3,0.2
	c0.5,2.4,0.2,4.9-0.4,7.5c1.3-1,2.5-1.8,3.4-2.8c0.4-0.5,0.9-1.1,0.4-1.7C161.4,181.3,160.3,180.3,159.3,179.2z"/>
<path class="st0" d="M4.8,200.2c0.2-0.6-0.3-1-0.6-1.5c-2.8-4.9-2.2-10.1,2-14.1c2.3-2.2,4.9-4.2,6.8-6.9c0.5-0.7,1-1.5,1.6-2.4
	c0.7,0.8,1.3,1.6,2,2.4c2.1,2.4,4.6,4.6,6.9,6.8c3,2.9,4.5,6.4,3.7,10.5c-0.3,1.4-0.9,2.7-1.6,3.9c-0.2,0.4-0.6,0.7-0.6,1.2
	c-0.4,0-0.8,0-1.3,0c0.1-0.7,0.7-1.2,1.1-1.8c1-1.7,1.7-3.4,1.3-5.5c-1.2,1.7-2.8,3.1-4.6,4.2c-1.2,0.7-2.4,1.3-3.4,2.1
	c-0.3,0.3-0.8,0.5-0.8,1c-0.6,0-1.2,0-1.8,0c1.2-1.5,2.9-2.6,4.6-3.5c1.3-0.7,2.5-1.5,3.6-2.5c2.4-2.4,2.6-5,0.4-7.3
	c-0.4-0.5-0.7-0.7-1,0.1c-1,3-3.2,5-5.9,6.6c-1.4,0.8-2.6,1.7-3.6,2.8c-1,1.1-2,2.2-1.9,3.8c-0.3,0-0.7,0-1,0
	c-0.3-1.2-0.4-2.5-0.2-3.7c0.2-1,0-1.9-0.4-2.9c-1-2.5-2.7-4.8-3.2-7.5c-0.1-0.5-0.4-0.5-0.7-0.2c-0.9,1.1-2,2.1-1.6,3.6
	c0.2,0.8,0.4,1.7,0.6,2.5c0.8,3.2,3.3,5.5,5.2,8.1c-0.5,0-1,0-1.5,0c-0.1-0.2-0.2-0.5-0.4-0.7c-2.1-2.5-4.1-5.1-4.7-8.7
	c-0.6,1.2-0.4,2.1-0.3,3c0.2,2.4,1.4,4.5,2.7,6.5C5.8,200.2,5.3,200.2,4.8,200.2z M11.8,196.8c2-2.4,4.9-3.8,7.3-5.6
	c1.7-1.3,2.8-3,3.3-5c0.2-0.8-0.6-2.1-1.4-2.4c-0.3-0.1-0.4,0-0.5,0.2c-1.1,1.9-3.3,2.8-4.7,4.3C13.6,190.7,11.9,193.4,11.8,196.8z
	 M8,185.5c0.3,2.4,2,4.7,3,7.2c0.1,0.2,0.4,0.4,0.5,0.1c0.7-1.4,2-2.5,1.3-4.3c-0.7-1.8-1.7-3.6-2.4-5.4c-0.1-0.2-0.2-0.5-0.5-0.4
	C9.2,182.9,7.9,184.5,8,185.5z M13.9,188.2c1.6-3.3,1.8-6.6,1-10c-0.2-0.6-0.4-0.6-0.8-0.1c-0.8,0.9-1.5,1.9-2.4,2.7
	c-0.6,0.6-0.7,1.2-0.4,1.9C12,184.6,13.1,186.3,13.9,188.2z M16.6,179.3c-0.1,0.1-0.2,0.1-0.4,0.2c0.3,2.3,0.2,4.6-0.4,7.2
	c1.5-1,2.8-1.8,3.6-3c0.3-0.4,0.5-0.9,0.1-1.3C18.6,181.3,17.6,180.3,16.6,179.3z"/>
<path class="st0" d="M119.3,200.2c0-0.5-0.3-0.8-0.6-1.2c-3.3-5.4-2.3-11.1,2.6-15.2c2.8-2.3,5.4-4.8,7.2-7.9c0.3-0.6,0.6-0.4,0.9,0
	c2.5,3.3,5.7,6,8.7,8.9c4.1,4,4.8,9.6,1.7,14.3c-0.2,0.3-0.5,0.6-0.5,1.1c-0.4,0-0.8,0-1.3,0c0.2-0.9,0.9-1.6,1.4-2.3
	c0.9-1.6,1.3-3.2,1.1-5.1c-1.7,3-4.8,4.2-7.5,6c-0.6,0.4-1.4,0.6-1.5,1.5c-0.6,0-1.2,0-1.8,0c1.3-1.7,3.2-2.7,5.1-3.7
	c1.2-0.7,2.3-1.4,3.2-2.4c2.4-2.4,2.5-4.8,0.3-7.3c-0.4-0.5-0.7-0.7-1,0.1c-0.9,2.8-2.9,4.8-5.5,6.3c-1.6,0.9-3.1,2-4.3,3.4
	c-0.9,1-1.7,2.1-1.7,3.6c-0.3,0-0.7,0-1,0c-0.3-1.3-0.4-2.6-0.1-3.9c0.2-1,0-1.9-0.4-2.9c-1-2.5-2.7-4.7-3.2-7.4
	c-0.1-0.4-0.3-0.6-0.7-0.3c-0.8,0.9-1.8,1.7-1.7,3c0.1,1.4,0.5,2.7,0.9,4c1,2.8,3.2,4.9,4.9,7.3c-0.5,0-1,0-1.5,0
	c0-0.5-0.3-0.9-0.7-1.2c-2.2-2.3-3.7-5-4.5-8.3c-0.5,1.2-0.4,2.1-0.3,3.1c0.2,2.4,1.5,4.4,2.6,6.4
	C120.1,200.2,119.7,200.2,119.3,200.2z M125.9,197.2c1.8-2.2,3.8-3.7,6-5c1.5-0.8,2.6-2.1,3.6-3.4c0.6-0.9,1-1.9,1.2-3
	c0.2-1-0.6-1.5-1.3-1.9c-0.7-0.4-0.8,0.5-1.1,0.8c-0.7,0.8-1.5,1.4-2.3,2c-2.6,1.9-4.3,4.4-5.4,7.2
	C126.1,194.8,125.8,195.8,125.9,197.2z M127.3,189.9c0-0.3,0-0.4,0-0.4c-0.5-2.3-1.8-4.3-2.7-6.4c-0.1-0.3-0.3-0.3-0.6-0.2
	c-0.9,0.3-1.8,1.7-1.7,2.6c0.3,2.6,2,4.8,3,7.2c0.1,0.3,0.4,0.6,0.6,0.1C126.3,191.8,127.1,190.9,127.3,189.9z M128.9,177.5
	c-1.3,1.4-2.3,2.6-3.4,3.8c-0.3,0.3-0.2,0.7-0.1,1c0.6,2.1,1.9,3.9,2.7,5.9C129.8,184.8,129.9,181.3,128.9,177.5z M130.4,179.2
	c0.4,2.7,0.2,5.1-0.5,7.8c1.5-1.2,2.8-2,3.7-3.1c0.4-0.5,0.6-1.1,0.1-1.6C132.7,181.3,131.7,180.4,130.4,179.2z"/>
<path class="st0" d="M33.5,200.2c-0.4-1.4-1.4-2.6-1.8-4c-1.4-4.6-0.3-8.5,3.3-11.9c2.2-2,4.5-3.9,6.3-6.2c0.5-0.7,1.1-1.3,1.4-2.1
	c0.3-0.6,0.5-0.8,1-0.1c2.4,3.2,5.3,5.8,8.2,8.5c4.1,3.8,5.7,9.8,2,15c-0.2,0.2-0.2,0.5-0.4,0.7c-0.4,0-0.8,0-1.3,0
	c0-0.5,0.4-0.8,0.6-1.1c1-1.4,1.7-2.9,2-4.5c0.1-0.6,0.3-1.2-0.1-2.1c-0.9,1.6-1.9,2.7-3.2,3.6c-1.2,0.9-2.7,1.5-4,2.4
	c-0.7,0.5-1.6,0.8-1.8,1.7c-0.5,0-1,0-1.5,0c0-0.5,0.4-0.7,0.7-0.9c1.2-1.1,2.6-1.9,4-2.6c1.7-0.9,3.2-2,4.3-3.5
	c1.7-2.4,1.3-4.8-1.1-6.8c-0.1,0.1-0.2,0.3-0.2,0.4c-0.8,2.8-2.7,4.8-5.2,6.4c-0.9,0.5-1.8,1-2.6,1.7c-1.8,1.5-3.6,2.9-3.8,5.4
	c-0.3,0-0.7,0-1,0c-0.2-1.5-0.3-3,0-4.6c0.1-0.6-0.1-1.1-0.3-1.6c-1-2.9-3-5.4-3.5-8.7c-1.4,1.4-2.5,2.5-2.1,4.4
	c0.6,2.8,1.6,5.4,3.6,7.6c0.8,0.9,1.4,1.8,2.1,2.8c-0.5,0-1,0-1.5,0c0-0.6-0.4-0.9-0.7-1.3c-1.4-1.8-2.9-3.6-3.6-5.9
	c-0.2-0.7-0.3-1.4-0.8-2c-0.5,1.6-0.2,3.1,0.2,4.5c0.4,1.7,1.5,3.1,2.2,4.7C34.3,200.2,33.9,200.2,33.5,200.2z M40.3,197
	c1.6-2,3.6-3.4,5.8-4.7c0.9-0.6,1.8-1.2,2.6-2c1.1-1.3,2.1-2.7,2.4-4.5c0.2-1-0.7-1.5-1.4-1.9c-0.6-0.4-0.8,0.5-1.1,0.8
	c-0.4,0.5-0.9,0.9-1.4,1.3c-1.2,0.9-2.4,1.8-3.3,3C41.9,191.4,40.3,193.8,40.3,197z M41.6,189.8c-0.4-2.5-1.9-4.6-2.8-6.9
	c-0.1-0.2-0.3-0.2-0.5-0.1c-1.3,0.6-2,1.9-1.7,3.3c0.5,2.3,2,4.3,2.9,6.5c0.1,0.3,0.4,0.6,0.6,0.2C40.6,191.8,41.4,190.9,41.6,189.8
	z M43.1,177.5c-1.1,1.5-2.1,2.6-3.2,3.7c-0.4,0.4-0.3,0.8-0.2,1.2c0.7,2.1,1.9,3.9,2.7,5.9C44.1,184.8,44.3,181.3,43.1,177.5z
	 M45.1,179.3c-0.1,0-0.3,0.1-0.4,0.1c0.5,2.5,0.3,4.9-0.3,7.4c1.2-0.9,2.5-1.7,3.4-2.8c0.4-0.5,0.8-1.1,0.3-1.7
	C47.1,181.3,46.1,180.3,45.1,179.3z"/>
<path class="st0" d="M62,200.2c0-0.6-0.4-1-0.7-1.5c-3.1-5.6-2-11,3.1-15.2c2.6-2.2,5.1-4.5,6.8-7.4c0.3-0.6,0.6-0.7,1-0.1
	c2.4,3.1,5.3,5.8,8.2,8.5c4.3,4,5.4,9.9,2.1,14.7c-0.2,0.3-0.4,0.6-0.3,1c-0.5,0-1,0-1.5,0c0.2-0.8,0.9-1.3,1.3-2
	c1-1.7,1.6-3.5,1.3-5.5c-1.5,2.5-3.9,3.9-6.4,5.3c-1,0.6-2.2,1-2.7,2.2c-0.5,0-1,0-1.5,0c0.1-0.5,0.5-0.8,0.9-1.1
	c1.2-0.9,2.5-1.9,3.9-2.5c1.3-0.7,2.5-1.5,3.5-2.6c2.2-2.3,2.3-4.5,0.3-7c-0.2-0.2-0.3-0.5-0.6-0.5c-0.4,0-0.4,0.4-0.5,0.6
	c-0.7,2.2-2.1,4-4.1,5.3c-1,0.7-2,1.3-3,1.9c-2.1,1.5-4,3.2-4.4,5.9c-0.3,0-0.7,0-1,0c0-1.9,0.3-3.8-0.1-5.6c-0.7-3.2-3-5.8-3.7-9.3
	c-1,1.4-2.3,2.2-2.1,3.8c0.2,2,0.9,4,1.9,5.8c1.1,1.9,2.8,3.4,3.9,5.3c-0.5,0-1,0-1.5,0c0-0.8-0.6-1.3-1-1.8
	c-1.5-1.7-2.6-3.5-3.4-5.6c-0.2-0.6-0.4-1.1-0.6-1.9c-0.5,1.7-0.2,3.9,0.5,5.8c0.5,1.2,1.4,2.2,1.8,3.5
	C62.8,200.2,62.4,200.2,62,200.2z M68.8,197c0.6-0.6,1.2-1.1,1.6-1.7c1.5-1.6,3.5-2.5,5.2-3.8c2-1.5,3.4-3.3,3.9-5.7
	c0.2-1.1-0.6-1.5-1.3-2c-0.7-0.5-0.8,0.4-1.1,0.7c-0.6,0.6-1.2,1.1-1.8,1.6c-2.5,1.8-4.3,4-5.6,6.7C69.2,194.2,68.7,195.4,68.8,197z
	 M68.4,193.4c0.8-1.8,2.3-3.1,1.4-5c-0.8-1.7-1.5-3.4-2.3-5.1c-0.1-0.3-0.2-0.6-0.7-0.4c-1.2,0.5-1.9,1.8-1.7,3
	C65.7,188.5,67.3,190.7,68.4,193.4z M71,188.5c1.6-3.6,1.8-6.9,0.9-10.3c-0.2-0.7-0.6-0.3-0.8,0c-0.8,1-1.6,2-2.5,2.9
	c-0.4,0.4-0.4,0.9-0.2,1.3C69.2,184.4,70,186.3,71,188.5z M73.1,186.4c1.4-0.8,2.7-1.6,3.6-2.9c0.2-0.3,0.4-0.7,0-1
	c-1.1-1.1-2.1-2.3-3.5-3.4C73.7,181.6,73.6,184,73.1,186.4z"/>
<path class="st0" d="M176.5,200.2c-1.4-2.2-2.4-4.4-2.5-7c-0.2-3.8,1.4-6.8,4.3-9.3c2.8-2.3,5.4-4.8,7.3-7.9c0.3-0.5,0.6-0.6,1-0.1
	c2.5,3.3,5.7,6,8.6,9c3.3,3.3,4.4,7.1,3.1,11.5c-0.4,1.4-1.3,2.5-2,3.8c-0.4,0-0.8,0-1.3,0c0.1-0.5,0.5-0.9,0.8-1.3
	c1.3-1.9,2.1-3.8,1.8-6.2c-1.6,2.5-4,4-6.6,5.4c-0.9,0.5-2,1-2.5,2c-0.6,0-1.2,0-1.8,0c1.5-1.6,3.3-2.7,5.2-3.8
	c1.8-0.9,3.3-2.1,4.3-3.8c1.4-2.2,0.8-4.8-1.5-6.3c-1,3.6-3.6,5.8-6.8,7.6c-1,0.5-1.8,1.3-2.6,2c-1.2,1.2-2.4,2.4-2.1,4.2
	c-0.4,0-0.8,0-1.3,0c0-1.2-0.1-2.4,0-3.5c0.1-1.4-0.2-2.6-0.7-3.9c-1-2.2-2.4-4.2-2.9-6.6c-0.1-0.3-0.1-0.6-0.6-0.4
	c-0.6,0.3-1.9,2.4-1.8,3.1c0.4,3.1,1.4,5.9,3.5,8.3c0.8,0.9,1.6,1.9,2.2,3c-0.5,0-1,0-1.5,0c0.1-0.5-0.3-0.9-0.6-1.2
	c-1.9-2.2-3.4-4.6-4.2-7.4c0-0.2-0.1-0.4-0.4-0.5c-0.2,1.9-0.1,3.7,0.6,5.5c0.5,1.3,1.4,2.3,1.8,3.6
	C177.2,200.2,176.8,200.2,176.5,200.2z M187.9,179.4c-0.1,0-0.2-0.1-0.3-0.1c0,0.1,0,0.2,0.1,0.3c0.2,2.3,0.2,4.6-0.5,7.1
	c1.7-1.1,3-2,3.9-3.3c0.3-0.4,0.1-0.8-0.2-1.2C189.8,181.3,189,180.2,187.9,179.4z M183.1,197.2c1.8-2.6,4.3-3.9,6.7-5.5
	c1.8-1.2,3.1-2.9,3.8-5c0.4-1.1,0.1-2-0.9-2.7c-0.4-0.3-0.7-0.4-1,0.1c-0.7,1.1-1.8,1.9-2.9,2.7c-2.3,1.7-3.8,3.9-5,6.4
	C183.3,194.3,182.9,195.5,183.1,197.2z M182.6,193.3c0.4-0.7,0.5-1.2,0.9-1.6c1.2-1.4,0.9-2.8,0.2-4.3c-0.6-1.4-1.3-2.8-2-4.2
	c-0.1-0.3-0.2-0.7-0.7-0.4c-1.1,0.5-2,2-1.7,3.2C180,188.5,181.5,190.7,182.6,193.3z M185.2,188.4c1.8-2.7,2-9.1,0.6-10.6
	c-1,1.1-1.9,2.2-2.9,3.3c-0.5,0.5-0.4,1-0.2,1.5C183.5,184.5,184.3,186.4,185.2,188.4z"/>
<path class="st0" d="M90.5,200.2c0-1-0.7-1.6-1.1-2.5c-2.3-5.3-1.2-10.1,3.3-14c2.7-2.3,5.3-4.6,7.1-7.7c0.3-0.6,0.6-0.6,1.1-0.1
	c2.4,3.2,5.5,5.9,8.4,8.7c4.2,4,5,9.4,2,14.3c-0.2,0.4-0.5,0.7-0.5,1.2c-0.5,0-1,0-1.5,0c0.6-1.1,1.5-2,1.9-3.1
	c0.6-1.3,1-2.7,0.7-4.3c-0.8,0.9-1.5,1.7-2.2,2.4c-1.6,1.7-3.9,2.4-5.7,3.8c-0.4,0.3-1.1,0.5-1,1.2c-0.6,0-1.2,0-1.8,0
	c0.7-1.2,1.9-1.8,3-2.6c1.5-1,3.2-1.8,4.6-3c2.8-2.3,3.2-5,1.1-7.6c-0.2-0.2-0.3-0.6-0.7-0.6c-0.4,0-0.4,0.5-0.5,0.7
	c-0.9,2.4-2.6,4.3-4.8,5.7c-1.4,0.9-2.9,1.7-4.1,2.9c-1.3,1.2-2.6,2.5-2.4,4.4c-0.4,0-0.8,0-1.3,0c0-1.4,0-2.8,0.1-4.2
	c0.1-0.7,0-1.4-0.3-2.1c-1-2.7-2.8-5-3.4-7.8c-0.1-0.3-0.3-0.6-0.6-0.3c-0.8,1-2,1.8-1.8,3.2c0.4,3,1.4,5.7,3.4,8.1
	c0.8,1,1.8,1.9,2.2,3.1c-0.4,0-0.8,0-1.3,0c-0.2-0.6-0.6-1.1-1-1.6c-1.8-2-3.2-4.3-3.9-6.9c-0.1-0.2,0-0.6-0.4-0.7
	c-0.3,0.3-0.2,0.6-0.2,0.9c-0.3,3.1,1.1,5.7,2.7,8.3C91.5,200.2,91,200.2,90.5,200.2z M97.4,196.9c1.7-2.1,4-3.6,6.3-5
	c0.8-0.5,1.6-1.2,2.2-1.9c1.1-1.2,1.9-2.6,2.2-4.2c0.2-1.1-0.7-1.6-1.4-2c-0.7-0.5-0.7,0.5-1.1,0.8c-0.6,0.5-1.1,1.1-1.7,1.5
	c-2,1.5-3.6,3.2-4.9,5.3C98.1,193.2,97.4,194.9,97.4,196.9z M97,193c0.6-1.5,2.2-2.5,1.5-4.4c-0.7-1.9-1.8-3.7-2.5-5.7
	c-0.1-0.2-0.2-0.3-0.5-0.3c-0.7,0.1-2.1,1.9-2,2.6C94,188.2,95.7,190.5,97,193z M99.6,188.5c1.6-3.5,1.8-6.8,1-10.1
	c-0.1-0.2-0.1-0.5-0.4-0.6c-0.4-0.1-0.5,0.3-0.6,0.5c-0.8,0.9-1.6,1.8-2.4,2.7c-0.5,0.5-0.5,1-0.3,1.5
	C97.8,184.4,98.6,186.3,99.6,188.5z M102.2,179.3c-0.1,0-0.2,0.1-0.3,0.1c0.2,2.4,0.2,4.8-0.3,7.2c1.2-0.9,2.6-1.5,3.4-2.8
	c0.3-0.5,0.6-1.1,0.1-1.6C104.2,181.2,103.2,180.3,102.2,179.3z"/>
<path class="st0" d="M200.3,35.1c-0.9-0.3-1.1-1.2-1.6-1.7c-2.2-2.3-4.8-4.4-6.8-6.9c-2.3-2.8-3.8-5.8-3.6-9.4
	c0.1-3.4,1.8-6,4.3-8.2c2.7-2.4,5.5-4.8,7.3-8c0.1-0.1,0.3-0.2,0.4-0.3c0,0.7,0,1.4,0,2.1c-1.4,1-2.2,2.5-3.4,3.7
	c-0.1,0.1-0.1,0.5,0,0.8c0.6,2.1,1.9,3.9,2.7,6.1c0.3-0.4,0.5-0.6,0.7-0.9c0,0.9,0,1.9,0,2.8c-1,0.2-1.1,1-1.4,1.6
	c-0.9,1.5-1.6,3.1-1.6,5.2c1.1-1.1,1.9-2.1,3-2.8c0,0.6,0,1.1,0,1.7c-0.4-0.1-0.6,0.1-0.9,0.3c-2.2,2-2.5,4.4-1,6.9
	c0.8-0.4,0.8-1.6,1.8-1.8c0,0.6,0,1.3,0,1.9c-1.5,0.4-1.6,2.3,0,3.8C200.3,33.1,200.3,34.1,200.3,35.1z M196.2,25.2
	c0-1.4-0.1-2.5,0-3.5c0.2-1.4-0.2-2.5-0.7-3.7c-1-2.2-2.4-4.3-2.9-6.7c-0.1-0.4-0.4-0.6-0.7-0.2c-0.9,1-1.9,2-1.6,3.6
	C190.9,18.7,193.3,21.9,196.2,25.2z M197,18c0.5-1.4,2.1-2.4,1.5-4.2c-0.6-2-1.8-3.8-2.5-5.7c-0.1-0.2-0.2-0.4-0.6-0.3
	c-0.7,0.2-2,1.8-1.9,2.4C194,13.1,195.7,15.5,197,18z M189.6,16.3c-0.7,2.4-0.1,4.7,1,6.8c1.5,2.8,3.8,4.9,6,7.2
	c0.3,0.3,0.6,0.9,1.1,0.5c0.4-0.2,0-0.7-0.1-1.1c-1.2-2.5-2.8-4.8-4.7-6.9c-1.3-1.5-2.2-3.1-2.8-4.9C190,17.3,189.8,16.8,189.6,16.3
	z"/>
<path class="st0" d="M200.3,85.4c-2.2-3.1-5.4-5.3-7.9-8.2c-2.4-2.9-4.2-5.9-4.2-9.7c0.1-3.5,1.6-6.2,4.2-8.5c2.8-2.4,5.6-5,7.5-8.1
	c0.1-0.1,0.2-0.1,0.3-0.2c0,0.7,0,1.4,0,2.1c-1.4,1-2.2,2.5-3.4,3.7c-0.2,0.2-0.1,0.6,0,0.9c0.7,2,2,3.8,2.6,6.1
	c0.4-0.5,0.6-0.9,0.8-1.2c0,1,0,2,0,3.1c-1.5,0.8-3.2,4.6-2.9,6.8c0.9-1,1.7-2,2.9-2.8c0,0.5,0,0.9,0,1.4c-2.8,1.5-3.6,5.2-1.7,7.4
	c0.7-0.4,0.7-1.5,1.7-1.7c0,0.6,0,1.1,0,1.7c-1.6,1.1-1.5,2.6,0,4C200.3,83.2,200.3,84.3,200.3,85.4z M198.2,81.4
	c0.2,0.1,0.2,0,0.1-0.1c-0.1-0.6-0.4-1.2-0.7-1.8c-1.4-2.4-2.9-4.7-4.8-6.9c-1.2-1.5-2.1-3.1-2.7-4.9c-0.2-0.6-0.4-1.2-0.6-1.7
	c-0.5,1.5-0.4,3,0.1,4.5C191.1,75.2,194.6,78.3,198.2,81.4z M196.3,75.2c-0.1-1.8-0.2-3.3,0.1-4.8c0-0.2-0.1-0.5-0.2-0.8
	c-0.9-2.9-2.9-5.4-3.6-8.4c-0.1-0.3-0.3-0.6-0.6-0.2c-0.8,0.9-1.9,1.8-1.7,3.2C190.8,68.4,193.1,71.8,196.3,75.2z M196.8,68.1
	c1.9-2,2.2-3.1,1.4-5.3c-0.6-1.5-1.4-2.9-2.1-4.4c-0.1-0.3-0.3-0.7-0.8-0.5c-1,0.4-1.8,1.8-1.6,2.9
	C194.1,63.4,195.8,65.6,196.8,68.1z"/>
<path class="st0" d="M200.3,185.4c-2.4-3.3-5.9-5.7-8.4-8.8c-2.2-2.7-3.7-5.6-3.6-9.2c0.1-3.4,1.7-6.1,4.2-8.4
	c2.8-2.4,5.5-4.9,7.5-8c0.1-0.1,0.2-0.2,0.4-0.3c0,0.7,0,1.4,0,2.1c-1.4,1-2.2,2.5-3.4,3.6c-0.2,0.2-0.1,0.6,0,0.9
	c0.9,2,1.8,3.9,2.7,6c0.3-0.5,0.5-0.8,0.7-1.1c0,1,0,2,0,3.1c-0.4,0-0.6,0.2-0.8,0.5c-0.9,1.4-1.7,2.9-2.1,4.5
	c-0.1,0.5-0.3,1-0.1,1.6c1-0.9,1.8-2,2.9-2.6c0,0.5,0,0.9,0,1.4c-3.1,2.1-3.6,4.6-1.7,7.4c0.8-0.4,0.7-1.5,1.7-1.7
	c0,0.6,0,1.1,0,1.7c-1.6,1.1-1.5,2.6,0,4C200.3,183.2,200.3,184.3,200.3,185.4z M198.2,181.4c0.1,0,0.1,0,0.2,0
	C198.4,181.4,198.3,181.3,198.2,181.4c0-0.8-0.3-1.4-0.6-2c-1.3-2.3-2.8-4.6-4.5-6.6c-1.7-2-2.8-4.3-3.6-6.8c-0.3,1.5-0.3,3,0.2,4.5
	C191.1,175.2,194.6,178.3,198.2,181.4z M196.1,174.9c0.6-2.7,0.3-5.3-0.8-7.6c-0.9-2-2.2-3.8-2.6-6c-0.2-0.7-0.5-0.5-0.9-0.1
	c-1,1.1-1.7,2.3-1.3,3.9C191.2,169,193.4,172,196.1,174.9z M196.9,168.3c0.7-1.1,1.2-1.9,1.6-2.8c0.2-0.4,0.2-0.7,0.1-1.1
	c-0.4-2.2-1.8-4.1-2.6-6.2c-0.1-0.3-0.3-0.4-0.7-0.3c-1,0.4-1.8,1.8-1.7,2.8C194.1,163.4,195.8,165.6,196.9,168.3z"/>
<path class="st0" d="M200.3,135.1c-0.8-0.3-0.9-1-1.4-1.6c-2.3-2.4-4.9-4.5-7.1-7.1c-2.6-3.2-4.1-6.7-3.4-10.8
	c0.5-2.6,1.9-4.7,3.9-6.4c2.9-2.5,5.7-5,7.7-8.3c0.1-0.1,0.2-0.1,0.3-0.2c0,0.7,0,1.4,0,2.1c-1.4,1-2.3,2.4-3.4,3.7
	c-0.1,0.2-0.1,0.5,0,0.8c0.6,2.1,1.9,3.9,2.7,6.1c0.3-0.4,0.5-0.6,0.7-0.9c0,0.9,0,1.9,0,2.8c-1,0.2-1.1,1-1.4,1.6
	c-0.9,1.5-1.6,3.1-1.6,5.2c1.1-1.1,1.8-2.1,3-2.8c0,0.6,0,1.1,0,1.7c-0.3-0.1-0.5,0-0.7,0.2c-2.3,1.8-2.7,4.6-1.1,7.1
	c0.8-0.4,0.8-1.6,1.8-1.8c0,0.6,0,1.3,0,1.9c-1.5,0.4-1.6,2.3,0,3.8C200.3,133.1,200.3,134.1,200.3,135.1z M196.3,125.2L196.3,125.2
	C196.3,125.3,196.2,125.2,196.3,125.2c0-1.3-0.1-2.6,0-3.9c0.1-1.1-0.1-2-0.5-3c-1-2.5-2.6-4.6-3.1-7.3c-0.1-0.4-0.4-0.5-0.7-0.2
	c-0.9,1-1.8,2-1.6,3.5C190.9,118.8,193.4,122.1,196.3,125.2z M197,118c0.6-1.4,2.1-2.4,1.6-4.2c-0.6-2.1-1.8-3.9-2.5-5.9
	c-0.1-0.2-0.2-0.3-0.5-0.3c-0.6,0.1-2,1.9-2,2.5C193.9,113.1,195.7,115.5,197,118z M189.6,116.1c-1.4,4.4,3.4,12.6,8.5,15.1
	c0.3-0.6-0.1-1-0.4-1.4c-1.4-2.5-2.9-4.9-4.9-7.1c-1.3-1.5-2.3-3.3-2.9-5.2C189.9,117,189.8,116.6,189.6,116.1z"/>
<path class="st0" d="M0.3,0.7c0.3,0,0.5,0.2,0.7,0.5C3.3,4.2,6.1,6.9,9,9.5c5.3,4.9,5.5,11.8,0.4,16.9c-0.8,0.8-1.6,1.6-2.6,2.2
	c-2.4,1.8-4.4,3.9-6,6.4c-0.1,0.2-0.4,0.4-0.6,0.6c0-0.8,0-1.6,0-2.4c0.5,0.2,0.7-0.1,0.9-0.4c1.5-2,3.4-3.7,5.5-5.3
	c2.5-1.9,4.5-4.3,5.3-7.4c0.2-0.7,0.4-1.5-0.1-2.4c-1.5,2.4-3.6,3.9-6,5.1c-1.6,0.8-2.9,1.9-4.2,3.1c-0.5,0.4-0.8,1-1.4,1.3
	c0-0.6,0-1.1,0-1.7c1.5-1,2.7-2.2,4.2-3.1c1.6-1,3.4-1.9,4.8-3.1c2.6-2.3,2.8-5.1,0.6-7.6c-0.4-0.5-0.7-0.5-0.9,0.1
	c-1.3,4.2-5.1,6.2-8.7,8.3c0-0.5,0-0.9,0-1.4c1.1,0,1.6-0.9,2.4-1.3c1.7-0.9,3.1-2.1,4.2-3.7c0.7-1,1.1-2,1.3-3.2
	c0.2-1-0.8-1.3-1.3-1.9C6.6,8.6,6.4,8.8,6.2,9.1c-1.7,2.1-4.2,3.4-5.9,5.5c0-1.3,0-2.5,0-3.8c0.3,0,0.4-0.2,0.5-0.5
	c0.4-2.1,0.5-4.3,0-6.4C0.7,3.8,0.6,3.6,0.3,3.5C0.3,2.6,0.3,1.7,0.3,0.7z M1.7,11.6c1.2-1,2.7-1.7,3.5-3c0.3-0.4,0.4-0.9,0-1.3
	C4.2,6.2,3.1,5.1,1.8,3.9C2.2,6.6,2.2,9.1,1.7,11.6z"/>
<path class="st0" d="M0.3,100.7c0.3,0,0.5,0.2,0.7,0.4c2.2,2.9,4.8,5.4,7.5,7.8c6.2,5.4,6.4,13.2-0.6,18.8c-2.8,2.2-5.4,4.5-7.3,7.5
	c-0.1,0.1-0.2,0.2-0.4,0.3c0-0.8,0-1.6,0-2.4c0.5,0.2,0.7-0.1,0.9-0.4c1.5-2,3.3-3.7,5.4-5.2c2.5-1.9,4.5-4.2,5.3-7.2
	c0.2-0.8,0.3-1.6,0.1-2.8c-1.1,1.9-2.5,3.1-4.1,4.1c-1.3,0.8-2.6,1.6-3.9,2.3c-1.5,0.9-2.4,2.3-3.7,3.3c0-0.6,0-1.1,0-1.7
	c1.3-0.9,2.5-1.9,3.8-2.8c1.7-1.2,3.6-2,5.1-3.4c2.7-2.3,2.9-5.2,0.7-7.7c-0.4-0.5-0.7-0.5-0.9,0.1c-1.3,4.2-5.1,6.2-8.7,8.3
	c0-0.5,0-0.9,0-1.4c1.5-0.4,2.7-1.4,3.9-2.2c2-1.4,3.4-3.3,4-5.6c0.3-1.1-0.6-1.6-1.3-2.1c-0.7-0.5-0.9,0.5-1.2,0.8
	c-1.8,1.5-3.6,3.1-5.4,4.6c0-1.2,0-2.4,0-3.5c0.3,0,0.4-0.2,0.5-0.5c0.5-2.1,0.5-4.2,0-6.4c-0.1-0.2-0.2-0.4-0.5-0.5
	C0.3,102.6,0.3,101.7,0.3,100.7z M1.8,103.9c0.4,2.7,0.3,5.2-0.1,7.7c1.2-0.9,2.5-1.6,3.4-2.8c0.4-0.5,0.7-1.1,0.1-1.7
	C4.1,106.1,3,105.1,1.8,103.9z"/>
<path class="st0" d="M0.3,150.5c2.2,2.6,4.6,5,7.1,7.4c1.3,1.3,2.7,2.4,3.7,3.9c3.2,4.8,2.7,10.2-1.5,14.4c-0.9,0.9-1.9,1.8-3,2.6
	c-2.1,1.5-3.8,3.4-5.3,5.6c-0.3,0.4-0.4,0.9-1,1c0-0.7,0-1.4,0-2.1c0.6,0.2,0.7-0.3,0.9-0.6c1.5-1.8,3.2-3.5,5.1-4.9
	c1.6-1.2,3-2.6,4.1-4.2c1.1-1.7,1.9-3.6,1.5-6c-1.3,2.3-3.1,3.8-5.2,4.8c-2.6,1.3-4.7,3-6.5,5.2c0-0.7,0-1.4,0-2.1
	c0.4,0.1,0.7-0.2,1-0.4c1.6-1.6,3.6-2.7,5.6-3.8c1.3-0.8,2.5-1.7,3.4-2.9c1.7-2.2,1.6-4.5-0.3-6.5c-0.5-0.6-0.7-0.4-1,0.2
	c-0.4,1-0.8,2-1.5,2.8c-1.9,2.4-4.6,3.8-7.2,5.4c0-0.5,0-0.9,0-1.4c2.6-1,4.7-2.5,6.4-4.7c0.8-1,1.2-2.1,1.5-3.3
	c0.3-1.1-0.7-1.5-1.3-1.9c-0.7-0.5-0.8,0.4-1.1,0.7c-1.8,1.6-3.7,3.2-5.5,4.7c0-1.2,0-2.4,0-3.5c0.3,0,0.4-0.2,0.5-0.5
	c0.4-2.1,0.5-4.2,0-6.3c-0.1-0.3-0.1-0.5-0.5-0.6C0.3,152.5,0.3,151.5,0.3,150.5z M1.5,161.8c1.3-0.9,2.5-1.7,3.4-2.7
	c0.5-0.6,0.9-1.2,0.2-1.9c-1-1-2.2-1.9-3.1-2.7c0,1,0,2.2,0,3.4C2.1,159.1,1.7,160.3,1.5,161.8z"/>
<path class="st0" d="M0.3,50.5c1.8,2.1,3.6,4.2,5.7,6.1c1.1,1,2.1,2.1,3.2,3.1c5.3,5,5.3,11.8,0.1,16.9c-2.4,2.3-5.3,4-7.2,6.8
	C1.5,84,1.2,85,0.3,85.4c0-0.7,0-1.4,0-2.1c0.6,0.2,0.8-0.3,1-0.7c1.4-1.8,3.1-3.5,5-4.9c1.6-1.2,2.9-2.6,4-4.1
	c1.3-1.8,1.9-4.3,1.4-5.9c-1.4,2.6-3.7,4.1-6.2,5.4c-1.5,0.8-2.8,2-4.1,3.1c-0.4,0.4-0.6,1-1.3,1.2c0-0.6,0-1.1,0-1.7
	c0.2-0.1,0.5-0.2,0.6-0.3c1.5-1.6,3.3-2.7,5.2-3.8c1.1-0.6,2.2-1.3,3.1-2.2c2.7-2.9,2.8-4.5,1-7c-0.3-0.4-0.4-0.9-0.9-0.9
	c-0.6,0-0.5,0.7-0.7,1.1c-0.4,1-0.9,1.9-1.6,2.7c-1.9,2.2-4.4,3.5-6.9,5c0-0.5,0-0.9,0-1.4c1.5-0.4,2.7-1.3,3.9-2.2
	c2-1.5,3.5-3.3,4-5.8c0.2-1.1-0.7-1.5-1.3-1.9c-0.7-0.5-0.8,0.4-1.1,0.7c-1.8,1.6-3.6,3.1-5.5,4.7c0-1.2,0-2.4,0-3.5
	c0.6-0.1,0.5-0.6,0.6-0.9c0.3-1.9,0.3-3.7,0-5.6c-0.1-0.5-0.1-0.9-0.5-1.3C0.3,52.2,0.3,51.3,0.3,50.5z M1.9,54.4
	c0.2,2.3,0.3,4.8-0.5,7.5c1.4-1,2.5-1.7,3.4-2.7c0.5-0.6,1-1.3,0.3-2C4.1,56.2,3,55.3,1.9,54.4z"/>
<path class="st0" d="M53,0.2c-0.3,1.2-1.3,1.9-2.3,2.6C48,4.9,45.5,7.2,43.7,10c-0.2,0.3-0.5,0.7-0.8,0.1c-1.5-2.4-3.9-4.1-5.9-6.1
	c-0.8-0.8-1.5-1.7-2.3-2.5C34.4,1.2,34,0.8,34,0.2c0.4,0,0.8,0,1.3,0c0,0.3,0.2,0.6,0.4,0.8c1.6,1.8,3.2,3.7,5.2,5.2
	c0.1,0.1,0.3,0.2,0.4,0.4c0.1-0.2,0-0.4-0.2-0.5c-0.2-0.9-0.6-1.6-1-2.4c-0.6-1.2-1.6-2.2-2-3.5c0.8,0,1.5,0,2.3,0
	c0.4,1,0.4,2.1,1.3,3.2c0.4-1.4,1.7-2,2-3.2c0.5,0,1,0,1.5,0c-0.2,0.7-0.8,1.2-1.3,1.7C42,3.6,41.5,5.4,43,7.5c0,0,0,0.1,0,0.1
	c0.3,0.6,0.6,0.7,1,0.1c1.7-2.2,3.8-4,6.1-5.7c0.6-0.4,1.5-0.8,1.4-1.8C52,0.2,52.5,0.2,53,0.2z"/>
<path class="st0" d="M110.3,0.2c-0.6,1.2-1.7,2.1-2.8,2.9c-2.6,1.9-4.8,4.1-6.5,6.7c-0.3,0.4-0.6,0.9-1,0.1c-1-1.7-2.7-2.9-4.1-4.4
	C94,3.9,92.3,2.3,91,0.2c0.4,0,0.8,0,1.3,0c1.3,2.2,3.4,3.8,5.2,5.6C97.6,6,97.9,6.2,98.1,6c0.2-0.2,0-0.4-0.1-0.7
	c-0.9-1.8-2-3.4-3-5.1c0.8,0,1.7,0,2.5,0c0,0.9,0.3,1.7,0.6,2.5c0.1,0.4,0.4,0.6,0.7,0.2c0.6-1,1.5-1.7,2-2.7c0.5,0,1,0,1.5,0
	c-0.2,0.7-0.8,1.1-1.3,1.6c-1.8,1.7-2.3,3.6-0.9,5.8c0.5,0.8,0.7,0.7,1.2,0.1c1.5-2.1,3.5-3.7,5.6-5.3c0.8-0.6,1.6-1.1,1.9-2.1
	C109.3,0.2,109.8,0.2,110.3,0.2z"/>
<path class="st0" d="M167.3,0.2c-0.6,1.5-1.9,2.3-3.1,3.2c-2.4,1.8-4.4,3.8-6,6.2c-0.5,0.7-0.8,0.9-1.3,0.1c-1-1.6-2.5-2.7-3.8-4
	c-1.8-1.7-3.6-3.5-5-5.5c0.5,0,1,0,1.5,0c0,0.3,0.2,0.6,0.4,0.8c1.6,1.9,3.3,3.6,5.2,5.2c0.1,0.1,0.2,0.2,0.3,0.2
	c0.2-0.1,0.1-0.2,0-0.4c-0.1-0.7-0.5-1.3-0.8-1.9c-0.7-1.3-1.7-2.5-2.3-3.9c0.8,0,1.5,0,2.3,0c0.3,1,0.4,2.1,1.2,3.2
	c0.5-1.3,1.7-2,2-3.2c0.6,0,1.2,0,1.8,0c-1,1.1-2.1,2.2-2.9,3.5c-0.3,0.5-0.6,0.9-0.4,1.4c0.4,1.1,0.8,2.1,1.5,3.2
	c2-2.7,4.5-4.8,7.1-6.8c0.5-0.4,1-0.7,1.1-1.4C166.4,0.2,166.8,0.2,167.3,0.2z"/>
<path class="st0" d="M138.8,0.2c-0.6,1.4-1.9,2.3-3.1,3.2c-2.4,1.8-4.5,3.9-6.2,6.4c-0.5,0.8-0.7,0.7-1.2,0
	c-1.4-2.1-3.6-3.7-5.4-5.5c-1.2-1.3-2.5-2.5-3.4-4c0.5,0,1,0,1.5,0c1.2,2.4,3.4,4.1,5.4,5.8c0,0,0.1,0,0.2-0.1
	c0.1-0.7-0.4-1.2-0.6-1.7c-0.6-1.4-1.8-2.5-2.3-4c0.8,0,1.5,0,2.3,0c0.3,1,0.4,2.1,1.1,3.2c0.6-1.3,1.7-2.1,2.1-3.2c0.5,0,1,0,1.5,0
	c-0.8,1.4-2.1,2.4-2.8,3.8c-0.2,0.4-0.5,0.7-0.3,1.1c0.5,1.1,0.8,2.2,1.6,3.3c2-2.8,4.6-4.9,7.2-6.9c0.4-0.3,0.9-0.6,0.8-1.2
	C137.8,0.2,138.3,0.2,138.8,0.2z M127,6.6C127,6.6,126.9,6.6,127,6.6C127,6.6,127,6.6,127,6.6z"/>
<path class="st0" d="M196,0.2c-0.9,1.4-2.1,2.4-3.4,3.4c-2.4,1.7-4.3,3.8-5.9,6.2c-0.5,0.8-0.8,0.8-1.3,0c-0.7-1.2-1.7-2-2.7-2.9
	c-2.3-2-4.4-4.2-6.2-6.6c0.5,0,1,0,1.5,0c1.4,2.5,3.7,4.2,5.9,6.3c0-1.1-0.3-1.6-0.6-2.2c-0.8-1.4-1.7-2.8-2.5-4.2
	c0.8,0,1.7,0,2.5,0c0.1,1.1,0.3,2.1,1.1,3.3c0.4-1.4,1.7-2,1.9-3.3c0.6,0,1.2,0,1.8,0c-0.4,0.5-0.8,1-1.2,1.5
	c-1.8,1.7-2.5,3.5-1,5.8c0.5,0.7,0.6,0.9,1.2,0.2c1.6-2.1,3.6-3.8,5.7-5.4c0.7-0.5,1.6-1.1,1.8-2C195,0.2,195.5,0.2,196,0.2z"/>
<path class="st0" d="M24.5,0.2c-0.6,1.3-1.8,2.2-2.9,3c-2.6,1.9-4.8,4.1-6.5,6.8c-0.2,0.4-0.5,0.7-0.9,0.1c-1.4-2.2-3.6-3.8-5.4-5.7
	C7.5,3.1,6.2,1.8,5.3,0.2c0.5,0,1,0,1.5,0C6.7,0.5,6.9,0.8,7,1c1.7,2.1,3.6,3.9,5.9,5.9c-0.9-2.6-2.4-4.6-3.7-6.6c0.8,0,1.7,0,2.5,0
	c0.2,0.8,0.4,1.7,0.6,2.5c0.1,0.4,0.4,0.7,0.7,0.2C13.7,2,14.6,1.3,15,0.2c0.5,0,1,0,1.5,0c-0.8,1.3-2,2.3-2.7,3.6
	c-0.2,0.5-0.6,0.9-0.4,1.4c0.4,1,0.9,2,1.3,3.1C15,8.2,15.2,8.1,15.2,8c1.8-2.3,4-4.3,6.4-6C22.2,1.5,23,1.1,23,0.2
	C23.5,0.2,24,0.2,24.5,0.2z"/>
<path class="st0" d="M81.8,0.2c-0.9,1.4-2.2,2.4-3.5,3.4c-2.4,1.7-4.3,3.8-5.9,6.2c-0.5,0.7-0.7,0.7-1.1,0C69.7,7.6,67.4,6,65.6,4
	c-1.1-1.2-2.4-2.3-3.1-3.8c0.4,0,0.8,0,1.3,0C64.1,1.3,65,2,65.8,2.8c1.2,1.3,2.6,2.4,4,3.7c0.1-0.5-0.2-0.8-0.3-1.2
	c-0.8-1.8-2-3.4-3-5.1c0.8,0,1.7,0,2.5,0c0,0.9,0.3,1.7,0.5,2.5c0.1,0.3,0.4,0.7,0.6,0.3c0.6-1,1.7-1.6,1.9-2.8c0.6,0,1.2,0,1.8,0
	c-0.5,0.6-1,1.2-1.6,1.8c-1.6,1.6-2.1,3.3-0.7,5.3c0,0,0,0.1,0,0.1c0.3,0.8,0.6,0.9,1.2,0.2c1.6-2,3.5-3.7,5.5-5.2
	c0.8-0.6,1.7-1.1,2-2.1C80.8,0.2,81.3,0.2,81.8,0.2z"/>
<path class="st0" d="M70.3,68.6c0,3.7-2.2,6.8-5.4,9.3c-2.6,2.1-5.1,4.3-6.9,7.1c-0.2,0.3-0.4,0.9-0.9,0.2c-1.8-2.7-4.6-4.5-6.7-7
	c-1.4-1.6-2.8-3.2-3.8-5.1c-2.5-5.2-1.5-10.3,3-14.1c2.3-2,4.5-4,6.3-6.5c0.1-0.2,0.3-0.4,0.4-0.6c0.9-1.4,0.9-1.4,2.1-0.1
	c2.3,2.8,5,5.2,7.7,7.7C68.7,62,70.2,64.8,70.3,68.6z M58.8,61.6c1.2-0.7,2.3-1.6,3.2-2.6c0.4-0.4,0.9-1,0.5-1.6
	c-1-1.2-2.1-2.2-3.2-3.3c0.2,2.5,0,5-0.6,7.3C58.6,61.7,58.7,61.7,58.8,61.6z M54.5,72c1.8-2.2,4.2-3.7,6.7-5.2
	c1.2-0.8,2.2-1.8,2.9-3c0.6-0.9,1-1.9,1.1-3c0.1-0.9-0.7-1.3-1.2-1.8c-0.2-0.2-0.5-0.2-0.6,0c-1.5,2-3.9,3.2-5.5,5.1
	C56.1,66.5,54.5,68.9,54.5,72L54.5,72L54.5,72z M66.4,61.3c-1.8,4.2-2.5,4.9-6.5,7.4c-1.2,0.8-2.4,1.6-3.4,2.6
	c-1.8,1.8-2.4,3.8-1.3,6.1c0.1,0.2,0.1,0.6,0.4,0.6c0.3,0,0.4-0.3,0.5-0.5c1.9-2.7,4.4-4.6,7.4-6.2c1.3-0.7,2.5-1.6,3.4-2.7
	C69.2,66.1,69.1,63.8,66.4,61.3z M69,67.9c-1.6,2.6-4.2,4-6.8,5.5c-1.7,0.9-3,2.2-4.3,3.6c-1.6,1.7-2.1,3.4-0.7,5.5
	c0.5,0.7,0.7,0.9,1.2,0.1c1.5-2,3.3-3.6,5.3-5.1c1.6-1.2,2.9-2.6,3.9-4.2C68.7,71.7,69.3,69.9,69,67.9z M49.7,60.5
	c-1.6,1.4-2.6,2.7-2,4.7c0.3,0.8,0.4,1.7,0.7,2.5c0.9,2.9,3.1,5,5.1,7.5c0.1-1.4-0.3-2.4,0-3.5c0.3-1.3,0-2.5-0.5-3.7
	C51.8,65.7,50.3,63.4,49.7,60.5z M54.1,68c0.7-1.4,2.1-2.4,1.5-4.2c-0.6-1.9-1.7-3.7-2.5-5.5c-0.1-0.3-0.2-0.5-0.6-0.4
	c-1,0.3-2,1.9-1.7,2.9C51.4,63.4,52.9,65.6,54.1,68z M46.7,66.2c-1,4.6,4.2,13.5,8.8,15c-0.9-2.3-2.2-4.3-3.7-6.2
	C49.8,72.3,47.5,69.6,46.7,66.2z M56.8,63.5c1.7-3.5,1.8-6.8,0.9-10.2c-0.2-0.6-0.5-0.5-0.8-0.1c-0.8,0.9-1.5,1.9-2.3,2.8
	c-0.6,0.6-0.7,1.2-0.4,1.9C55,59.6,55.8,61.4,56.8,63.5z"/>
<path class="st0" d="M170.2,43.2c-0.1,4.1-2.2,7.3-5.4,9.8c-2.6,2-5,4.2-6.8,7c-0.2,0.3-0.5,0.9-0.9,0.2c-1.8-3-4.9-4.9-7.2-7.5
	c-1.8-2.2-3.5-4.4-4.2-7.1c-1.1-4.2,0.1-7.9,3.3-10.9c2.2-2.2,4.8-4.1,6.6-6.6c0.4-0.5,0.8-1.1,1.2-1.7c0.4-0.8,0.7-1,1.4-0.1
	c2.1,2.8,4.7,5.2,7.3,7.6c2.4,2.2,4.1,4.6,4.7,7.7c0,0.2,0.1,0.4,0.1,0.6C170.2,42.5,170.2,42.9,170.2,43.2z M168.6,40.3
	c-0.1-1.4-0.9-2.5-1.8-3.5c-0.5-0.6-0.7-0.1-0.8,0.3c-1,2.9-3,4.9-5.7,6.4c-1.4,0.8-2.7,1.7-3.8,2.8c-1.8,1.8-2.5,3.8-1.4,6.1
	c0.1,0.2,0.1,0.6,0.4,0.7c0.3,0,0.4-0.3,0.6-0.5c1.1-1.6,2.5-2.9,4-4.1c1.5-1.1,3.2-1.8,4.7-2.9C166.8,44.2,168.3,42.7,168.6,40.3z
	 M169.1,42.8c-1.5,2.3-3.6,3.8-6,5.1c-2.2,1.2-4.1,2.7-5.6,4.6c-1.6,2.1-1.6,3.6,0.3,5.8c1.8-2.4,4.1-4.4,6.6-6.2
	c1.2-0.9,2.2-2,3-3.3C168.6,46.9,169.3,45,169.1,42.8z M154.6,47c1.3-1.4,2.4-2.6,3.8-3.5c1.3-0.9,2.8-1.6,3.9-2.7
	c1.5-1.4,2.5-3,2.9-4.9c0.2-1.1-0.6-1.6-1.3-2.1c-0.7-0.5-0.7,0.5-1.1,0.8c-0.6,0.4-1.1,1.1-1.7,1.5c-2.9,2-4.9,4.7-6.1,7.9
	C154.7,44.9,154.4,45.7,154.6,47z M153.5,50.2c-0.1-1.5-0.3-2.7,0-3.9c0.2-1,0-1.9-0.4-2.9c-1-2.4-2.5-4.7-3.2-7.3
	c-0.1-0.5-0.4-0.7-0.7-0.2c-0.9,1.1-1.8,2.2-1.5,3.8C148.1,43.9,150.6,47,153.5,50.2z M154.1,43.4c0.4-0.8,0.6-1.4,1-1.8
	c1-1.2,0.9-2.4,0.3-3.7c-0.5-1.2-1.1-2.4-1.7-3.5c-0.3-0.5-0.2-1.5-0.8-1.6c-0.7,0-1.3,0.8-1.8,1.3c-0.6,0.6-0.3,1.4-0.1,2.1
	C151.5,38.8,153,40.8,154.1,43.4z M155.5,56.2c-0.2-0.4-0.3-0.9-0.5-1.3c-1.3-2.4-2.7-4.7-4.6-6.7c-1.6-1.8-2.7-3.9-3.4-6.1
	c-0.1-0.4-0.2-0.7-0.4-1.2C145.2,46.2,149.8,52,155.5,56.2z M156.7,38.3c1.6-3.3,1.9-6.6,0.9-10.1c-0.2-0.6-0.5-0.5-0.8,0
	c-0.8,1-1.6,1.9-2.4,2.8c-0.4,0.4-0.5,0.9-0.4,1.4C154.6,34.5,156,36.2,156.7,38.3z M159.4,29.4c-0.1,0-0.2,0.1-0.3,0.1
	c0.4,2.4,0.2,4.8-0.3,7.2c1.3-0.8,2.5-1.6,3.4-2.7c0.4-0.5,0.7-1.1,0.1-1.7C161.3,31.3,160.3,30.3,159.4,29.4z"/>
<path class="st0" d="M184.5,168.3c-0.1,4-2.3,7.2-5.6,9.7c-2.6,2-5,4.2-6.7,6.9c-0.3,0.4-0.5,0.8-0.9,0.1c-1.4-2.2-3.6-3.8-5.4-5.6
	c-2.5-2.6-4.9-5.2-5.8-8.6c-1.1-4.2,0-7.9,3.1-11.1c0.7-0.7,1.5-1.3,2.3-2c2.2-2,4.3-4,5.8-6.6c0.3-0.5,0.5-0.7,1-0.1
	c2.5,3.4,5.7,6.1,8.7,9C183.2,162.3,184.4,165,184.5,168.3z M169.7,181.4c0.1,0.1,0,0.2,0.2,0.1
	C169.9,181.5,169.8,181.4,169.7,181.4c-0.7-2.5-2.2-4.5-3.7-6.5c-1.7-2.4-3.8-4.5-4.6-7.5c-0.1-0.4-0.1-0.9-0.5-1.3
	C159.5,171.1,164,176.9,169.7,181.4z M169.9,178.3c1.2-1.6,2.4-3,3.8-4.2c1.5-1.2,3.1-2,4.7-3c0.9-0.6,1.8-1.2,2.5-2
	c2.3-2.5,2.4-4.7,0.3-7.2c-0.4-0.5-0.7-0.7-1,0.1c-1,3.1-3.4,5.1-6.2,6.8c-1.5,0.9-2.7,1.9-3.9,3.1
	C168.4,173.9,168.7,176,169.9,178.3z M183.3,167.8c-1.6,2.6-4.1,4-6.7,5.5c-1.7,1-3.1,2.3-4.5,3.7c-1.6,1.7-2.1,3.5-0.7,5.5
	c0,0.1,0.1,0.1,0.1,0.2c0.2,0.6,0.5,0.7,0.9,0.1c1.9-2.5,4.4-4.3,6.8-6.4C181.9,174.1,183.5,171.3,183.3,167.8z M168.8,172
	c1.8-2.2,4-3.6,6.2-5c2-1.3,3.4-3,4.3-5.2c0.4-1.2,0.1-2-0.9-2.8c-0.4-0.3-0.7-0.3-0.9,0.1c-0.6,1-1.6,1.7-2.5,2.4
	c-2.5,1.9-4.3,4.2-5.5,7C169,169.6,168.6,170.7,168.8,172z M167.7,175.2c0-1.4-0.3-2.4-0.1-3.4c0.3-1.2,0-2.3-0.5-3.4
	c-1-2.4-2.6-4.6-3.1-7.2c-0.1-0.3-0.3-0.6-0.7-0.2c-1,1.1-1.9,2.1-1.6,3.7C162.4,168.8,164.8,171.9,167.7,175.2z M168.4,168.3
	c0.6-1.7,2-2.7,1.5-4.4c-0.6-2-1.6-3.8-2.5-5.6c-0.1-0.2-0.2-0.5-0.6-0.4c-0.9,0.3-1.9,1.7-1.8,2.6
	C165.5,163.2,167.1,165.6,168.4,168.3z M170.9,163.2c0.2-0.2,0.3-0.2,0.4-0.3c1.4-3.1,1.5-6.3,0.7-9.6c-0.2-0.7-0.5-0.5-0.9-0.1
	c-0.7,0.9-1.4,1.7-2.2,2.5c-0.6,0.7-0.8,1.3-0.4,2.1C169.3,159.6,170.1,161.3,170.9,163.2z M172.9,161.8c1.5-1.1,2.7-1.9,3.6-3.1
	c0.3-0.4,0.6-0.9,0.2-1.3c-1-1.1-2.1-2.2-3.2-3.3C173.7,156.7,173.5,159.1,172.9,161.8z"/>
<path class="st0" d="M70.3,168.3c0,3.9-2.2,6.9-5.2,9.4c-2.7,2.2-5.3,4.3-7.1,7.2c-0.2,0.4-0.5,0.7-0.9,0.1c-1.9-2.8-4.8-4.8-7-7.3
	c-1.7-2-3.3-4-4.1-6.4c-1.6-4.9-0.1-9,3.8-12.4c1.8-1.6,3.6-3.2,5.1-5c0.8-0.9,1.5-1.9,2.1-2.9c0.3-0.5,0.5-0.7,1-0.1
	c2.5,3.2,5.6,5.9,8.5,8.8C68.8,162.1,70.2,164.9,70.3,168.3z M58.8,161.6c1.2-0.7,2.4-1.6,3.3-2.7c0.4-0.4,0.8-1,0.4-1.5
	c-1-1.2-2.1-2.2-3.2-3.3c0.2,2.6,0,5-0.6,7.3C58.6,161.7,58.7,161.7,58.8,161.6z M66.3,161.2c-1,3.6-3.5,5.8-6.6,7.6
	c-1.6,0.9-2.9,2-4,3.5c-1.4,1.8-1.4,3.8,0,5.8c0.1-0.1,0.2-0.1,0.3-0.2c1.9-2.9,4.6-4.9,7.7-6.6c1.3-0.7,2.5-1.6,3.4-2.7
	C69.2,165.9,69.1,163.8,66.3,161.2z M69,167.7c-1.5,2.8-4.3,4.1-6.9,5.7c-1.6,0.9-2.9,2.2-4.2,3.5c-1.6,1.7-2.3,3.4-0.8,5.5
	c0.5,0.8,0.7,0.9,1.3,0.1c1.6-2,3.5-3.7,5.6-5.2c1.7-1.3,3.1-2.9,4.1-4.7C68.9,171.1,69.4,169.5,69,167.7z M54.6,172
	c1.8-2.3,4-3.6,6.2-5c2.1-1.3,3.6-3.1,4.3-5.4c0.4-1.2-0.1-1.9-1-2.7c-0.4-0.3-0.6-0.3-0.9,0.1c-0.6,0.9-1.4,1.5-2.3,2.2
	c-2.4,1.8-4.4,4.1-5.6,6.8C54.9,169.2,54.4,170.4,54.6,172z M53.4,175c-0.5-2.4,0.7-4.9-0.7-7.3c-1.3-2.2-2.4-4.5-3.1-7.2
	c-1,1.3-2.2,2.1-2.1,3.6C47.9,168.4,50.3,171.8,53.4,175z M54.1,168c0.6-1.4,2.1-2.4,1.6-4.2c-0.6-2-1.8-3.8-2.6-5.7
	c-0.1-0.3-0.2-0.4-0.5-0.3c-1.2,0.4-2,2-1.7,3.2C51.4,163.5,52.9,165.7,54.1,168z M55.3,181.5c0.2-0.8-0.1-1.2-0.3-1.5
	c-1.1-2.1-2.3-4.2-3.9-6c-2-2.3-3.6-4.8-4.3-7.8c0-0.1-0.1-0.2-0.1-0.3C45.7,173,50.6,177,55.3,181.5z M56.8,163.5
	c1.6-3.5,1.8-6.8,0.9-10.1c-0.1-0.2-0.1-0.5-0.4-0.6c-0.3-0.1-0.4,0.2-0.6,0.4c-0.8,0.9-1.5,1.8-2.4,2.7c-0.5,0.5-0.6,1.1-0.3,1.7
	C54.9,159.5,55.8,161.4,56.8,163.5z"/>
<path class="st0" d="M170.3,143.1c-0.1,4.3-2.3,7.4-5.6,10c-2.6,2-5,4.2-6.7,6.9c-0.2,0.3-0.5,0.8-0.9,0.2c-1.8-3-4.9-4.9-7.2-7.5
	c-2-2.4-3.8-4.8-4.4-7.9c-0.7-3.8,0.4-7.1,3.2-9.8c2.1-2.1,4.5-3.8,6.3-6.2c0.7-0.9,1.4-1.7,1.9-2.6c0.3-0.6,0.5-0.6,0.9-0.1
	c2.4,3.1,5.3,5.8,8.2,8.5C168.7,136.9,170.1,139.8,170.3,143.1z M155.6,153.1c0.2,0,0.3-0.2,0.5-0.4c1.9-2.7,4.4-4.8,7.4-6.3
	c1.3-0.7,2.5-1.6,3.5-2.7c2.1-2.3,2.1-4.6,0.1-6.9c-0.5-0.5-0.7-0.6-1,0.1c-1,2.9-3.1,5-5.9,6.6c-1.7,1-3.2,2.2-4.4,3.8
	C154.3,149.2,154.3,151.2,155.6,153.1z M169.1,142.7c-1.5,2.5-3.9,4-6.4,5.3c-1.9,1-3.5,2.5-4.9,4.1c-1.5,1.7-1.7,3.3-0.6,5.2
	c0.5,0.8,0.7,0.9,1.3,0.2c1.6-2,3.6-3.8,5.7-5.4c1.4-1.1,2.6-2.4,3.5-3.8C168.7,146.6,169.3,144.8,169.1,142.7z M154.7,146.8
	c1.8-2.4,4.4-3.6,6.7-5.2c1.8-1.3,3-2.9,3.6-4.9c0.4-1.1,0.1-1.9-0.8-2.6c-0.5-0.4-0.7-0.5-1,0.1c-0.5,0.9-1.3,1.5-2.1,2.1
	c-2.7,1.8-4.5,4.3-5.8,7.1C154.8,144.4,154.4,145.5,154.7,146.8z M153.5,150.2c-0.1-1.5-0.3-2.8,0-4c0.2-0.8,0-1.6-0.3-2.4
	c-1.1-2.5-2.7-4.9-3.3-7.6c-0.1-0.4-0.4-0.6-0.7-0.2c-0.8,1-1.8,1.9-1.6,3.3C147.9,143.6,150.4,146.9,153.5,150.2z M154.1,143.3
	c0.4-0.7,0.6-1.3,0.9-1.7c1-1.2,0.9-2.4,0.4-3.7c-0.7-1.6-1.5-3.2-2.2-4.9c-0.1-0.3-0.2-0.5-0.6-0.3c-1.4,0.7-2,1.8-1.7,3.3
	C151.4,138.6,153,140.8,154.1,143.3z M155.4,156.3c0-0.7-0.3-1.2-0.5-1.7c-1.4-2.6-3.1-4.9-5-7.2c-1.3-1.5-2.1-3.2-2.7-5
	c-0.2-0.5-0.3-1-0.5-1.7C145.2,146.3,149.9,152,155.4,156.3z M156.7,138.2c1.5-3.3,1.9-6.6,0.9-10.1c-0.2-0.5-0.4-0.5-0.7-0.1
	c-0.8,1-1.6,1.9-2.4,2.8c-0.6,0.6-0.6,1.1-0.3,1.8C154.8,134.6,156,136.3,156.7,138.2z M159.3,129.2c-0.1,0-0.2,0-0.3,0
	c0.4,2.5,0.3,4.9-0.3,7.3c1.3-0.9,2.7-1.7,3.6-2.9c0.3-0.5,0.6-1,0-1.5C161.3,131.3,160.3,130.2,159.3,129.2z"/>
<path class="st0" d="M56,93.5c-0.1,3.8-2.2,6.9-5.4,9.4c-2.7,2.1-5.1,4.3-6.9,7.1c-0.3,0.4-0.5,0.7-0.9,0.1
	c-1.4-2.3-3.8-3.9-5.6-5.8c-2.4-2.5-4.7-5-5.6-8.4c-1.3-4.3-0.1-8.1,3.1-11.3c2.1-2.1,4.5-3.9,6.3-6.2c0.6-0.8,1.2-1.5,1.6-2.4
	c0.3-0.6,0.6-0.7,1-0.1c2.3,3.2,5.4,5.8,8.2,8.5C54.5,86.9,55.9,89.8,56,93.5z M41.5,103.3c2.1-3.6,5.5-5.6,9-7.6
	c1.2-0.7,2.2-1.6,2.9-2.8c1.6-2.6,1-3.8-0.7-6.1c-0.3-0.5-0.7-0.4-0.8,0.2c-0.9,3.1-3.2,5.1-6,6.7c-1.9,1.1-3.5,2.4-4.7,4.2
	C40,99.4,40.1,101.4,41.5,103.3z M54.8,92.7c-1.6,2.7-4.3,4.2-6.9,5.6c-1.7,0.9-3,2.2-4.3,3.6c-1.6,1.7-2.1,3.4-0.7,5.5
	c0.5,0.8,0.7,0.7,1.2,0.1c1.5-1.9,3.3-3.6,5.3-5.1c1.3-0.9,2.3-2,3.2-3.1C54.2,97.4,55.1,95.3,54.8,92.7z M40.4,96.9
	c1.1-1.3,2.2-2.3,3.4-3.1c1.3-0.9,2.6-1.6,3.9-2.6c1.7-1.4,2.9-3.1,3.4-5.2c0.3-1.1-0.6-1.6-1.3-2.1c-0.7-0.4-0.9,0.5-1.2,0.9
	c-0.5,0.5-1,1-1.5,1.4c-2.8,1.9-4.7,4.4-6,7.4C40.5,94.5,40.1,95.5,40.4,96.9z M39.2,100.3c-0.1-1.5-0.3-2.6-0.1-3.7
	c0.2-1,0.1-1.9-0.3-2.9c-1.1-2.7-2.8-5.1-3.4-8.2c-1.6,1.4-2.4,2.7-2,4.8C34.1,94.1,36.4,97.1,39.2,100.3z M36.5,85.2
	c0.2,2.7,2,5,3.1,7.5c0.1,0.3,0.4,0.4,0.5,0.1c0.7-1.4,1.9-2.5,1.2-4.4c-0.7-1.8-1.7-3.5-2.4-5.3c-0.1-0.2-0.2-0.4-0.5-0.3
	C37.8,83,36.5,84.5,36.5,85.2z M32.4,90.9c-1.2,4.6,4,13.5,8.9,15.5c-1-2.7-2.7-5-4.4-7.3c-1.4-1.8-3-3.6-3.7-5.8
	C33,92.6,32.7,91.9,32.4,90.9z M43.1,77.5c-1.1,1.5-2.1,2.6-3.2,3.7c-0.4,0.4-0.4,0.8-0.2,1.2c0.9,2,1.7,3.9,2.7,6.2
	C44.1,84.8,44.4,81.3,43.1,77.5z M45,79.2c0.2,2.6,0,5-0.8,7.8c1.4-1.1,2.7-1.9,3.6-3c0.5-0.6,0.8-1.2,0.1-1.9
	C46.9,81.2,46,80.2,45,79.2z"/>
<path class="st0" d="M43.1,25.3c2.7,3.7,5.9,6.5,9,9.4c5.6,5.4,5.1,12.8-1.2,17.9c-2.7,2.2-5.4,4.4-7.3,7.4c-0.3,0.5-0.6,0.6-0.9,0
	c-1.1-1.8-2.8-3.2-4.4-4.7c-2.5-2.4-4.9-4.8-6.3-8c-2.1-4.8-1-9.6,3-13.2c1-0.9,2-1.7,3-2.7C40,29.7,41.9,27.8,43.1,25.3z
	 M44.6,36.6c1.1-0.7,2.2-1.5,3.1-2.5c0.5-0.5,0.9-1.2,0.3-1.9c-1-1-2-1.9-3.3-3.1c0.5,2.6,0.2,5-0.2,7.3c-0.1,0.1-0.2,0.2,0,0.2
	C44.4,36.8,44.5,36.7,44.6,36.6z M52,36.2c-0.9,3.6-3.4,5.8-6.5,7.6c-1.2,0.7-2.2,1.5-3.2,2.5c-1.8,1.8-2.7,3.8-1.4,6.2
	c0.1,0.2,0,0.6,0.4,0.7c0.4,0.1,0.5-0.3,0.6-0.5c1.7-2.7,4.3-4.5,7.1-6c1.3-0.7,2.6-1.6,3.6-2.7C54.9,41.4,54.8,38.8,52,36.2z
	 M54.8,42.7c-1.5,2.7-4.1,4.1-6.7,5.6c-1.7,0.9-3,2.2-4.3,3.5c-1.7,1.7-2.3,3.6-0.8,5.7c0.5,0.7,0.7,0.8,1.2,0.1
	c1.5-1.9,3.2-3.6,5.2-5c1.2-0.9,2.3-1.9,3.1-3C54.1,47.6,55,45.3,54.8,42.7z M40.1,47.4c1.2-1.8,2.6-3,4.2-4
	c1.2-0.8,2.5-1.5,3.5-2.4c1.5-1.4,2.7-3,3.1-5c0.2-1.1-0.5-1.7-1.3-2.1c-0.7-0.4-0.8,0.5-1.2,0.8c-0.4,0.3-0.8,0.8-1.2,1.1
	c-1.3,1-2.6,2-3.6,3.2C41.8,41.5,40.2,44,40.1,47.4z M39.2,50.3c-0.1-1.4-0.3-2.4-0.1-3.5c0.3-1.3,0-2.5-0.5-3.7
	c-1-2.3-2.4-4.5-3-6.9c-0.2-0.7-0.5-0.5-0.8-0.1c-1,1.2-1.7,2.4-1.4,4.1C34,44.1,36.4,47.1,39.2,50.3z M39.8,43
	c0.8-1.5,2.4-2.7,1.5-4.6c-0.8-1.8-1.6-3.5-2.4-5.3c-0.1-0.3-0.3-0.4-0.7-0.2c-1.4,0.7-1.9,1.9-1.6,3.3C37.2,38.6,38.7,40.7,39.8,43
	z M32.4,41c-1.2,4.5,4.1,13.7,8.9,15.3c-0.3-0.6-0.5-1.2-0.8-1.7c-1-1.8-2-3.5-3.3-5.1C35,46.9,33.1,44.3,32.4,41z M42.5,38.5
	c1.6-3.6,1.9-6.9,0.9-10.3c-0.2-0.7-0.5-0.4-0.8-0.1c-0.7,0.9-1.4,1.7-2.2,2.6c-0.7,0.7-0.8,1.4-0.4,2.3
	C40.8,34.7,41.5,36.5,42.5,38.5z"/>
<path class="st0" d="M56,143.1c0,3.7-1.9,6.6-4.5,9c-2.2,2-4.7,3.7-6.5,6c-0.5,0.6-0.9,1.3-1.4,2c-0.2,0.3-0.5,0.5-0.7,0.1
	c-2.2-3.3-5.7-5.6-8.2-8.7c-2.5-3.2-4.1-6.5-3.4-10.6c0.5-2.9,2.1-5.2,4.4-7.1c2.7-2.3,5.3-4.7,7.1-7.8c0.3-0.5,0.5-0.6,0.9-0.1
	c2.5,3.4,5.8,6.1,8.7,9C54.7,137.3,55.9,140.1,56,143.1z M52,136.2c-0.9,3.6-3.4,5.9-6.6,7.6c-1.1,0.6-2,1.4-2.9,2.2
	c-2,1.8-2.8,3.9-1.6,6.5c0.1,0.2,0,0.5,0.3,0.6c0.3,0.1,0.4-0.2,0.5-0.4c1.8-2.8,4.5-4.7,7.4-6.3c1.3-0.7,2.4-1.5,3.4-2.6
	C54.9,141.3,54.8,138.8,52,136.2z M54.8,142.7c-1.6,2.9-4.7,4.3-7.4,6c-1.5,0.9-2.8,2.2-4,3.5c-1.6,1.7-1.6,3.4-0.5,5.3
	c0.5,0.8,0.7,0.7,1.2,0.1c1.5-1.8,3.1-3.4,5.1-4.8c1.5-1.1,2.7-2.3,3.8-3.8C54.3,147.1,55,145.1,54.8,142.7z M40.2,147.1
	c1.6-2.1,3.8-3.5,6-4.9c1.6-1,2.9-2.3,3.9-3.9c0.5-0.8,0.8-1.6,0.9-2.5c0.1-0.9-0.6-1.4-1.3-1.8c-0.7-0.4-0.8,0.4-1.1,0.8
	c-0.6,0.6-1.2,1.1-1.8,1.6C43.1,139,40.7,142.5,40.2,147.1z M39.1,150c0-1.1-0.2-2.2,0-3.3c0.3-1.3,0-2.5-0.6-3.8
	c-1-2.2-2.4-4.3-2.9-6.6c-0.2-0.7-0.4-0.7-0.9-0.2c-1.1,1.1-1.6,2.3-1.4,3.9C34,144,36.4,147,39.1,150z M39.8,143
	c0.8-1.5,2.3-2.7,1.4-4.6c-0.8-1.8-1.6-3.5-2.4-5.3c-0.1-0.3-0.3-0.4-0.7-0.2c-1.4,0.7-1.9,1.9-1.6,3.3
	C37.2,138.6,38.7,140.7,39.8,143z M41.2,156.3c-0.1-0.3-0.1-0.5-0.2-0.6c-1.2-2.8-2.9-5.3-4.9-7.6c-1.4-1.6-2.3-3.3-3.1-5.2
	c-0.2-0.6-0.2-1.3-0.6-1.9C30.8,146,36.1,152.7,41.2,156.3z M43.1,127.5c-1.1,1.3-2.1,2.5-3.1,3.6c-0.3,0.4-0.4,0.8-0.3,1.2
	c0.6,2.1,1.8,3.9,2.7,6.1C44.2,134.8,44.4,131.3,43.1,127.5z M44.6,136.4c1.3-0.8,2.6-1.5,3.4-2.7c0.3-0.4,0.5-0.9,0.2-1.3
	c-1-1.1-2.1-2.2-3.1-3.2C45.2,131.7,45,134,44.6,136.4z"/>
<path class="st0" d="M170.3,93.2c-0.1,4.2-2.3,7.3-5.6,9.9c-2.6,2-4.9,4.2-6.7,6.9c-0.3,0.4-0.5,0.8-0.9,0.1
	c-1.4-2.2-3.5-3.7-5.3-5.5c-2.5-2.5-4.9-5.1-5.9-8.6c-1.3-4.3-0.2-8.1,3.1-11.3c2.3-2.2,4.8-4.2,6.8-6.7c0.2-0.3,0.5-0.6,0.7-1
	c1-1.5,1-1.5,2.2-0.1c2.3,2.7,4.9,5.1,7.5,7.6C168.7,86.9,170.1,89.8,170.3,93.2z M155.5,106.6L155.5,106.6L155.5,106.6
	c0.1-0.2,0-0.4-0.2-0.5c0-0.5-0.3-1-0.5-1.4c-1.3-2.3-2.7-4.4-4.4-6.4c-1.6-1.8-2.7-3.8-3.4-6.1c-0.1-0.3-0.1-0.7-0.5-1
	c-0.5,2.4,0.1,4.6,1.1,6.6c1.7,3.4,4.5,6.1,7.5,8.6C155.2,106.4,155.4,106.5,155.5,106.6z M168.5,90.2c-0.1-1.2-0.8-2.2-1.5-3.2
	c-0.2-0.2-0.3-0.5-0.6-0.5c-0.4,0-0.3,0.4-0.4,0.6c-0.9,2.8-2.9,4.7-5.4,6.2c-1.4,0.8-2.6,1.7-3.8,2.7c-2.3,2.1-2.7,3.9-1.6,6.5
	c0.1,0.2,0.1,0.5,0.4,0.6c0.3,0.1,0.4-0.2,0.5-0.4c1.7-2.5,4-4.4,6.7-5.8c1.4-0.7,2.7-1.6,3.8-2.7C167.6,93.1,168.4,91.8,168.5,90.2
	z M169.1,92.7c-1.6,2.9-4.6,4.3-7.3,5.9c-1.5,0.9-2.6,2.1-3.8,3.3c-1.7,1.7-2.2,3.5-0.7,5.6c0,0.1,0.1,0.1,0.1,0.2
	c0.2,0.7,0.5,0.6,1,0.1c1.6-2.1,3.7-3.9,5.9-5.6c1.9-1.4,3.4-3.3,4.3-5.4C169,95.5,169.3,94.2,169.1,92.7z M154.6,97.1
	c1.7-2.3,3.9-3.7,6.2-5.1c1.9-1.2,3.3-2.8,4.1-4.8c0.2-0.5,0.4-1,0.4-1.6c0-0.9-0.7-1.4-1.3-1.7c-0.7-0.4-0.8,0.5-1.1,0.8
	c-0.6,0.5-1.1,1-1.6,1.4c-2.8,2.1-4.9,4.6-6.1,7.8C154.7,94.8,154.3,95.8,154.6,97.1z M153.5,100.2c-0.1-1.4-0.3-2.6-0.1-3.7
	c0.2-1,0-2-0.3-3c-1-2.5-2.6-4.7-3.2-7.4c-0.1-0.5-0.4-0.6-0.8-0.2c-1.1,1.1-1.8,2.2-1.5,3.9C148.2,93.9,150.6,97,153.5,100.2z
	 M154.1,93.4c0.4-0.7,0.6-1.2,0.9-1.6c1.1-1.4,1-2.7,0.3-4.2c-0.7-1.5-1.4-2.9-2-4.4c-0.1-0.3-0.2-0.5-0.6-0.3
	c-1.3,0.6-2,1.9-1.7,3.3C151.4,88.6,153,90.7,154.1,93.4z M156.7,88.5c1.6-3.5,1.8-6.9,0.9-10.3c-0.2-0.6-0.5-0.5-0.8-0.1
	c-0.8,1-1.6,1.9-2.4,2.8c-0.5,0.5-0.6,1.1-0.3,1.7C154.9,84.5,155.8,86.4,156.7,88.5z M159.4,79.3c-0.1,0-0.2,0.1-0.3,0.1
	c0.4,2.4,0.2,4.8-0.5,7.5c1.3-1.1,2.5-1.8,3.4-2.8c0.5-0.5,0.9-1.1,0.3-1.8C161.3,81.3,160.3,80.3,159.4,79.3z"/>
<path class="st0" d="M141.7,42.9c-0.1,4.3-2.2,7.5-5.4,10c-2.7,2.1-5.1,4.3-6.9,7.2c-0.2,0.4-0.5,0.5-0.8,0.1
	c-2.1-3.1-5.3-5.2-7.6-8.1c-2.9-3.4-4.8-7.1-3.9-11.6c0.5-2.6,2-4.6,4-6.4c2-1.9,4.2-3.6,5.9-5.8c0.3-0.4,0.7-0.9,1-1.3
	c1-1.5,1-1.5,2.2,0c2.3,2.7,4.9,5.2,7.5,7.6C140.1,36.9,141.5,39.7,141.7,42.9z M137.8,36.4c-0.1,0.1-0.2,0.2-0.2,0.3
	c-0.9,3.1-3,5.2-5.8,6.8c-1.6,1-3.2,2.1-4.4,3.6c-1.6,1.8-1.6,3.6-0.7,5.6c0.3,0.6,0.5,0.7,0.9,0.1c1.8-2.8,4.5-4.7,7.4-6.3
	c1.5-0.8,2.7-1.8,3.7-3.1C140.6,40.8,140.3,38.5,137.8,36.4z M140.4,42.9c-1.5,2.3-3.7,3.8-6.1,5.1c-2,1.1-3.7,2.6-5.2,4.3
	c-1.4,1.6-1.7,3.2-0.5,5c0.7,1.1,0.6,1.2,1.4,0.2c1.5-1.8,3.1-3.4,5.1-4.8c1.4-1,2.5-2.2,3.5-3.5C139.9,47.3,140.8,45.3,140.4,42.9z
	 M126,46.9c1.1-1.1,2.2-2.2,3.5-3.1c1.4-0.9,2.9-1.7,4.1-2.8c1.5-1.4,2.7-3,3.1-5c0.2-1-0.6-1.5-1.3-2c-0.4-0.3-0.6,0-0.8,0.3
	c-0.9,1.2-2.1,2-3.2,2.9C128.3,39.8,126.2,42.9,126,46.9z M124.8,50.1c0-1.1-0.1-2.1,0-3.1c0.2-1.4,0-2.7-0.6-4
	c-1-2.3-2.4-4.4-3-6.8c-0.2-0.8-0.6-0.3-0.9-0.1c-1.2,1.2-1.6,2.5-1.3,4.2C119.8,44.2,122.1,47.1,124.8,50.1z M125.5,43.1
	c0.8-1.5,2.3-2.7,1.5-4.7c-0.7-1.8-1.7-3.4-2.4-5.2c-0.1-0.2-0.2-0.4-0.6-0.3c-0.7,0.1-1.9,1.6-1.9,2.4
	C122.4,38.2,124.4,40.4,125.5,43.1z M118.2,41.1c-1.4,4.2,3.8,13.1,8.8,15.2c-0.6-1.7-1.5-3.1-2.4-4.5
	C122.4,48.3,118.9,45.5,118.2,41.1z M128.8,27.8c-1.1,1.2-2,2.3-3.1,3.4c-0.2,0.2-0.4,0.5-0.3,0.8c0.6,2.2,1.9,4.1,2.8,6.2
	C129.8,34.8,129.9,31.3,128.8,27.8z M130.1,36.7c1.2-0.8,2.4-1.6,3.3-2.6c0.4-0.5,0.9-1.1,0.4-1.6c-0.9-1.1-2-2.1-3.1-3.1
	c-0.1,0-0.2,0.1-0.3,0.1C130.7,31.9,130.7,34.3,130.1,36.7z"/>
<path class="st0" d="M62.2,105.7c0.2,0.2,0.3,0.3,0.5,0.5c1.4,1.5,2.9,2.9,4.5,4.3c1.8,2.3,3,4.8,3,7.7c0,3.9-1.9,6.9-4.9,9.3
	c-2.8,2.3-5.5,4.6-7.4,7.6c-0.2,0.3-0.5,0.7-0.8,0.1c-1.8-2.8-4.7-4.7-6.8-7.1c-2.3-2.6-4.2-5.3-4.8-8.6c-0.6-3.9,0.8-7.1,3.6-9.8
	c2.1-2,4.5-3.9,6.3-6.2c0.8-1,1.4-2,2-3.1c0.5,0.7,0.8,1.6,1.7,1.9c0,0,0,0,0,0C59.8,103.7,61.1,104.6,62.2,105.7z M55.4,131.4
	c0,0.1,0.1,0.1,0.1,0.2C55.7,131.5,55.6,131.4,55.4,131.4c-1-3-2.7-5.5-4.7-7.9c-1.7-2-3-4.1-3.7-6.6c-0.1-0.3,0-0.6-0.5-0.8
	c0,0.2-0.1,0.4-0.1,0.6c-0.3,3,0.7,5.7,2.6,8.2C50.9,127.3,52.9,129.6,55.4,131.4z M55.7,128.4c2-3.4,5.2-5.5,8.6-7.4
	c1.1-0.6,1.9-1.4,2.7-2.3c2-2.4,2-4.5,0-6.8c-0.4-0.4-0.7-0.8-1,0.1c-1,3-3.2,5-5.9,6.6c-1.2,0.7-2.4,1.5-3.3,2.5
	C54.1,123.9,54.1,124.9,55.7,128.4z M68.9,117.6c-0.1,0.1-0.1,0.3-0.2,0.4c-1.2,1.9-2.9,3.3-5,4.4c-2.2,1.2-4.2,2.7-5.9,4.5
	c-1.5,1.7-2.1,3.4-0.7,5.4c0.5,0.7,0.6,1,1.3,0.2c1.5-1.9,3.2-3.5,5.2-4.9c1.2-0.9,2.3-1.9,3.2-3.1
	C68.4,122.5,69.3,120.3,68.9,117.6z M54.5,122.2c1.5-2.1,3.3-3.4,5.2-4.6c1.8-1,3.3-2.3,4.4-3.9c0.6-0.9,1-1.9,1.2-3
	c0.2-1-0.7-1.5-1.4-1.9c-0.7-0.4-0.7,0.5-1.1,0.8c-0.6,0.5-1.2,1.1-1.8,1.6c-2.6,1.8-4.4,4.2-5.7,7
	C54.8,119.4,54.4,120.6,54.5,122.2z M49.7,110.5c-1.6,1.5-2.6,2.8-2,4.8c0.4,1.3,0.7,2.7,1.3,3.9c1,2.1,2.8,3.8,4.3,5.7
	c0-1.1-0.1-2.2,0.1-3.2c0.2-1.1,0-2.2-0.4-3.2C52,115.9,50.2,113.5,49.7,110.5z M54.1,118.4c0.5-0.9,0.8-1.5,1.2-2.1
	c0.6-0.9,0.7-1.8,0.3-2.7c-0.7-1.8-1.6-3.6-2.4-5.4c-0.1-0.3-0.2-0.5-0.6-0.3c-1.2,0.6-1.9,1.9-1.7,3.2
	C51.4,113.6,53,115.7,54.1,118.4z M56.7,113.4c1.8-2.9,2-9.3,0.5-10.6c-0.9,1-1.7,2-2.6,3c-0.6,0.6-0.8,1.3-0.5,2
	C55,109.6,55.8,111.4,56.7,113.4z M58.7,111.5c0.3-0.1,0.5-0.2,0.6-0.2c0.7-0.6,1.5-1.1,2.2-1.7c1.5-1.4,1.4-1.7,0-3.1
	c-0.5-0.5-1-1-1.5-1.5c-0.3-0.3-0.4-0.6-1-0.6C59.5,106.7,59.2,109.1,58.7,111.5z"/>
<path class="st0" d="M131,67.5c0.1-3.5,1.7-6.3,4.4-8.6c2.3-1.9,4.4-3.9,6.2-6.3c0.4-0.5,0.7-1,1-1.5c0.3-0.6,0.6-0.7,1-0.1
	c2.3,3.1,5.2,5.6,8,8.3c5.7,5.3,5.7,12.6-0.2,17.8c-2.8,2.5-5.9,4.7-7.9,8c-0.2,0.4-0.5,0.6-0.8,0.1c-1.5-2.5-4-4.1-5.9-6.2
	c-2.2-2.4-4.4-4.8-5.3-7.9C131.2,69.9,131.1,68.7,131,67.5z M144.8,54.2L144.8,54.2L144.8,54.2c0.4,2.6,0.2,5-0.4,7.5
	c1.2-1,2.6-1.7,3.5-2.9c0.4-0.5,0.7-1.1,0.1-1.6C146.9,56.2,146,55.1,144.8,54.2z M154.3,65.2c-0.2-1.4-0.9-2.5-1.9-3.6
	c-0.4-0.5-0.6,0.1-0.7,0.4c-1,2.8-3,4.8-5.6,6.4c-1.7,1-3.2,2.2-4.5,3.7c-1.4,1.6-1.6,3.4-0.8,5.3c0.1,0.3,0.2,0.7,0.6,0.7
	c0.3,0,0.4-0.3,0.6-0.6c1.8-2.4,4.1-4.3,6.8-5.8c0.8-0.4,1.5-0.8,2.2-1.4C152.7,69,154,67.5,154.3,65.2z M154.9,68
	c-0.1-0.1-0.3-0.2-0.4-0.3c-0.1,0.2-0.2,0.4-0.3,0.5c-1.3,1.9-3.1,3.2-5.1,4.3c-2.3,1.2-4.2,2.7-5.8,4.7c-1.8,2.2-1.8,3.7,0.3,6
	c1.9-2.9,4.8-4.8,7.3-7C153.4,74.1,154.9,71.3,154.9,68z M140.3,71.7c0.4,0.1,0.5-0.2,0.7-0.3c1.3-1.7,3.1-2.9,4.9-3.9
	c0.9-0.5,1.6-1.1,2.3-1.8c1.3-1.3,2.3-2.8,2.7-4.7c0.2-1.1-0.6-1.7-1.3-2.1c-0.7-0.4-0.9,0.5-1.2,0.9c-0.6,0.6-1.2,1.2-1.9,1.7
	c-2.9,2.2-4.9,4.9-6,8.3C140.3,70.4,140.1,71,140.3,71.7z M139.2,75.1c-0.2-1.2-0.3-2.4,0-3.5c0.3-1.3-0.1-2.5-0.6-3.6
	c-1-2.2-2.4-4.3-2.9-6.7c-0.2-0.8-0.5-0.5-0.9-0.1c-1,1.2-1.6,2.4-1.3,4.1C134,69.2,136.5,72.1,139.2,75.1z M139.8,68.3
	c0.4-0.8,0.6-1.3,0.9-1.8c1-1.2,0.9-2.4,0.3-3.7c-0.7-1.6-1.5-3.2-2.2-4.8c-0.2-0.4-0.3-0.5-0.8-0.3c-1.3,0.7-1.9,1.8-1.6,3.1
	C137.2,63.5,138.6,65.7,139.8,68.3z M132.5,66.1c-1.4,4.2,3.8,13.2,8.8,15.2c-0.6-1.8-1.6-3.4-2.7-4.9
	C136.4,73.1,133.1,70.3,132.5,66.1z M142.3,63.2c1.8-3.3,2-6.6,1-10c-0.2-0.8-0.6-0.2-0.8,0c-0.7,1-1.6,1.9-2.5,2.8
	c-0.5,0.4-0.5,0.9-0.3,1.5C140.6,59.4,141.4,61.3,142.3,63.2z"/>
<path class="st0" d="M131,167.3c0.1-2.7,1.3-5.3,3.4-7.4c1.7-1.7,3.7-3.2,5.3-5c1.1-1.2,2-2.5,2.9-3.8c0.2-0.4,0.5-0.7,0.9-0.2
	c2.5,3.3,5.7,5.9,8.5,8.9c5.5,5.6,5.1,12.7-1.1,17.7c-2.8,2.3-5.5,4.5-7.4,7.6c-0.2,0.4-0.5,0.5-0.8,0.1c-1.8-3-4.9-4.9-7.2-7.5
	C133.1,174.7,131.1,171.6,131,167.3z M144.8,154.2L144.8,154.2L144.8,154.2c0.4,2.5,0.2,4.9-0.4,7.3c0,0.1,0,0.1,0,0.2
	c0.1,0,0.1,0,0.2,0c1.2-0.8,2.4-1.6,3.3-2.7c0.4-0.5,0.9-1,0.3-1.6C147,156.3,146.1,155.1,144.8,154.2z M154.3,165.2
	c-0.1-1.3-0.9-2.3-1.6-3.4c-0.4-0.6-0.7-0.5-0.9,0.2c-1,2.8-2.9,4.8-5.5,6.3c-1.6,0.9-3.1,2-4.3,3.4c-1.5,1.6-2.1,3.4-1.1,5.4
	c0.1,0.3,0.1,0.8,0.6,0.8c0.4,0,0.5-0.4,0.7-0.6c1.7-2.3,3.9-4.1,6.5-5.5c0.9-0.5,1.9-1.1,2.7-1.7
	C152.9,168.8,154,167.3,154.3,165.2z M154.9,168c-0.3-0.1-0.4,0.1-0.5,0.2c-1.3,2-3.1,3.3-5.2,4.4c-2.2,1.2-4,2.7-5.7,4.5
	c-1.6,1.8-1.9,3.4-0.6,5.4c0.4,0.6,0.6,0.9,1.2,0.2c1.6-2,3.5-3.7,5.5-5.3c0.9-0.7,1.8-1.5,2.6-2.4C154,173,154.9,170.6,154.9,168z
	 M140.3,171.8c0.2-0.1,0.4-0.2,0.5-0.3c1.5-1.9,3.5-3.1,5.5-4.3c1.5-0.9,2.6-2.1,3.5-3.5c0.6-0.9,0.9-1.8,1.1-2.8
	c0.2-1-0.6-1.6-1.3-2c-0.7-0.4-0.8,0.5-1.1,0.8c-0.6,0.6-1.2,1.2-1.9,1.7c-2.5,1.7-4.2,3.9-5.4,6.5
	C140.6,169.1,140,170.3,140.3,171.8z M139.3,175.4c-0.2-1.5-0.4-2.6-0.2-3.8c0.2-1.2,0-2.2-0.5-3.3c-1-2.4-2.5-4.6-3.1-7.2
	c-0.2-0.8-0.6-0.3-0.8,0c-1,1.1-1.6,2.3-1.4,4C134,169.1,136.5,172.1,139.3,175.4z M139.8,168.3c0.6-1.1,1.1-1.9,1.6-2.7
	c0.2-0.4,0.2-0.8,0.1-1.3c-0.5-2.2-1.8-4.1-2.6-6.2c-0.1-0.3-0.4-0.4-0.7-0.2c-1.3,0.6-1.9,1.8-1.6,3.2
	C137.2,163.6,138.7,165.7,139.8,168.3z M132.4,165.9c-1.4,4.4,3.4,12.8,8.8,15.5c-0.6-1.9-1.7-3.5-2.7-5.1
	C136.3,173,133.1,170.1,132.4,165.9z M142.3,163.4c1.6-2.3,2.1-8.1,1-10.2c-0.3-0.5-0.5-0.4-0.8,0c-0.8,0.9-1.6,1.9-2.5,2.8
	c-0.5,0.5-0.6,1-0.4,1.7C140.4,159.6,141.6,161.3,142.3,163.4z"/>
<path class="st0" d="M143.1,100.3c2.7,3.8,6.5,6.7,9.6,10.1c4.8,5.1,4.2,11.8-1.2,16.6c-2.8,2.5-5.9,4.7-7.8,7.9
	c-0.3,0.4-0.6,0.5-0.9,0.1c-2.3-3.2-5.7-5.4-8.1-8.5c-2.6-3.2-4.2-6.7-3.4-10.8c0.5-2.7,2-4.9,4.1-6.7c2.4-2,4.6-4.1,6.4-6.5
	C142.3,101.8,142.7,101.1,143.1,100.3z M141.3,128.3c3-3.9,3.8-4.5,8.3-7.1c1.1-0.6,2-1.4,2.9-2.2c2.2-2.3,2.3-4.6,0.2-7.1
	c-0.2-0.2-0.3-0.5-0.6-0.4c-0.3,0.1-0.3,0.4-0.3,0.6c-0.9,2.7-2.8,4.7-5.3,6.1c-1.5,0.9-2.9,1.8-4.1,3.1
	C140,123.6,139.8,125.4,141.3,128.3z M154.7,117.8c-1.7,2.9-4.8,4.3-7.5,6c-1.4,0.9-2.6,2.1-3.7,3.3c-1.5,1.6-1.9,3.3-0.7,5.2
	c0.5,0.8,0.7,1.1,1.4,0.2c1.5-1.9,3.2-3.5,5.2-4.9c1.4-1,2.7-2.3,3.6-3.7C154.3,122.1,155.1,120.1,154.7,117.8z M140.3,122
	c1.8-2.3,4-3.7,6.2-5c1.5-0.9,2.6-2.1,3.5-3.6c0.5-0.8,0.8-1.7,1-2.7c0.2-1-0.6-1.4-1.3-1.8c-0.7-0.4-0.8,0.4-1.1,0.7
	c-0.5,0.5-1,1-1.6,1.5c-2.3,1.6-4.1,3.7-5.4,6.1C140.8,118.6,140.1,120,140.3,122z M139.3,125.4c-0.1-1.4-0.4-2.5-0.2-3.6
	c0.3-1.2,0-2.3-0.4-3.4c-1-2.4-2.5-4.7-3.2-7.3c-0.2-0.7-0.6-0.3-0.9,0c-1.2,1.2-1.6,2.5-1.3,4.2C134,119.2,136.5,122.2,139.3,125.4
	z M139.8,118c0.5-1.3,1.9-2.2,1.6-3.8c-0.4-2.2-1.8-4-2.5-6.1c-0.2-0.4-0.5-0.4-0.9-0.2c-1.4,0.9-1.8,1.8-1.4,3.3
	C137.3,113.7,138.7,115.8,139.8,118z M132.4,116c-1.2,4.4,4.3,13.9,8.8,15.2c-0.9-2.4-2.3-4.4-3.8-6.4
	C135.3,122.1,133.1,119.4,132.4,116z M142.3,113.3c1.7-3.3,2-6.6,1.1-10c-0.2-0.6-0.5-0.6-0.9-0.1c-0.8,1-1.7,2-2.6,3
	c-0.3,0.4-0.5,0.7-0.3,1.2C140.5,109.3,141.4,111.3,142.3,113.3z M144.8,104c0.1,1.5,0.2,2.7,0.2,3.8c0,1.2-0.3,2.4-0.5,3.9
	c1.5-1,2.8-1.9,3.6-3.2c0.3-0.4,0.3-0.9-0.1-1.3C147,106.2,146,105.2,144.8,104z"/>
<path class="st0" d="M2.5,42.7c0-3.2,1.3-5.9,3.7-8.1c2.2-2,4.5-3.9,6.3-6.2c0.6-0.7,1.1-1.5,1.6-2.3c0.3-0.6,0.5-0.7,1-0.1
	c2.3,2.9,5,5.5,7.7,8c6.2,5.6,6.1,13.4-0.5,18.6c-2.8,2.2-5.4,4.4-7.3,7.4c-0.3,0.5-0.5,0.6-0.9,0c-1.4-2.2-3.6-3.8-5.4-5.7
	c-2.4-2.4-4.7-4.9-5.7-8.2C2.7,45,2.5,43.9,2.5,42.7z M11.7,50.1c0.2,0.7,0.4,1.5,0.6,2.3c0.1,0.3,0.1,0.6,0.4,0.7
	c0.4,0.1,0.5-0.3,0.7-0.6c1.8-2.4,4.1-4.3,6.8-5.8c1.4-0.7,2.6-1.5,3.7-2.6c2.3-2.4,2.4-4.6,0.3-7.2c-0.3-0.4-0.7-0.9-1,0
	c-1,3.1-3.3,5.1-6.1,6.7c-1.9,1.1-3.5,2.4-4.6,4.2C12.1,48.6,11.8,49.2,11.7,50.1z M26.1,43c-1.5,2.4-3.8,3.7-6.2,5
	c-1.2,0.6-2.2,1.4-3.2,2.3c-3.2,2.7-3.7,4.3-2.3,7.2c0.4,0.9,0.7,0.7,1.2,0.1c1.4-1.9,3.2-3.4,5.1-4.8c1.2-0.9,2.3-1.9,3.2-3
	C25.5,47.8,26.4,45.6,26.1,43z M11.6,47c1.7-2,3.7-3.5,5.9-4.7c1.2-0.7,2.2-1.7,3.1-2.7c1-1.1,1.6-2.4,1.8-3.8
	c0.2-1-0.7-1.3-1.3-1.8c-0.3-0.3-0.5-0.1-0.7,0.2c-0.8,1.3-2.2,2.1-3.4,3.1C13.9,39.8,12,43.1,11.6,47z M10.7,50.2
	c-0.2-1.2-0.3-2.4-0.1-3.6c0.2-1.1-0.1-2.1-0.5-3.1c-1-2.5-2.6-4.7-3.1-7.3c-0.1-0.5-0.4-0.6-0.7-0.2c-1,1.1-1.8,2.3-1.5,3.9
	C5.4,44,7.9,47.1,10.7,50.2z M11.2,43c0.7-1.4,2.2-2.5,1.5-4.4c-0.7-1.9-1.8-3.7-2.5-5.6c-0.1-0.2-0.2-0.3-0.5-0.2
	c-0.8,0.2-2,1.8-1.9,2.6C8.3,38.2,10.1,40.5,11.2,43z M3.9,40.6c-1.4,4.7,3.8,13.8,8.7,15.6c0.1-0.5-0.2-0.9-0.4-1.3
	c-1.1-2-2.2-3.9-3.6-5.6C6.4,46.8,4.6,44.2,3.9,40.6z M13.9,38.5c1.6-3.6,1.8-6.9,0.9-10.4c-0.2-0.6-0.4-0.4-0.7-0.1
	c-0.9,1-1.7,2-2.6,3c-0.4,0.4-0.5,0.8-0.2,1.3C12,34.4,12.9,36.3,13.9,38.5z M16.6,29.3c-0.1,0-0.2,0.1-0.3,0.1
	c0.3,2.4,0.2,4.8-0.3,7.1c1.3-0.9,2.7-1.6,3.5-2.9c0.3-0.4,0.5-0.9,0.1-1.3C18.6,31.4,17.6,30.4,16.6,29.3z"/>
<path class="st0" d="M116.8,142.5c0.1-3.2,1.5-6,4.1-8.3c2.4-2.1,4.7-4.2,6.7-6.7c0.5-0.6,0.6-1.8,1.5-1.8c0.7,0,1,1.1,1.6,1.7
	c2.2,2.4,4.6,4.8,7,7c3.9,3.5,5.1,8.4,3.3,12.8c-1.1,2.6-3,4.5-5.2,6.2c-2.5,1.8-4.5,4-6.1,6.4c-0.4,0.6-0.7,0.7-1.1,0
	c-0.9-1.5-2.2-2.6-3.4-3.7c-2.5-2.3-5-4.7-6.6-7.6C117.4,146.7,116.8,144.8,116.8,142.5z M137.8,136.4c-0.1,0.1-0.2,0.2-0.2,0.3
	c-0.9,3.2-3.2,5.2-6,6.9c-1.5,0.9-2.9,2-4.2,3.3c-1.6,1.7-1.7,3.6-0.8,5.6c0.1,0.2,0.2,0.5,0.4,0.6c0.4,0.1,0.5-0.3,0.6-0.5
	c1.8-2.6,4.2-4.5,7.1-6c1.5-0.8,2.8-1.7,3.8-3C140.6,140.9,140.6,139.3,137.8,136.4z M140.4,142.9c-1.5,2.3-3.8,3.8-6.2,5.1
	c-2.6,1.4-4.8,3.4-6.2,6c-0.2,0.4-0.5,0.9-0.2,1.4c0.4,0.7,0.7,1.4,1,2.2c0.3,0.8,0.6,0.7,1.1,0.1c1.5-1.9,3.3-3.6,5.3-5.1
	c1.3-0.9,2.4-2,3.3-3.3C139.8,147.4,140.7,145.3,140.4,142.9z M125.9,147c0.9-0.9,1.7-1.9,2.7-2.6c1.1-0.8,2.2-1.5,3.3-2.2
	c2.2-1.4,3.8-3.2,4.7-5.7c0.4-1.1,0-1.8-0.8-2.5c-0.4-0.4-0.7-0.5-1.1,0.1c-0.8,1.2-2,2-3.1,2.9C128.3,139.7,126.3,142.9,125.9,147z
	 M124.9,150.1c-0.2-1-0.2-2.1-0.1-3.1c0.2-1.4,0.1-2.6-0.5-3.9c-1-2.3-2.5-4.5-3.1-7c-0.2-0.7-0.6-0.3-0.9,0
	c-1.2,1.2-1.6,2.5-1.3,4.2C119.8,144.2,122.2,147.2,124.9,150.1z M125.5,143c0.8-1.5,2.3-2.8,1.4-4.7c-0.8-1.7-1.6-3.4-2.3-5.1
	c-0.1-0.3-0.2-0.5-0.6-0.3c-1,0.3-1.9,1.7-1.8,2.7C122.6,138.3,124.4,140.5,125.5,143z M118.1,140.9c-1.2,4.6,3.7,13.1,9,15.6
	c-0.2-0.5-0.3-1-0.6-1.4c-1.2-2.1-2.4-4.1-3.9-6c-1.3-1.6-2.7-3.2-3.4-5.2C118.8,143,118.5,142,118.1,140.9z M128.8,127.7
	c-1.1,1.2-2.1,2.4-3.3,3.6c-0.3,0.3-0.2,0.6-0.1,0.9c0.6,2.1,1.9,4,2.7,6.3C129.8,134.8,129.9,131.4,128.8,127.7z M130.2,136.6
	c1.3-0.7,2.5-1.6,3.4-2.7c0.4-0.5,0.7-1,0.2-1.5c-1-1-2-2-3-3c-0.1,0-0.2,0.1-0.3,0.1C130.7,131.8,130.7,134.2,130.2,136.6z"/>
<path class="st0" d="M27.4,143.9c-0.2,3.5-2.3,6.7-5.5,9.1c-2.6,2-4.9,4.2-6.7,6.9c-0.2,0.3-0.4,0.9-0.8,0.3c-2-3-5.1-5-7.4-7.8
	c-1.6-1.9-3.1-3.9-3.8-6.3c-1.3-4.3-0.3-8.1,2.9-11.3c2.1-2.1,4.5-3.9,6.4-6.3c0.6-0.8,1.2-1.7,1.8-2.5c0.3-0.5,0.5-0.5,0.9-0.1
	c2.4,3.4,5.7,6,8.6,9C26.1,137.2,27.4,140.1,27.4,143.9z M25.8,140.3c-0.1-1.4-1-2.6-1.9-3.7c-0.4-0.5-0.6,0-0.7,0.3
	c-0.9,3.1-3.2,5.1-6,6.7c-1.5,0.9-2.9,2-4,3.3c-1.5,1.7-1.7,3.5-0.9,5.5c0.1,0.2,0.1,0.6,0.4,0.7c0.4,0.1,0.4-0.3,0.6-0.5
	c1.8-2.5,4.1-4.4,6.9-5.9c0.8-0.4,1.6-0.9,2.3-1.4C24.2,144,25.4,142.4,25.8,140.3z M26.1,143c-1.5,2.5-4,3.8-6.4,5.2
	c-1.8,1-3.4,2.4-4.7,4c-1.5,1.7-1.9,3.3-0.6,5.3c0.6,1,0.8,0.8,1.4,0.1c1.2-1.5,2.6-3,4.2-4.2c1.4-1,2.6-2,3.7-3.3
	C25.4,148,26.5,145.7,26.1,143z M11.6,146.9c0.3,0.1,0.4-0.1,0.5-0.2c1.4-1.7,3-3,4.9-4.1c1.3-0.7,2.4-1.7,3.4-2.8
	c1-1.2,1.7-2.5,2-4c0.2-1-0.6-1.5-1.3-1.9c-0.7-0.4-0.8,0.4-1.1,0.8c-0.4,0.5-0.9,0.9-1.4,1.3c-2.8,2-4.9,4.5-6.2,7.5
	C11.9,144.6,11.6,145.7,11.6,146.9z M10.6,150.1c-0.2-1.2-0.3-2.5,0-3.6c0.2-1.1,0-2-0.4-3c-1-2.5-2.6-4.7-3.2-7.4
	c-0.1-0.6-0.5-0.4-0.8-0.1c-1.3,1.2-1.7,2.6-1.4,4.4C5.6,144.3,8,147.2,10.6,150.1z M13,139.9c0-0.2,0-0.3,0-0.4
	c-0.4-2.4-1.9-4.3-2.7-6.6c-0.1-0.2-0.3-0.2-0.5-0.2c-1,0.3-2,1.8-1.8,2.8c0.4,2.6,2,4.8,3,7.2c0.1,0.2,0.4,0.4,0.5,0.1
	C12,141.8,12.8,140.9,13,139.9z M12.9,156.6c-0.8-2.1-1.9-3.8-3-5.4c-2.3-3.3-5.4-6.1-6-10.3C2.3,146.1,7,152,12.9,156.6z
	 M13.9,138.6c1.7-3.8,1.8-7.2,0.7-11c-1.2,1.4-2.3,2.6-3.4,3.8c-0.3,0.3-0.2,0.7-0.1,1C12,134.3,12.9,136.3,13.9,138.6z M16.6,129.3
	c-0.1,0.1-0.2,0.1-0.4,0.2c0.2,2.4,0.3,4.7-0.5,7.4c1.5-1.1,2.8-1.8,3.7-3c0.3-0.4,0.6-0.9,0.2-1.4
	C18.6,131.3,17.6,130.4,16.6,129.3z"/>
<path class="st0" d="M16.8,167.7c0.1-3.2,1.4-5.9,3.8-8.1c2.6-2.4,5.3-4.6,7.2-7.5c1.1-1.6,1.1-1.6,2.4,0c2.3,2.7,4.9,5.1,7.5,7.6
	c5.2,5,5.3,11.8,0.2,16.9c-1.1,1.1-2.3,1.9-3.4,2.9c-1.9,1.6-3.7,3.4-5,5.5c-0.4,0.6-0.6,0.7-1.1,0c-0.9-1.5-2.3-2.7-3.6-3.9
	c-2.3-2.1-4.5-4.3-6.1-7C17.5,172.1,16.8,170,16.8,167.7z M30.3,161.6c1.1-0.7,2.2-1.5,3.1-2.4c0.5-0.5,1.1-1.2,0.5-1.9
	c-0.9-1.1-2-2-3-3c-0.1,0-0.2,0.1-0.3,0.1C31,156.8,30.6,159.2,30.3,161.6c-0.1,0-0.1,0.1-0.1,0.2C30.2,161.7,30.2,161.6,30.3,161.6
	z M27,178.2c0.2-0.2,0.3-0.3,0.4-0.4c1.9-2.8,4.6-4.8,7.6-6.4c1.4-0.7,2.5-1.6,3.5-2.8c1.9-2.5,1.9-4.2-0.1-6.6
	c-0.2-0.2-0.3-0.5-0.6-0.5c-0.3,0.1-0.3,0.4-0.4,0.7c-0.9,2.6-2.7,4.5-5,5.9c-1,0.6-2.1,1.2-2.9,2C25.5,173.3,25.4,174.8,27,178.2z
	 M29.1,183.5c2.1-2.9,4.8-5,7.5-7.1c1.5-1.2,2.6-2.8,3.3-4.6c0.5-1.2,0.8-2.5,0.5-3.9c-1.7,2.8-4.6,4.1-7.3,5.8
	c-2.1,1.3-3.9,3-5.1,5.1c-0.3,0.6-0.6,1.1-0.3,1.8C28.2,181.4,28.6,182.4,29.1,183.5z M25.9,172.2c0.8-0.8,1.4-1.4,1.9-2
	c1.6-1.6,3.6-2.5,5.4-3.8c1.8-1.4,3-3.2,3.5-5.4c0.3-1.1-0.6-1.6-1.3-2c-0.7-0.4-0.8,0.5-1.1,0.8c-0.6,0.6-1.1,1.1-1.8,1.6
	c-2.8,1.9-4.7,4.5-5.9,7.5C26.1,169.8,25.9,170.8,25.9,172.2z M25,175.3c-0.1-1.4-0.4-2.6-0.1-3.8c0.2-1.1,0-2.1-0.5-3.2
	c-1-2.4-2.6-4.6-3.1-7.2c-0.1-0.7-0.5-0.5-0.8-0.1c-1,1.1-1.7,2.3-1.4,3.9C19.7,169.1,22.2,172.1,25,175.3z M25.4,168.2
	c1.7-2,2.4-3.9,1.1-6.1c-0.5-0.9-0.9-1.9-1.4-2.8c-0.3-0.5-0.3-1.6-0.9-1.5c-0.8,0.1-1.5,0.9-1.9,1.6c-0.4,0.6-0.1,1.4,0.1,2.1
	C23,163.8,24.5,165.8,25.4,168.2z M26.9,181.3c0-0.8-0.3-1.3-0.6-1.8c-1.4-2.5-3-4.8-4.9-7c-1.3-1.5-2.1-3.2-2.7-5
	c-0.2-0.5-0.3-1.1-0.6-1.8C16.7,170.9,20.9,176.7,26.9,181.3z M28.1,163.7c1.7-3.6,1.9-6.9,1-10.4c0-0.2-0.2-0.4-0.3-0.5
	c-0.3-0.1-0.4,0.2-0.6,0.4c-0.7,0.8-1.4,1.7-2.2,2.5c-0.7,0.7-0.8,1.3-0.5,2.1C26.3,159.7,27.5,161.4,28.1,163.7z"/>
<path class="st0" d="M184.5,68.1c-0.1,4.4-2.4,7.5-5.7,10.1c-2.5,1.9-4.8,4.1-6.6,6.7c-0.2,0.3-0.4,1-0.9,0.2
	c-1.4-2.3-3.7-3.8-5.5-5.7c-2.9-3-5.6-6.1-6.1-10.3c-0.5-4.2,1.2-7.5,4.4-10.2c2.7-2.3,5.3-4.7,7.1-7.8c0.4-0.6,0.6-0.5,1,0
	c2.2,3,5,5.5,7.8,8.1C182.8,61.6,184.4,64.6,184.5,68.1z M169.7,81.4c0.1,0.1,0.1,0.2,0.1,0.2c0.2-0.1,0-0.2,0-0.3
	c-1.1-3.2-3.2-5.9-5.4-8.6c-1.4-1.8-2.5-3.7-3.1-5.8c-0.1-0.3,0-0.6-0.5-0.8c-0.1,1.4-0.2,2.7,0.2,4.1
	C162.3,75,165.9,78.3,169.7,81.4z M169.9,78.5c2.1-3.6,5.4-5.7,8.9-7.7c0.8-0.5,1.5-1.1,2.1-1.8c2.3-2.5,2.4-4.4,0.4-7
	c-0.2-0.2-0.4-0.6-0.7-0.6c-0.3,0-0.3,0.4-0.4,0.7c-1,2.7-2.8,4.6-5.4,6.1c-1.7,1-3.3,2.2-4.7,3.7C168.4,74,168.8,76.1,169.9,78.5z
	 M183.3,67.8c-1.5,2.3-3.7,3.8-6.1,5.1c-2,1.1-3.6,2.5-5.1,4.1c-1.6,1.8-2,3.5-0.6,5.5c0,0,0,0.1,0,0.1c0.2,0.6,0.5,0.7,1,0.1
	c1-1.3,2.1-2.4,3.3-3.5c1.3-1.2,2.9-2.1,4.1-3.4C182.1,73.5,183.6,71,183.3,67.8z M169,71.8c1.8-2.4,4.5-3.6,6.8-5.3
	c1.8-1.4,3.2-3.1,3.7-5.3c0.2-0.9-0.5-2.1-1.3-2.4c-0.4-0.2-0.4,0.1-0.6,0.3c-0.7,1.1-1.8,1.9-2.8,2.6c-2.4,1.8-4.1,4.2-5.3,6.9
	C169,69.5,168.6,70.6,169,71.8z M163.9,60.3c-1.2,1.5-2.5,2.5-2.1,4.3c0.4,2.2,1,4.3,2.3,6.2c1,1.5,2.3,2.9,3.4,4.4
	c0-1.9,0.6-3.8,0.1-5.5C166.7,66.4,164.5,63.8,163.9,60.3z M168.4,68c0.8-1.4,2.1-2.5,1.5-4.3c-0.6-1.9-1.7-3.6-2.4-5.5
	c-0.1-0.4-0.3-0.5-0.8-0.3c-1.4,0.7-1.9,1.8-1.5,3.3C165.8,63.7,167.2,65.8,168.4,68z M171,63.2c1.6-3.2,1.9-6.5,0.9-10
	c-0.1-0.6-0.5-0.6-0.8-0.1c-0.7,0.8-1.4,1.7-2.1,2.5c-0.7,0.8-0.9,1.5-0.5,2.5C169.2,59.8,170.3,61.4,171,63.2z M173.1,61.5
	c1.2-0.8,2.4-1.5,3.3-2.5c0.4-0.5,0.8-1,0.3-1.6c-1-1.1-2.1-2.2-3.2-3.2C173.7,56.7,173.5,59.1,173.1,61.5z"/>
<path class="st0" d="M16.8,67.6c0.1-3.3,1.5-6.1,4-8.3c2.6-2.3,5.2-4.5,7.1-7.4c1-1.5,1-1.5,2.2-0.1c2.2,2.6,4.7,5,7.2,7.3
	c5.6,5,5.8,12,0.5,17.3c-0.8,0.8-1.7,1.6-2.7,2.3c-2.2,1.7-4.1,3.7-5.6,5.9c-0.5,0.7-0.8,0.8-1.3,0c-1.2-1.8-2.9-3.1-4.4-4.6
	c-1.9-1.9-3.7-3.8-5.1-6C17.5,72.1,16.8,69.9,16.8,67.6z M30.3,61.6c1.2-0.6,2.1-1.5,3.1-2.4c0.5-0.5,1.1-1.2,0.5-1.9
	c-0.9-1.1-2-2-3-3c-0.1,0-0.2,0.1-0.3,0.1C31,56.8,30.6,59.2,30.3,61.6c-0.1,0-0.1,0.1-0.1,0.2C30.2,61.7,30.2,61.6,30.3,61.6z
	 M27,81.6L27,81.6L27,81.6c0-0.8-0.4-1.5-0.8-2.2c-1.2-2-2.4-4.1-4-5.8c-1.9-2.1-3.2-4.5-3.9-7.2c0-0.1,0-0.3-0.4-0.2
	c-0.3,1.7,0,3.4,0.6,5C20.1,75.6,23.5,78.6,27,81.6z M40.1,65.1C39.9,64,39.2,63,38.5,62c-0.2-0.2-0.3-0.6-0.6-0.5
	c-0.4,0-0.4,0.5-0.5,0.7c-1,2.7-2.9,4.6-5.4,6.1c-1.5,0.9-2.9,1.9-4.2,3.2c-1.7,1.7-2.3,3.7-1.3,5.9c0.1,0.2,0.1,0.6,0.4,0.7
	c0.4,0.1,0.4-0.3,0.6-0.5c1.8-2.6,4.3-4.5,7.1-6c1.2-0.6,2.3-1.3,3.2-2.3C39,68.2,39.9,66.9,40.1,65.1z M29.2,83.4
	c2-2.7,4.6-4.8,7.2-6.9c2-1.6,3.4-3.7,4-6.2c0.2-0.8,0.5-1.6,0.1-2.6c-0.9,1.3-1.8,2.4-2.9,3.2c-1.2,0.9-2.5,1.6-3.8,2.3
	c-1.4,0.8-2.6,1.8-3.7,2.9c-2.7,2.8-2.8,3.5-1.1,7C29,83.2,29.1,83.2,29.2,83.4z M26,71.9c1.9-2.5,4.9-3.8,7.3-5.7
	c1.6-1.2,2.7-2.8,3.3-4.8c0.4-1.1-0.1-1.8-0.9-2.4c-0.3-0.3-0.7-0.4-0.9,0c-1,1.5-2.6,2.3-3.8,3.5C28.2,65.1,26.2,68.1,26,71.9z
	 M24.9,75.2c-0.1-1.5-0.3-2.7,0-3.9c0.2-1,0-1.8-0.4-2.7c-1-2.5-2.7-4.8-3.3-7.5c-0.2-0.7-0.6-0.4-0.8-0.1c-1.1,1.2-1.7,2.5-1.3,4.2
	C19.8,69.1,22.1,72.1,24.9,75.2z M25.4,68.2c1.8-2,2.3-4,0.9-6.3c-0.5-0.8-0.8-1.6-1.2-2.5c-0.3-0.5-0.3-1.5-1-1.5
	c-0.8,0-1.4,0.8-1.8,1.5c-0.4,0.6-0.1,1.4,0,2.1C23,63.8,24.5,65.8,25.4,68.2z M28.2,63.6c1.6-3.5,1.8-6.8,0.9-10.3
	c0-0.2-0.2-0.4-0.3-0.5c-0.3-0.1-0.4,0.2-0.5,0.4c-0.8,0.9-1.6,1.8-2.4,2.7c-0.5,0.5-0.7,1-0.4,1.7C26.4,59.5,27.2,61.4,28.2,63.6z"
	/>
<path class="st0" d="M2.5,92.7c0-3,1.2-5.6,3.4-7.8c2.4-2.4,5.2-4.5,7.2-7.2c0-0.1,0.1-0.1,0.2-0.2c0.6-0.6,0.7-1.9,1.5-1.8
	c0.6,0,1.1,1.2,1.7,1.8c2.4,2.8,5.3,5.1,7.8,7.8c4.7,5.2,4.4,11.9-0.9,16.6c-2.9,2.5-6.1,4.8-8.1,8.1c-0.2,0.3-0.5,0.5-0.8,0.1
	c-2.2-3.1-5.5-5.3-7.9-8.2C4.2,99.2,2.5,96.3,2.5,92.7z M11.7,100.2c0.1,0.6,0.3,1.3,0.5,2.1c0.1,0.3,0.1,0.8,0.5,0.9
	c0.3,0.1,0.5-0.4,0.7-0.6c1.7-2.5,4-4.3,6.8-5.8c1.3-0.7,2.5-1.5,3.6-2.5c2.4-2.4,2.5-4.8,0.4-7.3c-0.3-0.4-0.7-0.9-1,0
	c-1,3.1-3.3,5.1-6.1,6.7c-1.8,1-3.3,2.2-4.5,3.9C12.2,98.3,11.7,99,11.7,100.2z M26.1,93c-1.6,2.6-4.3,3.9-6.8,5.4
	c-2.3,1.4-4.2,3.2-5.6,5.5c-0.3,0.4-0.6,0.9-0.4,1.4c0.4,1,0.9,2,1.4,3.2c0.4-0.5,0.7-0.8,1-1.1c1.4-1.8,3-3.3,4.9-4.7
	c1.6-1.2,2.9-2.6,4-4.2C25.8,96.8,26.5,95,26.1,93z M11.7,96.9c1.7-2,3.9-3.5,6.1-4.8c2.3-1.4,3.8-3.4,4.5-6
	c0.3-1.2-0.6-1.8-1.4-2.3c-0.7-0.4-0.7,0.6-1.1,0.9c-0.4,0.3-0.8,0.8-1.3,1.1c-1,0.8-2,1.5-2.9,2.4C13.5,90.8,11.8,93.5,11.7,96.9z
	 M10.7,100.4c-0.2-1.8-0.3-3.4,0-4.9c0-0.3,0-0.5-0.1-0.8c-0.9-3-3-5.5-3.6-8.6c-0.1-0.4-0.4-0.4-0.6-0.1c-0.9,1-1.8,2-1.7,3.5
	C5.2,93.7,7.8,97,10.7,100.4z M11.2,93c0.9-1.5,2.4-2.8,1.4-4.8c-0.8-1.7-1.5-3.4-2.3-5.1c-0.1-0.3-0.2-0.5-0.6-0.3
	c-1,0.4-1.9,1.9-1.7,3C8.4,88.4,10.1,90.6,11.2,93z M3.9,91.1c-1.4,5.1,2.7,10.5,9,15.6c-0.8-1.9-1.7-3.5-2.7-5.1
	C8,98.2,4.6,95.4,3.9,91.1z M13.9,88.6c1.6-3.6,1.8-7,0.9-10.4c-0.1-0.6-0.4-0.5-0.7-0.1c-0.9,1.1-1.8,2.1-2.8,3.2
	c-0.3,0.3-0.3,0.6-0.2,1C11.8,84.3,13,86.2,13.9,88.6z M16.4,79.1c0.2,2.5,0,5-0.4,7.5c1.3-0.9,2.7-1.6,3.5-3
	c0.3-0.4,0.5-0.9,0.1-1.3C18.5,81.3,17.4,80.2,16.4,79.1z"/>
<path class="st0" d="M117,95.5c-0.1-1.9-0.5-3.9,0.2-5.8c0.8-2.4,2.3-4.3,4.2-6c2.7-2.3,5.3-4.7,7-7.7c0.2-0.4,0.5-0.6,0.8-0.1
	c2.5,3.5,6,6.2,8.9,9.3c5.1,5.6,4.6,12.3-1.3,17.2c-2.8,2.3-5.7,4.6-7.6,7.7c-0.3,0.5-0.6,0.4-0.9-0.1c-0.1-0.2-0.3-0.5-0.6-0.6
	c-0.2-0.7-0.7-1.2-1.3-1.5c-0.1-0.1-0.2-0.2-0.2-0.4c-1.8-1.7-3.5-3.4-5.3-5.2c-0.6-0.8-1.1-1.8-2-2.4c-0.1-0.1-0.2-0.3-0.3-0.4
	c-0.1-0.2-0.1-0.3-0.2-0.5c-0.4-0.8-0.7-1.6-1.1-2.3c-0.1-0.2-0.1-0.3-0.2-0.5C117.2,96,117.1,95.8,117,95.5z M119,96.9L119,96.9
	c0,0.6,0.2,1.1,0.7,1.4l0.1,0c-0.1,0.4,0.1,0.8,0.5,0.9c0,0.3,0.1,0.5,0.3,0.8c1.9,2.4,4.1,4.6,6.7,6.8c-0.5-1.6-1.2-2.9-2-4.1
	c-1.1-1.8-2.4-3.6-3.8-5.2c-1.7-1.9-2.6-4.2-3.2-6.8c-0.6,1.8-0.5,2.5,0.5,6C118.7,96.8,118.9,96.9,119,96.9z M127,103.5
	c2-3.2,4.8-5.4,8-7c1.1-0.6,2.1-1.3,2.9-2.2c2.4-2.4,2.6-4.9,0.4-7.3c-0.4-0.4-0.6-0.8-0.9,0.1c-0.9,2.9-3.1,4.9-5.8,6.5
	c-1.2,0.7-2.4,1.5-3.4,2.5C125.7,98.5,125.5,100.1,127,103.5z M140.5,92.9c-1,1.2-1.9,2.3-3.1,3.2c-1.3,0.9-2.7,1.6-4,2.4
	c-2.2,1.4-4.1,3.2-5.4,5.4c-0.3,0.5-0.5,1.1-0.2,1.7c0.5,0.9,0.9,1.8,1.4,2.9c2.1-3,5-5,7.6-7.3C139.2,99,140.7,96.3,140.5,92.9z
	 M126.1,96.8c1.7-2,3.8-3.3,6-4.7c1.6-1,2.8-2.2,3.7-3.7c0.5-0.8,0.7-1.6,0.9-2.4c0.2-1.1-0.5-1.7-1.3-2.1c-0.7-0.4-0.8,0.6-1.2,0.9
	c-0.5,0.4-0.9,0.8-1.4,1.2c-2.4,1.7-4.3,3.9-5.7,6.5C126.4,93.8,125.9,95.2,126.1,96.8z M125,100.4c-0.2-1.5-0.4-2.8-0.1-4
	c0.2-1,0-1.8-0.3-2.7c-1-2.5-2.7-4.8-3.3-7.5c-0.1-0.3-0.3-0.7-0.6-0.3c-0.9,1-1.9,1.9-1.7,3.5C119.4,93.7,122,97,125,100.4z
	 M125.4,93.2c1.6-2,2.4-3.8,1.1-6c-0.7-1.3-1.3-2.6-1.9-4c-0.2-0.5-0.4-0.5-0.9-0.2c-1.5,0.9-1.8,1.7-1.4,3.3
	C123,88.7,124.4,90.7,125.4,93.2z M128.8,77.6c-0.7,0.8-1.2,1.6-1.9,2.2c-1.8,1.4-1.7,2.9-0.7,4.6c0.7,1.2,1.3,2.5,1.9,3.9
	C129.8,85.4,130,80.5,128.8,77.6z M130.8,79.4c-0.1,0-0.2,0.1-0.3,0.1c0.4,2.2,0.2,4.3-0.2,6.5c-0.1,0.5,0.3,0.6,0.6,0.3
	c1.1-0.8,2.2-1.5,2.9-2.7c0.2-0.4,0.4-0.8,0-1.2C132.8,81.3,131.8,80.4,130.8,79.4z"/>
<path class="st0" d="M59.7,43.1c-0.1-4,1.7-6.9,4.4-9.2c2.7-2.3,5.4-4.7,7.1-7.8c0.3-0.6,0.6-0.6,1-0.1c2.2,2.9,5,5.5,7.7,8
	c2.6,2.3,4.4,5,4.6,8.5c0.3,4.4-2,7.8-5.4,10.5c-2.6,2-5,4.3-6.8,7c-0.3,0.5-0.5,0.7-0.9,0.1c-1.2-2-3.1-3.3-4.7-4.9
	c-2.2-2.2-4.4-4.4-5.8-7.2C60.1,46.3,59.6,44.6,59.7,43.1z M80.5,36.2c-0.9,3.6-3.4,5.8-6.4,7.6c-0.9,0.6-1.8,1.2-2.7,2
	c-2,1.8-3.3,3.8-2.1,6.5c0.1,0.3,0.1,0.8,0.5,0.9c0.4,0.1,0.6-0.4,0.8-0.7c1.7-2.4,4-4.3,6.7-5.7C78.7,46,80,45.1,81,44
	C83.5,41.4,83.4,38.9,80.5,36.2z M83.3,42.8c-1.5,2.5-3.9,4-6.4,5.3c-1.8,1-3.3,2.3-4.7,3.8c-1.6,1.7-2.1,3.4-0.7,5.5
	c0.5,0.7,0.7,0.9,1.2,0.1c1.5-1.9,3.3-3.6,5.2-5c1.2-0.9,2.2-1.9,3.1-3C82.7,47.6,83.6,45.4,83.3,42.8z M68.9,46.9
	c1.7-2.1,4-3.5,6.2-4.9c2-1.3,3.6-3.1,4.2-5.4c0.1-0.4,0.2-0.8,0.2-1.2c-0.1-0.8-0.7-1.3-1.4-1.6c-0.6-0.3-0.7,0.5-1,0.8
	c-0.7,0.5-1.2,1.2-1.9,1.7c-2.5,1.8-4.3,4.1-5.6,6.9C69.1,44.3,68.7,45.5,68.9,46.9z M67.7,50.2c0-1.5-0.1-2.8,0-4
	c0.1-0.9-0.1-1.8-0.5-2.6c-1-2.5-2.6-4.7-3.1-7.3c-0.1-0.3-0.3-0.7-0.7-0.3c-0.8,0.9-1.8,1.8-1.7,3.2C62.2,43.4,64.6,46.8,67.7,50.2
	z M68.3,43.4c0.4-0.7,0.6-1.3,0.9-1.7c1-1.3,0.9-2.5,0.3-3.9c-0.7-1.5-1.4-3-2.1-4.5c-0.1-0.3-0.3-0.5-0.7-0.4
	c-1.2,0.5-1.9,1.8-1.6,3.1C65.7,38.5,67.3,40.7,68.3,43.4z M61,40.9c-1.3,4.5,3.6,13,8.9,15.5c-0.2-1-0.7-1.8-1.2-2.6
	c-1.3-2.2-2.7-4.2-4.4-6.2C62.7,45.8,61.7,43.5,61,40.9z M71.7,27.5c-1.2,1.3-2.1,2.4-3.1,3.5c-0.4,0.4-0.5,0.9-0.3,1.4
	c0.8,1.9,1.7,3.9,2.7,6.1C72.6,34.8,73,31.4,71.7,27.5z M73.1,36.5c1.4-0.8,2.7-1.7,3.6-3c0.2-0.3,0.3-0.7,0-1.1
	c-1.1-1.1-2.1-2.1-3.2-3.2C73.7,31.7,73.6,34,73.1,36.5z"/>
<path class="st0" d="M198.8,43.6c-0.1,3.5-2.1,6.6-5.1,9c-2.7,2.2-5.4,4.4-7.2,7.3c-0.2,0.4-0.5,0.7-0.9,0.1
	c-1.7-2.6-4.3-4.3-6.4-6.6c-1.6-1.7-3.1-3.5-4.1-5.6c-2.4-4.9-1.2-10.2,3-13.8c2.8-2.4,5.5-4.9,7.4-8.1c0.3-0.6,0.6-0.4,0.9,0
	c2.5,3.3,5.6,6,8.6,8.9C197.5,37.2,198.7,40,198.8,43.6z M183.9,56.4c0.1,0,0.1,0.1,0.2,0.1c0-0.1,0-0.2-0.1-0.3
	c-0.7-2.1-1.9-4-3.3-5.8c-2.2-3-4.8-5.7-5.5-9.4c-0.4,1.2-0.4,2.4-0.1,3.6C176.3,49.7,180,53.1,183.9,56.4z M194.8,36.2
	c-1,3.5-3.3,5.8-6.4,7.5c-1.6,0.9-2.9,2-4.1,3.4c-1.5,1.8-1.6,4-0.2,6.2c1.7-2.7,4-4.7,6.8-6.3c1.3-0.7,2.6-1.5,3.8-2.5
	C197.7,42,197.8,39.1,194.8,36.2z M197.6,42.8c-1.4,2.2-3.5,3.7-5.8,4.9c-2.1,1.1-3.8,2.5-5.3,4.2c-1.6,1.7-2.1,3.4-0.7,5.5
	c0.5,0.7,0.7,0.9,1.2,0.1c1.4-1.8,3-3.4,4.9-4.7c1.4-1,2.6-2.1,3.6-3.4C197,47.5,197.9,45.3,197.6,42.8z M183,47.2
	c1.8-2.3,3.8-3.7,5.9-4.9c1.3-0.8,2.4-1.8,3.3-3c0.8-1,1.3-2.2,1.5-3.5c0.1-1-0.6-1.5-1.3-1.9c-0.7-0.4-0.8,0.4-1.1,0.8
	c-0.6,0.6-1.2,1.1-1.8,1.6c-2.7,1.9-4.5,4.4-5.8,7.2C183.3,44.6,183,45.7,183,47.2z M178.2,35.5c-1.4,1.4-2.6,2.7-2,4.7
	c0.3,1.1,0.6,2.3,1,3.4c0.9,2.5,2.8,4.3,4.6,6.3c-0.1-1.9,0.6-3.8,0-5.6C180.8,41.3,178.8,38.7,178.2,35.5z M182.5,43.2
	c2.2-2.3,2-4.6,0.6-7c-0.5-0.9-0.9-1.9-1.4-2.9c-0.1-0.3-0.2-0.6-0.7-0.4c-1.4,0.6-2,2-1.7,3.4C180.1,38.7,181.6,40.8,182.5,43.2z
	 M185.3,38.5c1.6-3.7,1.9-7.2,0.7-10.9c-1,1.1-1.8,2.2-2.7,3.1c-0.7,0.7-0.9,1.4-0.5,2.2C183.6,34.7,184.4,36.4,185.3,38.5z
	 M187.8,29.2c0.2,2.5,0,4.9-0.6,7.7c1.5-1.1,2.7-1.9,3.6-3c0.3-0.4,0.7-0.9,0.2-1.5C189.9,31.3,188.8,30.3,187.8,29.2z"/>
<path class="st0" d="M59.7,143c0-4.1,1.9-7,4.7-9.4c2.6-2.2,5.2-4.6,6.9-7.6c0.3-0.6,0.6-0.6,1-0.1c2.4,3.1,5.3,5.8,8.1,8.4
	c5.5,5.2,5.6,12.1,0.1,17.4c-1.3,1.3-2.9,2.4-4.3,3.6c-1.5,1.3-2.8,2.9-3.9,4.6c-0.2,0.3-0.4,0.9-0.8,0.2c-1.7-2.7-4.4-4.4-6.5-6.8
	c-1.9-2.1-3.8-4.3-4.6-7C59.9,145.1,59.6,143.9,59.7,143z M80.6,136.3c-0.1,0.1-0.2,0.3-0.2,0.4c-0.9,3-3,5.1-5.7,6.7
	c-1.2,0.7-2.3,1.5-3.3,2.3c-2.7,2.3-3.2,4.8-1.5,7.4c0.3,0,0.4-0.3,0.5-0.5c1.8-2.6,4.2-4.5,7-6c1.5-0.8,2.9-1.8,3.9-3.1
	C83.5,141,83.3,138.6,80.6,136.3z M83.3,142.8c-1.5,2.6-4.2,4-6.7,5.5c-1.7,1-3.2,2.3-4.5,3.7c-1.5,1.7-2.1,3.4-0.7,5.4
	c0,0.1,0.1,0.1,0.1,0.2c0.3,0.7,0.6,0.6,1,0.1c1.8-2.4,4.2-4.2,6.5-6.1C81.9,149.3,83.6,146.4,83.3,142.8z M68.9,146.9
	c1.7-2.1,4.1-3.6,6.4-5c1.5-0.9,2.7-2.2,3.5-3.8c0.4-0.8,0.7-1.6,0.8-2.5c0.1-0.9-0.7-1.4-1.4-1.8c-0.6-0.3-0.7,0.5-1,0.8
	c-0.5,0.4-1,1-1.5,1.4c-2.3,1.6-4.1,3.6-5.4,5.9C69.4,143.5,68.7,145.1,68.9,146.9z M67.8,150.2c0-1.6,0-2.9,0-4.2
	c0-0.8-0.1-1.5-0.4-2.2c-1-2.6-2.7-4.9-3.3-7.6c-0.1-0.4-0.3-0.6-0.7-0.2c-1,1.1-1.9,2.2-1.6,3.9C62.5,143.8,64.8,147,67.8,150.2z
	 M68.3,143.4c0.4-0.8,0.6-1.3,0.9-1.7c0.9-1.2,1-2.5,0.4-3.8c-0.7-1.5-1.4-3.1-2.1-4.6c-0.2-0.3-0.3-0.5-0.7-0.3
	c-1.4,0.6-2,1.8-1.6,3.3C65.8,138.7,67.3,140.8,68.3,143.4z M69.8,156.7c0.2-0.5,0-0.7-0.1-0.9c-1.2-2.7-2.9-5.2-4.9-7.5
	c-1.7-2-3-4.2-3.6-6.8c0-0.2-0.1-0.4-0.4-0.3C60.1,148.3,65.2,152.3,69.8,156.7z M71.1,138.5c1.4-3.5,1.9-6.8,0.9-10.2
	c-0.2-0.8-0.5-0.6-0.9-0.1c-0.7,0.9-1.4,1.8-2.2,2.5c-0.6,0.6-0.7,1.3-0.4,2C69.3,134.6,70.1,136.4,71.1,138.5z M72.9,136.8
	c1.7-1.1,3-2,3.9-3.4c0.2-0.3,0.2-0.7-0.1-1c-1.1-1.1-2.1-2.1-3.2-3.2C73.7,131.7,73.6,134,72.9,136.8z"/>
<path class="st0" d="M184.5,118.2c-0.1,4.1-2.2,7.2-5.4,9.7c-2.7,2.1-5.1,4.3-6.9,7.1c-0.2,0.4-0.4,0.8-0.9,0.1
	c-1.7-2.7-4.4-4.5-6.5-6.8c-1.8-2-3.5-3.9-4.4-6.4c-1.9-5.1-0.5-9.6,3.7-13.2c2.7-2.3,5.4-4.7,7.1-7.8c0.3-0.6,0.6-0.4,0.9,0
	c2.5,3.3,5.6,6,8.6,8.9C183.1,112.1,184.5,114.9,184.5,118.2z M180.6,111.3c-1,3.7-3.7,6-6.9,7.8c-1.5,0.8-2.7,1.9-3.7,3.3
	c-1.4,1.9-1.4,3.8,0.1,6c2-3.6,5.4-5.6,8.9-7.6c1.1-0.6,2-1.5,2.7-2.5C183.2,116,183.5,114.3,180.6,111.3z M183.3,117.8
	c-1.5,2.5-3.9,4-6.5,5.4c-1.9,1-3.4,2.4-4.9,4c-1.6,1.8-1.7,3.5-0.5,5.5c0.4,0.7,0.6,0.7,1.1,0.1c1.6-2,3.5-3.7,5.5-5.2
	c0.6-0.5,1.2-1,1.7-1.5C182.1,123.6,183.6,121,183.3,117.8z M168.8,120.9c0,0.3-0.1,0.6,0.2,0.7c0.4,0.1,0.5-0.2,0.7-0.4
	c1.3-1.6,3-2.7,4.8-3.7c0.6-0.3,1.1-0.7,1.6-1.1c1.8-1.4,3.1-3.2,3.5-5.4c0.2-1-0.5-1.6-1.2-2c-0.8-0.5-0.8,0.5-1.2,0.8
	c-0.6,0.5-1.2,1.1-1.8,1.6c-1.1,0.8-2.2,1.7-3,2.8C170.5,116.1,169.3,118.4,168.8,120.9z M167.7,125.2c0-2.1,0.3-3.9-0.1-5.6
	c-0.7-3.2-3.1-5.8-3.7-9.2c-1.6,1.5-2.4,2.9-2,5.1C162.7,119.3,165.1,122.1,167.7,125.2z M168.3,118.3c0.5-0.9,0.8-1.6,1.3-2.2
	c0.6-0.8,0.6-1.7,0.3-2.6c-0.7-1.8-1.5-3.5-2.3-5.2c-0.2-0.3-0.4-0.6-0.8-0.4c-1.2,0.5-1.8,1.8-1.5,3
	C165.6,113.6,167.3,115.7,168.3,118.3z M169.8,131.5c0.2-0.3-0.1-0.5-0.2-0.8c-1.2-2.7-2.9-5.1-4.8-7.4c-1.6-1.9-2.9-4-3.6-6.4
	c-0.1-0.3,0-0.6-0.4-0.8C159.8,120.9,164.1,128.1,169.8,131.5z M171,113.5c1.6-3.5,1.8-6.8,1-10.1c-0.1-0.2-0.1-0.5-0.4-0.6
	c-0.3-0.1-0.4,0.2-0.6,0.4c-0.8,0.9-1.5,1.9-2.4,2.7c-0.5,0.5-0.6,1.1-0.4,1.7C169.2,109.5,170.1,111.4,171,113.5z M173.4,104.3
	c0.4,2.5,0.1,4.8-0.5,7.6c1.5-1.1,2.7-1.9,3.6-3.1c0.3-0.4,0.6-0.9,0.1-1.4C175.6,106.3,174.7,105.2,173.4,104.3z"/>
<path class="st0" d="M16.8,118c0-3.4,1.4-6.2,3.9-8.5c2.5-2.2,5-4.4,7-7c0.4-0.6,0.6-1.7,1.3-1.7c0.7,0,1,1.1,1.5,1.6
	c2.2,2.4,4.6,4.7,7,6.9c2.2,2.1,3.8,4.5,4.2,7.5c0.4,2.9-0.4,5.4-2.1,7.8c-1,1.4-2.3,2.7-3.7,3.8c-2.5,1.8-4.6,3.9-6.3,6.5
	c-0.4,0.7-0.7,0.8-1.2,0c-0.9-1.5-2.4-2.7-3.7-4c-2-1.9-3.9-3.8-5.5-6.1C17.7,122.7,16.9,120.4,16.8,118z M30.3,111.6
	c1.3-0.8,2.5-1.7,3.4-2.9c0.3-0.4,0.7-0.9,0.2-1.4c-1-1-2.1-2.1-3.1-3.1c-0.1,0-0.2,0-0.3,0.1c0.6,2.4,0.1,4.8-0.2,7.2
	c-0.1,0.1-0.2,0.2,0,0.2C30.2,111.8,30.3,111.7,30.3,111.6z M27,131.6L27,131.6L27,131.6c0.1-0.5-0.2-0.8-0.4-1.2
	c-0.9-2-2.2-3.9-3.5-5.7c-1.7-2.2-3.6-4.3-4.4-6.9c-0.2-0.6-0.4-1.2-0.6-2c-0.5,2-0.2,3.8,0.4,5.5C20.1,125.6,23.5,128.6,27,131.6z
	 M27.1,128.4c2.1-3.6,5.4-5.7,9-7.6c0.9-0.5,1.7-1.2,2.3-2c2.1-2.5,2.1-4.4,0.1-6.8c-0.2-0.2-0.3-0.5-0.6-0.5
	c-0.3,0.1-0.3,0.4-0.4,0.7c-0.9,2.7-2.8,4.6-5.4,6.1c-1.7,1-3.2,2.1-4.5,3.5C25.8,123.9,25.6,126,27.1,128.4z M40.5,117.9
	c-1.7,2.7-4.5,4.1-7.1,5.6c-2.3,1.4-4.1,3.2-5.4,5.4c-0.3,0.6-0.4,1.1-0.1,1.7c0.3,0.6,0.6,1.2,0.8,1.8c0.3,0.8,0.7,0.8,1.2,0.1
	c1.6-2,3.5-3.7,5.6-5.3c1.4-1.1,2.6-2.3,3.5-3.8C40.1,121.8,40.8,120,40.5,117.9z M25.9,121.9c1.1-1.1,2.2-2.1,3.5-3.1
	c1.3-1,2.9-1.7,4.2-2.8c1.6-1.5,2.8-3.1,3.2-5.2c0.2-1-0.6-1.4-1.2-1.9c-0.4-0.3-0.6,0-0.8,0.2c-0.8,1.1-2,1.9-3.1,2.7
	C28.4,114.6,26.4,117.8,25.9,121.9z M24.9,125.1c-0.1-1.2-0.3-2.4,0-3.5c0.2-1.1,0-2.1-0.4-3.1c-1-2.5-2.6-4.7-3.2-7.4
	c-0.1-0.4-0.4-0.5-0.7-0.2c-0.9,1-1.8,2-1.6,3.5C19.5,118.8,22,122,24.9,125.1z M25.5,118.4c0.4-0.8,0.6-1.3,0.9-1.7
	c1.1-1.3,0.9-2.7,0.3-4.1c-0.5-1.1-1-2.1-1.5-3.2c-0.3-0.6-0.3-1.5-0.9-1.6c-0.8,0-1.4,0.8-1.9,1.4c-0.5,0.6-0.3,1.3-0.1,1.9
	C22.9,113.6,24.4,115.7,25.5,118.4z M28.2,113.6c1.6-3.6,1.9-7,0.8-10.5c-0.2-0.7-0.5-0.2-0.8,0.1c-0.8,0.9-1.5,1.8-2.3,2.6
	c-0.6,0.6-0.8,1.2-0.4,2C26.4,109.6,27.2,111.4,28.2,113.6z"/>
<path class="st0" d="M106.3,104c-2.1,1.7-4,3.6-5.4,5.9c-0.3,0.4-0.6,0.7-1,0.1c-1.6-2.4-4-4.1-6-6.2c-2.3-2.5-4.6-5.1-5.4-8.5
	c-1.1-4.7,0.7-8.5,4.4-11.7c2.6-2.2,5.2-4.6,6.9-7.5c0.3-0.5,0.5-0.6,1-0.1c2.6,3.3,5.7,6.1,8.7,9c3.9,3.7,4.6,9.2,1.9,13.7
	c-0.1,0.2-0.2,0.4-0.2,0.5c-0.9,1.1-1.9,2.2-2.8,3.2c0,0,0,0,0,0C107.7,103,107,103.5,106.3,104z M98.2,106.4c0.2,0.1,0.2,0,0.1-0.1
	c-1-2.9-2.7-5.4-4.7-7.7c-1.8-2.1-3.1-4.3-3.8-6.9c-0.1-0.2,0-0.5-0.4-0.6c-0.4,2.3,0,4.4,1,6.5C92.2,101.1,95.1,103.8,98.2,106.4z
	 M97.4,99.9c0.1,1,0.3,1.8,0.6,2.7c0.1,0.2,0.1,0.5,0.4,0.6c0.4,0.1,0.5-0.3,0.6-0.5c1.6-2.5,3.9-4.3,6.6-5.8
	c1.2-0.7,2.4-1.4,3.4-2.3c2.7-2.3,3-5.2,0.7-7.6c-0.3-0.3-0.6-0.8-0.9,0c-1,3.1-3.3,5.1-6.1,6.7c-1.2,0.7-2.4,1.6-3.4,2.6
	C98.5,97.3,97.5,98.4,97.4,99.9z M111.9,93c-1.5,2.2-3.7,3.6-6,4.9c-2,1.1-3.7,2.6-5.3,4.3c-1.6,1.8-1.7,3.5-0.5,5.5
	c0.4,0.6,0.6,0.7,1.1,0.1c1.6-2,3.5-3.8,5.6-5.3c1.5-1.1,2.7-2.4,3.7-4C111.5,96.7,112.2,95,111.9,93z M97.4,96.9
	c1.9-2.4,4.6-3.8,7-5.5c1.8-1.4,3.1-3.1,3.6-5.3c0.3-1.2-0.6-1.7-1.3-2.2c-0.7-0.4-0.8,0.5-1.2,0.9c-0.6,0.5-1.1,1.1-1.7,1.5
	c-2,1.4-3.6,3.2-4.8,5.2C98.1,93.2,97.4,94.9,97.4,96.9z M96.2,100.1c0-1.1,0-2,0-2.9c0-0.9,0.3-1.8,0-2.7c-1-3-3-5.7-3.7-9.1
	c-1.2,1.4-2.4,2.3-2.1,4.2C91,93.7,93.3,96.9,96.2,100.1z M96.9,93.1c0.6-0.5,0.7-1.1,1.1-1.6c1-1.1,0.9-2.3,0.3-3.5
	c-0.7-1.6-1.5-3.2-2.2-4.9c-0.1-0.2-0.2-0.5-0.5-0.4c-0.7,0.1-2.1,1.9-2,2.5C94,88.1,95.7,90.5,96.9,93.1z M99.6,88.6
	c1.7-3.7,1.8-7.2,0.7-11c-1.2,1.4-2.3,2.5-3.4,3.7c-0.3,0.3-0.2,0.7-0.1,1.1C97.5,84.5,98.7,86.3,99.6,88.6z M102,79.1
	c0,1.6,0.1,2.8,0,4c-0.1,1.2-0.3,2.4-0.5,3.8c1.2-1,2.3-1.8,3.2-2.7c0.5-0.5,1-1.1,0.5-1.8C104.3,81.3,103.2,80.3,102,79.1z"/>
<path class="st0" d="M114.2,100.7c0.7-0.4,0.8,0.2,1,0.5c1.3,1.6,2.6,3.2,4.2,4.6c0.8,0.8,1.5,1.8,2.5,2.4c0.2,0.1,0.3,0.3,0.5,0.4
	c0.1,0.3,0.4,0.5,0.7,0.6c0.1,0.1,0.3,0.3,0.4,0.4c0.3,0.3,0.6,0.6,1,1c2.2,2.8,3.4,5.9,2.7,9.5c-0.7,3.4-2.8,6-5.6,8.1
	c-2.6,2-4.8,4.2-6.6,6.9c-0.1,0.1-0.2,0.2-0.4,0.4c-2.5-3.6-6.3-6.1-8.9-9.5c-2.6-3.5-4-7.2-2.7-11.5c0.7-2.3,2.1-4.1,3.9-5.6
	c0.5-0.4,0.9-0.8,1.3-1.2c1.5-1.3,3.1-2.5,4-4.3l0,0c0.8-0.2,0.9-0.9,1.2-1.4c0,0,0,0,0,0C114,101.6,114.1,101.2,114.2,100.7z
	 M117.8,105.7c-0.2-0.2-0.4-0.5-0.6-0.7c-0.2-0.4-0.6-0.7-1.1-1c0.5,2.6,0.3,5.1-0.3,7.9c0.9-0.7,1.5-1.1,2-1.6
	C120.4,108.4,120.4,107.6,117.8,105.7z M111.7,125.1c0.2,0.7,0.4,1.5,0.6,2.4c0.1,0.2,0.1,0.6,0.4,0.7c0.4,0.1,0.5-0.3,0.6-0.5
	c1.8-2.6,4.3-4.6,7.2-6c1.2-0.6,2.3-1.4,3.2-2.4c2.4-2.4,2.5-4.8,0.3-7.3c-0.3-0.3-0.6-0.9-0.9,0c-1,3.2-3.4,5.2-6.3,6.9
	c-1.7,1-3.1,2.2-4.3,3.7C112.2,123.2,111.8,124,111.7,125.1z M126.1,117.9c-1.5,2.5-4.1,3.9-6.6,5.3c-1.7,0.9-3,2.2-4.3,3.5
	c-1.7,1.7-2.4,3.5-0.9,5.7c0.5,0.8,0.7,0.8,1.2,0.1c1.4-1.9,3.1-3.5,5.1-4.9c1.2-0.9,2.3-1.9,3.3-3.1
	C125.4,122.7,126.5,120.6,126.1,117.9z M111.6,121.9c1.4-1.3,2.7-2.6,4.3-3.6c1.3-0.8,2.7-1.6,3.8-2.7c1.3-1.3,2.2-2.8,2.7-4.6
	c0.3-1.2-0.6-1.6-1.3-2c-0.8-0.5-0.8,0.5-1.2,0.8c-0.7,0.7-1.4,1.2-2.1,1.8C114.4,114.2,112.1,117.5,111.6,121.9z M110.7,125.3
	c-0.2-1.5-0.3-2.8-0.1-4c0.2-1-0.1-1.9-0.4-2.9c-1-2.5-2.7-4.7-3.2-7.4c-0.1-0.3-0.3-0.5-0.6-0.3c-0.8,0.4-1.8,2.5-1.7,3.4
	C105,118.6,107.6,121.9,110.7,125.3z M111.2,118.3c0.4-0.7,0.6-1.2,0.9-1.5c1.1-1.3,1-2.7,0.4-4.1c-0.7-1.5-1.3-2.9-2-4.4
	c-0.1-0.3-0.3-0.6-0.7-0.4c-0.9,0.3-1.9,1.8-1.7,2.7C108.3,113.3,110.1,115.5,111.2,118.3z M103.8,116.1c-1.4,3.9,4,13.4,8.6,14.9
	c0.1-0.6-0.2-1-0.4-1.4c-1.1-2.1-2.4-4.1-4-6c-1.8-2.1-3.2-4.4-3.9-7C104,116.4,104,116.2,103.8,116.1z M113.9,113.2
	c1.6-3.2,1.8-6.4,1-9.7c-0.2-0.7-0.5-0.8-1-0.2c-0.8,0.9-1.6,1.8-2.4,2.7c-0.4,0.5-0.6,1-0.3,1.6
	C111.9,109.6,113.1,111.3,113.9,113.2z M112.6,131.5c0,0,0,0.1,0,0.1c0.1,0,0.1,0,0.2-0.1c0,0,0-0.1-0.1-0.1
	C112.7,131.5,112.7,131.5,112.6,131.5z"/>
<path class="st0" d="M102.5,67.2c0-2.5,1.2-5.1,3.4-7.3c2.2-2.2,4.7-4.1,6.6-6.5c0.6-0.8,1.1-1.5,1.6-2.4c0.3-0.5,0.5-0.5,0.8-0.1
	c2.6,3.4,5.9,6.1,8.8,9.1c5.1,5.2,4.7,12.2-0.8,17c-2.3,2-4.9,3.7-6.7,6.2c-0.4,0.6-0.8,1.2-1.3,1.8c-0.2,0.3-0.5,0.6-0.8,0.1
	c-2.3-3.4-6-5.7-8.5-9C103.9,73.6,102.5,70.9,102.5,67.2z M112.7,78.3c0.2-0.2,0.3-0.3,0.4-0.4c1.8-2.6,4.2-4.6,7.1-6.1
	c1.3-0.7,2.5-1.4,3.5-2.5c2.4-2.4,2.6-4.7,0.5-7.2c-0.2-0.2-0.4-0.5-0.6-0.5c-0.4,0-0.3,0.4-0.4,0.6c-1,2.8-3,4.8-5.6,6.3
	c-1.5,0.9-2.9,1.9-4,3.1C111.4,73.7,111.2,75.4,112.7,78.3z M126.1,67.9c-1.7,2.9-4.7,4.1-7.4,5.8c-2.1,1.3-3.8,3-5,5.1
	c-0.2,0.4-0.5,0.8-0.4,1.2c0.4,1.1,0.8,2.2,1.6,3.4c1.9-2.8,4.6-4.8,7.2-7c1.4-1.2,2.5-2.6,3.3-4.2C126,70.9,126.5,69.5,126.1,67.9z
	 M111.7,71.9c1.7-2.1,4-3.5,6.3-5c2.2-1.4,3.8-3.4,4.4-5.9c0.3-1.1-0.6-1.6-1.3-2.1c-0.7-0.5-0.9,0.5-1.2,0.8
	c-0.6,0.7-1.3,1.2-2,1.7c-2.4,1.7-4,3.9-5.2,6.3C112,69.1,111.6,70.5,111.7,71.9z M110.7,75.5c-0.3-1.4-0.4-2.7-0.2-3.9
	c0.2-1.2,0-2.2-0.5-3.2c-1-2.4-2.6-4.7-3.2-7.3c-0.1-0.3-0.2-0.5-0.6-0.2c-0.8,0.5-1.8,2.5-1.7,3.5
	C105.1,68.8,107.8,72.1,110.7,75.5z M111.1,68.2c1.8-2,2.3-4,1-6.2c-0.7-1.2-1.2-2.5-1.8-3.8c-0.1-0.2-0.1-0.6-0.6-0.4
	c-0.9,0.3-2,1.9-1.8,2.9C108.4,63.4,110.1,65.5,111.1,68.2z M112.6,81.3c-0.5-1.3-1.1-2.6-1.9-3.8c-1.2-1.9-2.5-3.6-3.9-5.3
	c-1.5-1.8-2.3-3.9-3-6.3C102.3,71.1,106.7,76.7,112.6,81.3z M113.9,63.6c1.6-3.5,1.8-6.8,0.9-10.2c-0.1-0.6-0.5-0.6-0.9-0.1
	c-0.9,1-1.7,2-2.6,3c-0.3,0.3-0.4,0.7-0.2,1.1C112,59.3,112.9,61.3,113.9,63.6z M115.9,61.6c1.2-0.7,2.5-1.4,3.3-2.5
	c0.3-0.4,0.8-1,0.5-1.5c-0.9-1.2-2-2.2-3.4-3.3C116.3,56.9,116.5,59.2,115.9,61.6z"/>
<path class="st0" d="M173.9,142.6c0-3.9,2.1-6.8,5.1-9.3c2.5-2.1,4.9-4.4,6.5-7.2c0.4-0.6,0.6-0.6,1-0.1c2.3,3.1,5.1,5.7,8,8.3
	c3.5,3.2,5.1,7,3.9,11.5c-0.7,2.9-2.5,5.2-5,7c-2.7,2-5.1,4.2-6.9,7c-0.2,0.3-0.5,0.9-0.9,0.2c-1.6-2.5-4-4.2-6-6.3
	c-2.5-2.7-4.8-5.4-5.5-9.1C174,144,174,143.3,173.9,142.6z M184,156.4c0.1,0,0.1,0,0.2,0c0-0.1,0-0.1,0-0.2c-1-2.9-2.9-5.4-4.8-7.8
	c-1.5-1.9-2.9-3.8-3.5-6.2c-0.1-0.4-0.3-0.9-0.4-1.3c-0.5,1.2-0.5,2.4-0.2,3.6C176.3,149.7,180.1,153.1,184,156.4z M184.2,153.4
	c2-3.3,4.9-5.4,8.2-7.1c0.9-0.5,1.7-1.1,2.5-1.8c2.9-2.6,3-5.7,0.1-8.2c-0.1,0.1-0.2,0.3-0.2,0.4c-0.9,3-3,5.2-5.9,6.8
	c-1.1,0.6-2.3,1.4-3.2,2.3C182.6,148.9,182.7,149.7,184.2,153.4z M197.6,142.8c-1.6,2.5-4.1,4-6.7,5.5c-1.7,0.9-3,2.2-4.3,3.6
	c-1.7,1.8-2.3,3.6-0.7,5.8c0.4,0.6,0.6,0.7,1,0.1c1.7-2.3,3.9-4,6.1-5.8C195.9,149.6,197.8,146.7,197.6,142.8z M183.1,146.9
	c1.6-1.9,3.7-3.3,5.8-4.6c1.2-0.7,2.3-1.7,3.2-2.8c0.8-1.1,1.4-2.3,1.6-3.6c0.1-1-0.6-1.5-1.3-1.9c-0.7-0.4-0.8,0.5-1.2,0.8
	c-0.6,0.5-1.1,1.1-1.7,1.5c-2.6,1.9-4.5,4.3-5.8,7.1C183.3,144.4,183,145.6,183.1,146.9z M181.9,149.8c-0.1-2.3,0.7-4.7-0.6-7
	c-1.2-2.3-2.6-4.6-3.1-7.4c-1.4,1.4-2.4,2.5-2.1,4.5C176.9,143.9,179.1,147,181.9,149.8z M182.7,143.1c0.6-1.4,2.1-2.5,1.5-4.3
	c-0.6-2-1.8-3.8-2.5-5.8c-0.1-0.2-0.2-0.4-0.6-0.2c-1.3,0.6-2.1,2-1.7,3.4C180.1,138.6,181.6,140.8,182.7,143.1z M185.3,138.5
	c1.6-3.7,1.9-7.2,0.7-10.9c-1,1.2-1.9,2.2-2.8,3.2c-0.6,0.6-0.8,1.2-0.4,2C183.5,134.6,184.3,136.4,185.3,138.5z M187.8,129.2
	c0.2,2.6-0.1,5-0.6,7.6c1.5-1.1,2.7-1.9,3.6-3c0.3-0.4,0.7-0.9,0.2-1.4C189.9,131.3,188.9,130.2,187.8,129.2z"/>
<path class="st0" d="M102.5,167.8c0.1-3,1.1-5.5,3.1-7.6c2.1-2.1,4.5-4,6.4-6.2c0.8-0.9,1.5-1.9,2.1-2.9c0.2-0.4,0.4-0.6,0.8-0.1
	c2.6,3.4,6,6.2,9,9.3c4.9,5.3,4.5,12-0.9,16.8c-2.3,2-4.9,3.8-6.7,6.3c-0.4,0.6-0.8,1.1-1.2,1.7c-0.3,0.4-0.6,0.6-0.9,0.1
	c-1.7-2.5-4.2-4.3-6.3-6.5c-2.5-2.7-4.8-5.6-5.3-9.3C102.6,168.7,102.5,168.2,102.5,167.8z M112.8,178.2c0.1-0.1,0.3-0.3,0.4-0.4
	c1.4-2.1,3.3-3.8,5.5-5.2c1.7-1,3.5-1.8,4.9-3.2c2.5-2.4,2.7-4.8,0.6-7.4c-0.2-0.2-0.3-0.5-0.6-0.5c-0.4,0-0.3,0.4-0.4,0.6
	c-0.9,2.8-3,4.7-5.5,6.2c-1.8,1.1-3.6,2.3-4.8,4C111.4,174.2,111.4,176.1,112.8,178.2z M126.2,167.8c-1.4,2.3-3.6,3.8-6,5
	c-2.7,1.5-4.9,3.4-6.5,6.1c-0.3,0.6-0.5,1.1-0.1,1.8c0.3,0.6,0.6,1.3,0.9,2c0.3,0.7,0.5,0.8,1,0.1c1.5-2.1,3.5-3.8,5.6-5.4
	c1.1-0.8,2.2-1.9,3-3C125.5,172.5,126.5,170.3,126.2,167.8z M111.7,171.9c1.7-2.1,4-3.5,6.3-5c2-1.3,3.5-3.1,4.2-5.4
	c0.4-1.1,0-1.8-0.8-2.5c-0.5-0.4-0.8-0.4-1.2,0.1c-0.5,0.8-1.1,1.4-1.9,1.9c-1.4,0.9-2.5,2-3.5,3.3
	C113.1,166.6,111.7,169,111.7,171.9z M110.6,175.3c-0.1-1.6-0.2-3.2,0.1-4.7c0.1-0.4-0.1-0.8-0.2-1.2c-1-2.9-2.9-5.4-3.6-8.4
	c-0.1-0.3-0.2-0.4-0.5-0.2c-0.7,0.3-1.9,2.4-1.8,3.1c0.3,1.6,0.6,3.2,1.3,4.8C107,171.2,109,173.1,110.6,175.3z M111.1,168.2
	c1.7-2,2.3-3.9,1.1-6.1c-0.7-1.3-1.3-2.6-1.9-4c-0.1-0.2-0.2-0.4-0.5-0.3c-0.9,0.2-2,2-1.8,2.9C108.4,163.3,110.1,165.5,111.1,168.2
	z M112.8,181.3c-0.3-0.7-0.6-1.4-1-2.1c-1.3-2.3-2.9-4.5-4.6-6.6c-1.6-1.9-2.5-4.1-3.3-6.7C102.5,171,106.6,176.7,112.8,181.3z
	 M113.9,163.5c1.6-3.5,1.8-6.8,0.9-10.2c-0.2-0.7-0.4-0.6-0.8-0.1c-0.8,0.9-1.5,1.8-2.4,2.7c-0.5,0.5-0.7,1-0.4,1.7
	C112.1,159.5,112.9,161.3,113.9,163.5z M116.2,154c0.1,2.7,0.3,5.2-0.5,7.9c1.6-1.1,2.9-1.9,3.8-3.2c0.3-0.5,0.5-1,0.1-1.4
	C118.5,156.2,117.4,155.2,116.2,154z"/>
<path class="st0" d="M174,93.1c0-3.9,1.5-6.7,4.2-9c2.8-2.4,5.6-4.8,7.4-8c0.3-0.6,0.6-0.5,1,0c2.3,3,4.9,5.6,7.8,8.1
	c5.4,4.7,6.5,12.3-0.2,18.2c-2.3,2-4.7,3.7-6.5,6.1c-0.5,0.7-0.8,1.8-1.5,1.9c-0.7,0-0.9-1.2-1.5-1.7c-2.6-2.6-5.4-5-7.7-7.9
	C175.1,98.3,173.9,95.7,174,93.1z M183.9,106.4c0.1,0.1,0.1,0.2,0.1,0.2c0.2-0.1,0-0.2,0-0.2c-0.6-2.3-2.1-4.2-3.4-6.1
	c-1.8-2.5-4.1-4.8-4.9-7.9c-0.1-0.4-0.3-0.8-0.5-1.3c-0.3,1.3-0.4,2.6-0.1,3.8C176.5,99.9,180.2,103.2,183.9,106.4z M183.1,100.1
	c0.2,0.7,0.4,1.6,0.7,2.5c0.1,0.2,0.2,0.5,0.4,0.5c0.3,0.1,0.5-0.3,0.6-0.5c1.7-2.6,4.1-4.4,6.9-5.9c1.2-0.6,2.3-1.3,3.2-2.2
	c2.8-2.9,3-4.6,0.9-7.4c-0.2-0.2-0.3-0.6-0.7-0.6c-0.4,0-0.4,0.5-0.5,0.7c-1,2.6-2.8,4.6-5.3,6c-1.4,0.8-2.6,1.7-3.7,2.7
	C184.3,97.1,183.3,98.3,183.1,100.1z M197.6,92.8c-1.6,2.4-3.9,4-6.4,5.3c-1.7,0.9-3.2,2.2-4.6,3.6c-1.7,1.7-2.4,3.5-1,5.7
	c0.5,0.8,0.7,0.9,1.3,0.2c1.4-1.8,3.1-3.5,5.1-4.9c1.5-1.1,2.8-2.3,3.8-3.9C197.1,97,197.9,95,197.6,92.8z M183.1,97.2
	c1.7-2.5,4.1-3.8,6.4-5.3c2-1.3,3.4-3,4.1-5.2c0.4-1.1,0-2-0.9-2.7c-0.4-0.3-0.7-0.4-1,0.1c-0.7,1.1-1.8,1.9-2.8,2.7
	c-2.7,2-4.5,4.6-5.5,7.7C183.2,95.2,182.9,96,183.1,97.2z M182,100.2c0-1.6,0-2.9,0-4.1c0-0.8-0.1-1.5-0.3-2.2c-1-2.6-2.7-5-3.3-7.7
	c-0.1-0.3-0.2-0.5-0.6-0.3c-0.8,0.5-1.8,2.5-1.7,3.5C176.5,93.6,178.9,96.9,182,100.2z M182.7,93.1c0.6-1.5,2.1-2.5,1.6-4.3
	c-0.6-2-1.8-3.8-2.6-5.7c-0.1-0.2-0.2-0.4-0.6-0.2c-1,0.4-2,2-1.7,3.1C179.9,88.5,181.5,90.7,182.7,93.1z M186,77.6
	c-1.2,1.4-2.3,2.6-3.3,3.8c-0.2,0.3-0.2,0.6-0.1,0.9c0.6,2.1,1.9,3.9,2.7,6C186.9,84.8,187.2,81.4,186,77.6z M187.8,79.2
	c0.2,2.5-0.1,4.9-0.6,7.6c1.5-1.1,2.8-1.9,3.7-3.1c0.3-0.4,0.5-0.8,0.1-1.2C189.9,81.3,188.9,80.3,187.8,79.2z"/>
<path class="st0" d="M88.2,43.4c0-3.7,1.1-6.3,3.4-8.4c2.1-2,4.4-3.9,6.3-6.1c0.7-0.9,1.4-1.7,2-2.7c0.3-0.5,0.5-0.8,1-0.1
	c2.4,3.1,5.2,5.7,8.1,8.3c5.6,5.3,5.7,12.1,0.1,17.4c-0.7,0.7-1.5,1.3-2.3,2c-2.3,1.7-4.2,3.7-5.7,6c-0.4,0.7-0.7,0.9-1.2,0
	c-1.5-2.4-3.9-4-5.8-6c-2.1-2.2-4.1-4.5-5.1-7.3C88.5,45.3,88.1,44,88.2,43.4z M96.3,50.2L96.3,50.2L96.3,50.2
	c-0.1-2.8,0.5-5.7-1.1-8.4c-1-1.8-2.1-3.6-2.5-5.6c-0.1-0.4-0.3-0.7-0.7-0.3c-0.9,1-1.9,1.9-1.7,3.5C90.9,43.7,93.5,47,96.3,50.2z
	 M97.4,49.8c0,0.9,0.3,1.7,0.5,2.5c0.1,0.3,0.1,0.7,0.5,0.8c0.4,0.1,0.5-0.3,0.7-0.6c1.7-2.5,4.1-4.3,6.8-5.8
	c1.6-0.8,3.1-1.9,4.2-3.3c2.1-2.8,1.6-4-0.3-6.6c-0.3-0.3-0.6-0.7-0.8,0c-1,3.3-3.5,5.3-6.5,7c-1.4,0.8-2.6,1.9-3.6,3
	C98.1,47.8,97.5,48.8,97.4,49.8z M112,42.6c-2.4,3.1-2.6,3.3-5.9,5.2c-2.1,1.2-4,2.6-5.4,4.4c-1,1.2-2.1,2.4-1.1,4.2
	c1.1,2,0.9,2,2.5,0.3c0.1-0.1,0.3-0.3,0.4-0.4c1.7-2.1,4.1-3.4,6-5.3C110.7,48.6,112.2,46.1,112,42.6z M97.4,47
	c1.6-1.9,3.6-3.4,5.7-4.7c2.5-1.5,4.2-3.5,5-6.2c0.3-1.2-0.5-1.7-1.3-2.2c-0.8-0.5-0.8,0.5-1.2,0.8c-0.6,0.4-1.1,1-1.7,1.4
	c-1,0.7-2,1.5-2.7,2.4C99.1,41,97.4,43.7,97.4,47z M96.9,43.4c0.5-0.8,0.7-1.5,1.2-2c0.6-0.8,0.7-1.7,0.4-2.7
	c-0.6-2-1.8-3.7-2.5-5.7c-0.1-0.3-0.2-0.4-0.5-0.2c-1.2,0.5-2,2-1.7,3.3C94.3,38.6,95.9,40.8,96.9,43.4z M98.3,56.2
	c-0.2-1-0.8-1.9-1.2-2.7c-2.3-4.2-6.3-7.4-7.5-12.2C88,45.1,93.3,54.2,98.3,56.2z M99.4,38.2c1.8-3.3,2-6.6,1.1-10
	c-0.2-0.7-0.5-0.5-0.8-0.1c-0.9,1-1.7,2-2.6,3c-0.4,0.4-0.4,0.8-0.2,1.3C97.8,34.4,98.6,36.3,99.4,38.2z M101.5,36.8
	c1.4-1,2.7-1.8,3.6-3c0.3-0.4,0.6-0.9,0.2-1.3c-1-1.2-2.2-2.3-3.3-3.4c0,1.4,0,2.6,0,3.8C102.1,34.2,101.7,35.3,101.5,36.8z
	 M98.5,56.7L98.5,56.7L98.5,56.7L98.5,56.7z"/>
<path class="st0" d="M98.8,69c-0.1,3.2-2.1,6.3-5.2,8.8c-2.7,2.1-5.1,4.4-7,7.1c-0.2,0.3-0.4,0.9-0.8,0.2c-1.7-2.7-4.4-4.5-6.5-6.8
	c-2-2.2-3.9-4.5-4.7-7.4c-1.3-4.6,0-8.5,3.5-11.7c2.8-2.6,5.8-5,7.6-8.3c0.3-0.5,0.5-0.4,0.8,0c2.7,3.5,6.2,6.4,9.2,9.6
	C97.8,62.7,98.8,65.3,98.8,69z M84.2,78.4c1.1-1.4,2-2.8,3.3-3.8c1.3-1.1,2.6-2,4.1-2.8c0.9-0.5,1.8-1,2.6-1.7c3.3-2.9,3.9-5,1.4-8
	c-0.2-0.2-0.3-0.6-0.6-0.5c-0.4,0-0.3,0.4-0.4,0.6c-1,2.8-3,4.8-5.6,6.3c-1.1,0.7-2.2,1.4-3.2,2.3C83,73.1,82.6,74.8,84.2,78.4z
	 M97.6,67.8c-1.4,2.2-3.4,3.7-5.7,4.9c-2.1,1.1-3.9,2.5-5.4,4.3c-1.4,1.6-2.3,3.2-0.8,5.1c0.1,0.1,0.1,0.3,0.2,0.4
	c0.3,0.9,0.6,0.8,1.1,0.1c1.6-2,3.4-3.7,5.5-5.2c1.3-0.9,2.5-2.1,3.4-3.4C97.1,72.1,98,70.1,97.6,67.8z M83,72.3
	c1.7-2.3,3.7-3.7,5.8-4.9c1.2-0.7,2.3-1.7,3.2-2.8c0.9-1.1,1.5-2.3,1.7-3.7c0.1-1-0.6-1.6-1.3-1.9c-0.6-0.3-0.8,0.5-1.1,0.9
	c-0.6,0.6-1.2,1.2-1.9,1.7c-2.5,1.8-4.3,4.2-5.5,6.9C83.3,69.4,83,70.6,83,72.3z M81.9,74.8c-0.1-2.5,0.6-5-0.7-7.4
	c-1.1-2-2.2-4-2.7-6.2c-0.1-0.3-0.3-0.7-0.6-0.3c-0.8,0.9-1.8,1.7-1.7,3C76.4,68.3,78.7,71.7,81.9,74.8z M84,81.4
	c0.1-0.2,0-0.4-0.1-0.5c-1.2-2.9-3.1-5.5-5.1-7.9c-1.4-1.7-2.5-3.6-3.1-5.7c-0.1-0.4-0.1-0.8-0.5-1.2C73.7,71,78.6,77.3,84,81.4z
	 M82.7,68c0.6-1.4,2.1-2.4,1.6-4.1c-0.6-2.1-1.9-3.8-2.6-5.8c-0.1-0.2-0.2-0.3-0.5-0.3c-0.6,0.1-2,1.9-1.9,2.5
	C79.7,63.1,81.4,65.5,82.7,68z M85.2,63.3c0.2-0.2,0.3-0.2,0.4-0.3c1.3-3.2,1.6-6.4,0.7-9.7c-0.2-0.7-0.5-0.5-0.9-0.1
	c-0.8,1-1.6,1.9-2.4,2.8c-0.4,0.4-0.5,0.9-0.3,1.4C83.2,59.5,84.5,61.2,85.2,63.3z M87.2,61.9c1.3-1.1,2.7-1.9,3.6-3.1
	c0.3-0.4,0.6-0.9,0.2-1.4c-1-1.1-2.1-2.1-3.2-3.2c0,1.3-0.1,2.6,0,3.8C87.8,59.2,87.4,60.4,87.2,61.9z"/>
<path class="st0" d="M113.1,141.9c0,5.7-2.5,8.8-6,11.5c-2.4,1.9-4.6,3.9-6.2,6.4c-0.4,0.7-0.7,0.8-1.2,0c-0.8-1.4-2-2.4-3.1-3.5
	c-2.5-2.3-5-4.7-6.7-7.7c-2.5-4.4-2.1-9.4,1.1-13c0.8-0.9,1.7-1.7,2.6-2.5c2.4-2.2,4.7-4.3,6.3-7.1c0.3-0.6,0.6-0.5,1,0
	c2.4,3,5.2,5.7,8.1,8.3C111.4,136.8,113.1,139.6,113.1,141.9z M98.5,153.3c0.2-0.2,0.4-0.4,0.5-0.5c1.8-2.7,4.2-4.6,7.1-6.1
	c1-0.5,2-1.2,2.8-1.9c2.9-2.4,3.2-5,1-7.8c-0.2-0.2-0.3-0.5-0.7-0.5c-0.3,0-0.3,0.3-0.4,0.5c-0.9,2.9-3,4.9-5.7,6.4
	c-1.6,0.9-3.1,2-4.3,3.4C97.2,148.9,97,150.8,98.5,153.3z M112,142.5c-1.7,3-4.3,4.4-7,5.9c-2.3,1.4-4.2,3.2-5.5,5.5
	c-0.2,0.4-0.5,0.8-0.3,1.3c0.4,1,0.9,2.1,1.4,3.3c1.8-2.4,3.8-4.3,6.1-6c1.5-1.1,2.8-2.5,3.8-4C111.6,146.8,112.2,144.9,112,142.5z
	 M97.3,147.3c1.7-2.1,3.5-3.5,5.5-4.8c2.4-1.4,4.3-3.3,5.1-6c0.4-1.1-0.1-1.9-0.9-2.5c-0.4-0.3-0.6-0.3-0.9,0.1
	c-0.7,1.1-1.8,1.8-2.8,2.6c-2.5,1.9-4.1,4.3-5.3,7C97.5,144.8,97.3,145.9,97.3,147.3z M96.2,150c0-2.9,0.5-5.7-1.1-8.2
	c-1-1.7-2-3.5-2.4-5.5c-0.1-0.3-0.2-0.6-0.7-0.3c-0.9,0.6-1.8,2.4-1.7,3.5C90.9,143.5,93.1,146.8,96.2,150z M97,143.1
	c0.7-1.5,2.2-2.6,1.5-4.6c-0.7-1.8-1.8-3.5-2.4-5.4c-0.1-0.2-0.1-0.4-0.4-0.3c-0.6,0.1-2.1,1.9-2,2.6C94,138.1,95.7,140.5,97,143.1z
	 M98.4,156.6c0.1-0.3-0.1-0.5-0.2-0.8c-1.3-2.9-3.1-5.5-5.2-8c-1.5-1.7-2.5-3.7-3.1-5.8c-0.1-0.3,0-0.7-0.4-0.9
	C88.1,145.1,91.7,151.3,98.4,156.6z M100.3,127.6c-1.2,1.3-2.2,2.5-3.3,3.6c-0.2,0.3-0.3,0.6-0.2,0.9c0.6,2.1,1.9,4,2.8,6.1
	C101.2,134.8,101.5,131.3,100.3,127.6z M101.9,129.3c0.4,2.4,0.3,4.8-0.4,7.5c1.4-0.9,2.6-1.7,3.5-2.8c0.5-0.6,0.9-1.3,0.1-2
	C104,131.1,102.9,130.3,101.9,129.3z"/>
<path class="st0" d="M74,168c0-3.9,1.6-6.7,4.3-9c2.8-2.4,5.6-4.9,7.4-8.1c0.3-0.5,0.5-0.4,0.8,0c2.7,3.6,6.2,6.4,9.3,9.7
	c4.2,4.4,4,10.9-0.2,15.4c-1,1-2,2-3.2,2.8c-2.2,1.6-4.1,3.6-5.6,5.8c-0.6,0.9-1,0.9-1.5,0c-1-1.7-2.7-2.8-4.1-4.2
	c-1.9-1.9-3.8-3.7-5.2-6C74.7,172.3,73.9,170.1,74,168z M83.9,181.4c0.2,0.1,0.2,0,0.2-0.1c-0.6-2-1.9-3.7-3.1-5.5
	c-1.3-2-3.1-3.6-4.2-5.7c-0.7-1.3-1-2.7-1.6-4c-0.3,1.3-0.3,2.6,0,3.8C76.5,174.9,80.2,178.2,83.9,181.4z M84.2,178.3
	c0.3-0.3,0.4-0.5,0.6-0.6c1.7-2.5,4-4.3,6.7-5.8c1-0.5,2-1.1,2.8-1.8c3.4-3,3.7-5.1,1.3-8c-0.3-0.4-0.6-0.8-0.9,0
	c-1,2.9-3.1,4.9-5.8,6.5c-1.2,0.7-2.4,1.5-3.3,2.5C82.7,173.9,82.7,174.8,84.2,178.3z M97.6,167.8c-1.4,2.2-3.4,3.7-5.7,4.9
	c-2.8,1.5-5.2,3.5-6.8,6.2c-0.2,0.4-0.5,0.8-0.3,1.2c0.4,1.1,0.9,2.1,1.5,3.3c1.6-1.9,3-3.7,4.9-5.1c1.2-0.8,2.3-1.7,3.2-2.7
	C96.5,173.4,97.9,170.9,97.6,167.8z M83.2,171.9c1-1.3,2.2-2.3,3.5-3.2c1.1-0.8,2.2-1.4,3.3-2.1c2-1.4,3.3-3.2,3.9-5.6
	c0.3-1.1-0.6-1.6-1.3-2.1c-0.7-0.5-0.9,0.5-1.2,0.8c-0.6,0.7-1.3,1.2-2,1.7c-2.5,1.8-4.2,4.1-5.4,6.8
	C83.3,169.4,83.1,170.6,83.2,171.9z M82,175.1c0-1.5-0.1-2.8,0-3.9c0.1-0.9-0.1-1.6-0.4-2.4c-1-2.6-2.7-4.9-3.3-7.6
	c-0.1-0.3-0.2-0.5-0.6-0.3c-0.7,0.4-1.8,2.4-1.7,3.2C76.5,168.4,78.8,171.7,82,175.1z M82.7,168c0.5-1.3,1.9-2.1,1.7-3.7
	c-0.4-2.3-1.9-4.2-2.6-6.3c-0.1-0.2-0.3-0.3-0.6-0.2c-1.2,0.5-1.9,1.9-1.7,3.2C79.9,163.5,81.6,165.6,82.7,168z M85.3,163.5
	c1.6-3.6,1.8-6.9,0.9-10.3c-0.2-0.7-0.5-0.5-0.8-0.1c-0.8,0.9-1.5,1.9-2.4,2.7c-0.5,0.6-0.7,1.1-0.4,1.8
	C83.5,159.5,84.3,161.4,85.3,163.5z M87.6,153.9c0.4,2.8,0.3,5.3-0.3,7.7c1.3-0.9,2.6-1.7,3.5-2.9c0.4-0.5,0.6-1,0.2-1.5
	C89.9,156.2,88.9,155.2,87.6,153.9z"/>
<path class="st0" d="M80.6,106.6c1.4-0.7,2.1-2,3.2-3.1c0.7-0.8,1.5-1.6,1.8-2.6c0.2-0.6,0.6-0.4,0.9,0c2.7,3.5,6.1,6.3,9.2,9.5
	c4.4,4.5,4.3,11,0,15.5c-1,1.1-2.1,2-3.3,2.9c-2.3,1.6-4.1,3.7-5.6,6c-0.4,0.7-0.7,0.8-1.2,0c-1.2-2-3.2-3.4-4.8-5
	c-1.7-1.6-3.3-3.3-4.5-5.3c-2.8-4.5-2.9-9.1,0.2-13.5c0.4-0.4,0.8-0.7,1-1.2c0,0,0,0,0,0C78.5,108.8,79.8,108,80.6,106.6z
	 M89.6,106.2c0-0.4-0.2-0.6-0.6-0.8c-0.3-0.5-0.9-0.7-1-1.3c-0.1-0.2-0.3-0.3-0.5-0.2c-0.2,0.1-0.2,0.3-0.1,0.5
	c0.5,0.8,0.3,1.7,0.3,2.5c0.1,1.6-0.2,3.1-0.4,4.7c1.1-0.7,2.1-1.4,2.9-2.2C91.7,108.1,91.5,107.2,89.6,106.2z M84.2,128.4
	c1.1-1.7,2.4-3.1,3.9-4.4c1.8-1.6,4.1-2.5,6.1-3.9c3.2-2.4,3.8-5.4,1.5-8.1c-0.2-0.2-0.3-0.5-0.7-0.5c-0.4,0-0.3,0.4-0.4,0.6
	c-0.9,2.6-2.7,4.5-5.1,5.9c-1.4,0.8-2.7,1.7-3.9,2.8C83,123.1,82.6,125.2,84.2,128.4z M97.6,117.5c-1.5,2.7-3.8,4.1-6.3,5.5
	c-2.5,1.4-4.5,3.2-6,5.5c-0.3,0.5-0.8,1.1-0.5,1.7c0.4,1,0.9,2,1.4,3.1c0.3-0.3,0.6-0.6,0.7-0.8c1.4-2,3.3-3.5,5.2-5
	c2.1-1.6,3.8-3.4,4.8-5.8C97.6,120.6,97.9,119.2,97.6,117.5z M83.1,122c1.6-2,3.7-3.4,6-4.8c1-0.6,1.9-1.4,2.7-2.3
	c1-1.2,1.7-2.5,2-4c0.2-1.1-0.5-1.7-1.3-2.1c-0.7-0.4-0.8,0.6-1.2,0.9c-0.7,0.5-1.3,1.1-1.9,1.7c-0.9,0.7-1.8,1.4-2.5,2.3
	C84.8,116.1,83.1,118.7,83.1,122z M81.9,124.8c-0.3-2.2,0.6-4.4-0.4-6.6c-1.1-2.3-2.5-4.5-3.1-7.1c-0.1-0.3-0.2-0.5-0.6-0.2
	c-0.8,0.5-1.8,2.4-1.7,3.4C76.5,118.5,78.8,121.8,81.9,124.8z M75.3,116.1c-1.4,5.4,3.3,11.1,8.8,15.4c0-0.6-0.2-1.1-0.5-1.6
	c-0.9-1.6-1.8-3.1-2.9-4.5C78.5,122.5,76,119.8,75.3,116.1z M82.6,118.3c0.4-0.7,0.6-1.2,0.9-1.6c1-1.2,1-2.5,0.3-3.9
	c-0.7-1.5-1.4-3-2.1-4.5c-0.1-0.3-0.2-0.6-0.7-0.4c-1,0.3-2,1.9-1.7,2.9C79.9,113.4,81.6,115.7,82.6,118.3z M85.3,113.5
	c1.7-3.7,1.8-7.3,0.6-11.1c-1,1.4-1.9,2.5-3,3.6c-0.4,0.4-0.6,1-0.4,1.5C83.4,109.4,84.3,111.4,85.3,113.5z"/>
<path class="st0" d="M62.5,100.7c-1.4-2.1-2.6-4.2-2.8-6.7c-0.4-4.3,1.4-7.7,4.8-10.5c2.6-2.2,5-4.5,6.7-7.4c0.4-0.6,0.6-0.6,1-0.1
	c2.4,3.2,5.5,5.9,8.4,8.7c4.9,4.7,5.1,11,0.6,16c-0.8,0.9-1.7,1.6-2.4,2.5c0,0.1-0.1,0.2-0.1,0.3c-0.4,0-0.6,0.1-0.8,0.4
	c-1.6,0.8-2.6,2.3-3.8,3.5c-0.1,0.1-0.1,0.2-0.2,0.3c-0.7,0.5-1.1,1.2-1.5,1.9c-0.4,0.3-0.4,0.8-0.9,0.9c-0.3-0.9-0.9-1.7-1.6-2.4
	C67.4,105.8,64.8,103.4,62.5,100.7z M71,104L71,104c-0.7,0.6-0.5,1.2-0.2,1.9c0.2,0.5,0.5,1,0.7,1.5c0.3,1,0.6,0.9,1.3,0.2
	c1.5-1.8,3.2-3.4,5.1-4.8c2.7-2,4.9-4.5,5.6-7.8c0.1-0.7,0.3-1.3-0.1-2.2c-1.6,2.8-4.2,4.2-6.8,5.7c-2.2,1.3-4.1,3-5.5,5.2
	C71,103.7,71,103.9,71,104z M82.8,90.2c0-1.2-0.8-2.1-1.5-3.1c-0.2-0.2-0.3-0.6-0.7-0.6c-0.3,0.1-0.3,0.4-0.4,0.7
	c-0.7,2.1-2,3.8-3.9,5.1c-1.1,0.8-2.2,1.4-3.3,2.2c-3.8,2.5-4.7,4.6-3.6,8c0.1,0.3,0,0.7,0.4,0.7c0.3,0,0.4-0.3,0.6-0.6
	c1.8-2.6,4.2-4.5,7.1-6c1.2-0.6,2.3-1.4,3.3-2.4C82,93.1,82.7,91.8,82.8,90.2z M68.7,97.2c0.7-0.7,1.2-1.1,1.6-1.6
	c1.5-1.7,3.6-2.7,5.4-4c2-1.5,3.4-3.3,3.9-5.7c0.2-1-0.7-1.3-1.2-1.9c-0.2-0.2-0.5-0.3-0.7,0c-1.3,1.9-3.5,2.9-5,4.6
	C70.6,91,68.9,93.6,68.7,97.2z M64,85.4c-1.5,1.4-2.7,2.7-2,4.8c0.4,1.2,0.7,2.5,1.2,3.7c1,2.3,2.9,4.1,4.5,6.1
	c0.1-1.3,0.1-2.5,0.1-3.7c0-0.8,0-1.6-0.3-2.4C66.4,91.1,64.5,88.6,64,85.4z M69.7,106.7c0.3-0.5,0.1-0.8,0-1
	c-1.2-2.6-2.8-5.1-4.8-7.3c-1.4-1.6-2.5-3.4-3.2-5.4c-0.2-0.6-0.4-1.2-0.6-1.8c-0.5,1.7-0.4,3.4,0.2,5.1
	C62.9,100.5,66.4,103.4,69.7,106.7z M68.3,93.2c1.9-2,2.3-4.1,0.9-6.4c-0.7-1.1-1.1-2.3-1.6-3.4c-0.1-0.3-0.2-0.6-0.7-0.4
	c-1.1,0.4-2,1.8-1.7,2.9C65.7,88.4,67.2,90.7,68.3,93.2z M71,88.5c1.6-3.5,1.8-6.7,0.9-10.1c-0.1-0.2-0.2-0.5-0.3-0.6
	c-0.3-0.1-0.5,0.2-0.6,0.4c-0.8,0.9-1.5,1.9-2.3,2.7c-0.5,0.5-0.6,1-0.3,1.6C69.2,84.5,70.1,86.4,71,88.5z M73.6,79.2
	c0,2.3,0,4.5-0.5,6.7c0,0.2-0.1,0.4,0.1,0.5c0.1,0,0.3,0,0.4-0.1c1-0.8,2.1-1.5,2.9-2.5c0.3-0.4,0.6-0.9,0.1-1.4
	C75.7,81.3,74.6,80.3,73.6,79.2z"/>
</svg>
