<?xml version="1.0" encoding="utf-8"?>
<!-- Generator: Adobe Illustrator 21.0.0, SVG Export Plug-In . SVG Version: 6.00 Build 0)  -->
<svg version="1.1" id="Capa_1" xmlns="http://www.w3.org/2000/svg" xmlns:xlink="http://www.w3.org/1999/xlink" x="0px" y="0px"
	 viewBox="0 0 500 500" style="enable-background:new 0 0 500 500;" xml:space="preserve">
<style type="text/css">
	.st0{fill:#FEFEFE;}
</style>
<path class="st0" d="M448.1,231.7c7,20.2,10.5,42,10.5,64.8C458.7,410,365.8,502,251,502c-115,0-207.8-92-207.8-205.5
	c0-35.6,9.1-69.3,25.5-98.3c-11.3,24.9-17.5,52.3-17.5,81.1c0,110.1,90.1,199.4,201.6,199.4c111.1,0,201.6-89.3,201.6-199.4
	C454.2,263.1,452,247.3,448.1,231.7z"/>
<path class="st0" d="M349.5,77.8c-10.5,0-23.3-0.4-31.7-1.6c-5.1-1-9.9-1.8-15.2-2.7c-1,0-0.4,1.2,1.2,1.8
	c5.6,1.6,11.5,2.7,16.9,3.9c7,0.6,17.3,1.2,28.8,1.2l0,0.2c7.2,0,14.8-0.4,22.8-1c7.2-0.4,24.5-2.3,24.5-2.3s-9.9-0.6-27.4,0
	c-3.1,0.2-10.5,0.6-19.7,0.6 M291.7,43.6c7.6,0,13.2-5.8,13.2-12.6c0-7.2-5.6-13-13.2-13H290c0,0-7.8,2.7-10.1,7
	c1.6-1.6,3.9-2.7,6.4-2.7c2.1,0,4.3,1,5.6,2.3h-0.2c1.6,1.6,2.1,3.3,2.1,5.4s-0.6,3.9-2.1,5.4h0.2c-1.6,1.6-3.7,2.3-5.6,2.3
	c-3.3,0-6-1.8-7.6-4.5c1.2,6,6.6,10.3,13.2,10.3l0,0 M349.7,1.6h-0.2c1.6,0,3.1,0.4,4.5,0.6c13.8,2.5,23.9,17.3,26.7,27.6
	c3.3,12.6,9.7,21.4,14.6,25.5c9.7,8.4,5.8,23.3-5.8,28.2c-7.6,3.1-25.7,9.7-29.6,15.2c4.9,8.4,57.8,67.1,67.7,87.2
	c11.3,16.7,19.1,38.5,24.1,57.8c2.3,6.4,3.3,11.5,3.7,15.4v1.6c-0.6,8.6-6.4,6-11.5-18.5c-5.4-10.5-4.9-8.2-11.9-22
	c3.1,10.9-0.6,11.9-6,11.1c-11.3-1.2-20.2-12.5-19.1-28.8c1.8-22.8-28.9-56.5-56.3-72l-3.1-1.9c-10.3-6-18.1-7.4-25.3-6.8
	c-8.8-0.4-17.5-1-28.6-1.2H290c-36.4-1.2-75.5-1.2-75.5,5.4c0,4.5-9.1,15.2,6.4,27.2c14.2,10.9,26.1,20.8,43,27.8
	c8.2,4.5,16.1,7.8,26.3,10.9l2.4,0.6c0,0,31.4,7.6,40.9,11.5c7,5.1,9.3,14.6,1,21.2c-8.2,4.3-25.1-6.4-35.6-10.3
	c-2.7-1.2-5.4-2.3-7-3.1l-1.8-1.8c-2.1-1-1.5,0.6,1.1,2.7l0.9,0.8c0,0,8.7,6.6,19.8,15.4c20.8,16,31.2,21.1,36.7,26.6
	c0,0,4.6,5.5,5.2,8.2c0.8,5.3-0.4,12.5-4.3,16.1l-0.7,0.6c-3.7,3.3-8.6,3.7-17.2-2.2c-11.7-8.8-27.8-23-39.9-34.4l-0.6-0.6
	c-9.9-9.3-16.5-15.9-16.5-15.9c2.9,22,11.1,39.7,17.5,53.3l0.3,0.4c0,0,6.3,13.2,7.7,18.3c3.3,11.3-1.4,18.3-8,21
	c-4.3,1.8-9.7,1.8-13.6-0.2c-8.2-3.9-10.5-13.6-12.5-32.1c-2.3-22-22.4-46.9-26.9-53.5c-4.9-3.3-4.9,43.6-9.1,52.9
	c-4.3,8.8-16.9,7-23.5,3.3c-6.4-3.7-12.1-14.8-1.6-27.6c8.6-16.9,9.9-59.7-4.9-76.9c-14.6-16.9-25.1-36.6-26.9-47.9
	c-2.3-15.2-0.4-19.3,2.7-23.3c-4.3,5.8-26.7,19.1-45.7,8.8c-3.3,5.4-11.9,16.3,2.7,17.5c15.4,3.9,37.2,16.3,38.7,25.1
	c2.1,9.1-14.8,18.7-22.4,9.1c-9.7-11.9-15.4-18.5-25.7-20.8c1,3.1,1.2,5.4,3.3,8.8c5.1,11.5,16.7,18.5,19.7,26.9
	c5.1,10.3-6.6,20.6-16.7,19.1c-9.9-1.2-13-8.6-12.5-18.5c0.6-9.9-8.2-25.3-12.1-27.8c-1.8,3.1-1,9.1-1,14.8c0,8.6,9.3,23.9,6.4,35.4
	c-2.1,7.8-14.2,13-19.5,7.8c-5.4-5.4,0-17.9-2.1-31.7c-1-5.8-3.9-15.8-4.9-17.5c-1.2,2.1-4.5,12.5-4.3,23.3
	c0,14.2,3.9,21.2-2.1,30.5c-3.7,6-11.1,8.8-15.8,0c-4.5-8.6,2.7-33.1,5.3-42.6c9.1-34.8,16.5-65.8,55.3-99.2
	c6.4-10.7,12.1-17.5,23.9-16.7c8.2,0.4,9.9,6,11.9,7.6c0,0,4.9-26.7,58.4-27.8c18.1-0.2,27.4,1.2,31.1-1.8
	c5.8-1.8,14.6-6.6,18.5-11.3c0,0,5.8-24.9,14.2-30.2C283.3,2,285.3,0,290,0l1.8,0l0,0c6.4-0.2,14,3.1,21.4,14.6
	c1.8,0,10.3-0.4,15.2-1c0,0,7.2-12.1,21.2-12.1"/>
</svg>
