<?xml version="1.0" encoding="utf-8"?>
<!-- Generator: Adobe Illustrator 21.0.0, SVG Export Plug-In . SVG Version: 6.00 Build 0)  -->
<svg version="1.1" id="Capa_1" xmlns="http://www.w3.org/2000/svg" xmlns:xlink="http://www.w3.org/1999/xlink" x="0px" y="0px"
	 viewBox="0 0 500 500" style="enable-background:new 0 0 500 500;" xml:space="preserve">
<style type="text/css">
	.st0{fill:#028071;}
	.st1{fill:#FEFEFE;}
</style>
<circle class="st0" cx="250" cy="250" r="250"/>
<g>
	<path class="st1" d="M414.9,233.9c5.9,16.9,8.8,35.2,8.8,54.2C423.7,383,346.1,460,250,460c-96.2,0-173.9-77-173.9-171.9
		c0-29.8,7.7-58,21.3-82.2c-9.4,20.8-14.7,43.8-14.7,67.9c0,92.1,75.4,166.9,168.6,166.9c93,0,168.6-74.7,168.6-166.9
		C420,260.1,418.2,246.9,414.9,233.9z"/>
	<path class="st1" d="M332.4,41.3c1.3,0,2.6,0.3,3.7,0.5c11.6,2.1,20,14.5,22.3,23.1c2.8,10.6,8.1,17.9,12.2,21.3
		c8.1,7,4.9,19.5-4.9,23.6c-6.3,2.6-21.5,8.1-24.7,12.7c4.1,7,48.3,56.2,56.7,72.9c9.4,14,16,32.2,20.2,48.3c2,5.4,2.8,9.6,3.1,12.9
		v1.3c-0.5,7.2-5.4,5-9.6-15.5c-4.6-8.8-4.1-6.8-9.9-18.4c2.6,9.1-0.5,9.9-5,9.3c-9.4-1-16.9-10.4-16-24.1c1.5-19-25.1-46.9-48-59.9
		v-42c6,0,12.4-0.3,19-0.8c6-0.3,20.5-2,20.5-2s-8.3-0.5-23,0c-2.6,0.2-8.8,0.5-16.4,0.5V41.3H332.4z M332.4,254.4v19.7
		c3.3-3.1,4.2-9.1,3.6-13.5C335.5,258.3,334.5,256.5,332.4,254.4z M284.1,40c5.4-0.2,11.7,2.6,17.9,12.2c1.5,0,8.6-0.3,12.7-0.8
		c0,0,6-10.1,17.7-10.1v63.8c-8.8,0-19.5-0.3-26.5-1.3c-4.2-0.8-8.3-1.5-12.7-2.3c-0.8,0-0.3,1,1,1.5c4.7,1.3,9.6,2.3,14.2,3.3
		c5.9,0.5,14.5,1,24.1,1v41.8c-8.6-5-16.8-7.8-22.8-7.3c-7.3-0.3-16.3-0.8-25.6-1V76.5c6.3,0,11.1-4.9,11.1-10.6
		c0-6-4.7-10.9-11.1-10.9V40L284.1,40z M284.1,200.5c13.3,4.1,27,6.8,35,10.1c5.9,4.2,7.8,12.2,0.8,17.7c-6.8,3.6-21-5.4-29.8-8.6
		c-2.3-1-4.6-2-5.9-2.6v-16.6H284.1z M284.1,218.3V244c10.1,9.6,23.6,21.5,33.4,28.8c7.2,4.9,11.9,4.1,15,1.3v-19.7
		c-4.6-4.6-14-9.6-31.4-23C291.7,224.1,286.3,220.1,284.1,218.3L284.1,218.3z M284.1,274.7c2.9,6.3,5.9,11.4,7,15.6
		c2.8,9.4-1.5,15.1-7,17.4V274.7L284.1,274.7z M284.1,69.6c1.3-1.3,1.8-2.8,1.8-4.6c0-1.8-0.5-3.3-1.8-4.6V69.6z M142.6,110.2
		c5.4-9,10.1-14.7,20-14c6.8,0.3,8.3,5,9.9,6.3c0,0,4.1-22.3,48.8-23.3c15.1-0.2,23,1,26-1.5c4.9-1.5,12.2-5.5,15.5-9.4
		c0,0,4.9-20.8,11.9-25.2c2.3-1.5,5.5-3.1,9.4-3.1v15l0,0c-4.4,0-8.1,2.3-10.1,5.9c1.3-1.3,3.3-2.3,5.4-2.3c1.8,0,3.6,0.8,4.7,2v9.1
		c-1.3,1.3-3.1,2-4.7,2c-2.8,0-5-1.5-6.3-3.7c1,5,5.5,8.6,11.1,8.6l0,0v64.3c-30.4-1-64.8-1-64.8,4.6c0,3.7-7.7,12.7,5.4,22.8
		c11.9,9.1,21.8,17.4,36,23.3c6.8,3.7,15.1,6.5,23.6,9.1v16.8c-1.8-0.8-2.1-0.8,0,1V244c-8.3-7.8-14.7-13.8-14.7-13.8
		c2.4,18.4,9.3,33.2,14.7,44.6V308c-3.6,1.5-8.1,1.5-11.4-0.2c-6.8-3.3-8.8-11.4-10.4-26.9c-2-18.4-18.7-39.2-22.5-44.8
		c-4.1-2.8-4.1,36.5-7.7,44.3c-3.6,7.3-14.2,5.9-19.7,2.8c-5.4-3.1-10.1-12.4-1.3-23.1c7.2-14.2,8.3-50-4.1-64.3
		c-12.2-14.2-21-30.6-22.5-40c-2-12.7-0.3-16.1,2.3-19.5c-3.6,4.9-22.3,16-38.3,7.3c-2.8,4.6-9.9,13.7,2.3,14.7
		c12.9,3.3,31.1,13.7,32.4,21c1.8,7.7-12.4,15.6-18.7,7.7c-8.1-9.9-12.9-15.5-21.5-17.4c0.8,2.6,1,4.6,2.8,7.3
		c4.2,9.6,14,15.5,16.4,22.5c4.2,8.6-5.5,17.3-14,16c-8.3-1-10.9-7.2-10.4-15.5s-6.8-21.2-10.1-23.3c-1.5,2.6-0.8,7.7-0.8,12.4
		c0,7.2,7.8,20,5.4,29.6c-1.8,6.5-11.9,10.9-16.3,6.5c-4.6-4.6,0-15-1.8-26.5c-0.8-4.9-3.3-13.2-4.1-14.7c-1,1.8-3.7,10.4-3.6,19.5
		c0,11.9,3.3,17.7-1.8,25.6c-3.1,5-9.3,7.3-13.2,0c-3.7-7.2,2.3-27.7,4.4-35.7C104,164.1,110.2,138.2,142.6,110.2z"/>
</g>
</svg>
