<?xml version="1.0" encoding="utf-8"?>
<!-- Generator: Adobe Illustrator 21.0.0, SVG Export Plug-In . SVG Version: 6.00 Build 0)  -->
<svg version="1.1" id="Capa_1" xmlns="http://www.w3.org/2000/svg" xmlns:xlink="http://www.w3.org/1999/xlink" x="0px" y="0px"
	 viewBox="0 0 500 180" style="enable-background:new 0 0 500 180;" xml:space="preserve">
<style type="text/css">
	.st0{fill:#FFFFFF;}
</style>
<g>
	<path class="st0" d="M404.3,116.7h-41.3V53.1h41.3v6.6h-32.7v20.5h30.7v6.5h-30.7v23.4h32.7V116.7z"/>
	<path class="st0" d="M466.7,84.3l16.7-31.2h7.9l-20.9,38.3v24.2H463V91.7l-20.8-38.6h8L466.7,84.3z"/>
	<path class="st0" d="M91.8,115L78.4,86H35.3l-13.2,29H9.5L52,23.4h10.5l42.3,91.6H91.8z M74.5,76.4L62,48.2c-1.6-3.6-3.3-8-5-13.2
		c-1.1,4-2.6,8.4-4.6,13.2L39.7,76.4H74.5z"/>
	<path class="st0" d="M145.8,116.1h-7.3V59.6h-20v-6.5h47.3v6.5h-20V116.1z"/>
	<path class="st0" d="M245.5,115.6l-10.2-19.7h-32.8l-10.1,19.7h-9.6l32.4-62.3h8l32.2,62.3H245.5z M232.3,89.3l-9.5-19.2
		c-1.2-2.4-2.5-5.4-3.8-9c-0.8,2.7-2,5.7-3.5,9l-9.6,19.2H232.3z"/>
	<path class="st0" d="M277.4,53.2h23.4c11,0,18.9,1.2,23.8,3.7c4.9,2.5,7.4,6.4,7.4,11.8c0,3.7-1.4,6.8-4.1,9.2
		c-2.7,2.4-6.7,4-12,4.7v0.4c12.6,1.6,18.8,6.7,18.8,15.1c0,5.6-2.5,10-7.5,13.2c-5,3.2-12,4.7-21,4.7h-28.8V53.2z M287,80.2h15.8
		c6.8,0,11.7-0.8,14.6-2.4c3-1.6,4.5-4.4,4.5-8.2c0-3.5-1.7-6.1-5-7.6c-3.3-1.6-8.6-2.3-15.8-2.3H287V80.2z M287,86.4v23.5h17.2
		c6.7,0,11.7-1,15.1-2.9c3.4-2,5.1-5,5.1-9.2c0-3.9-1.7-6.8-5.2-8.6c-3.4-1.8-8.7-2.8-15.8-2.8H287z"/>
	<g>
		<path class="st0" d="M26,133.4c-1.3-0.9-2.9-1.4-4.8-1.4c-1.6,0-2.9,0.3-4,0.9c-1.1,0.6-2,1.4-2.8,2.4c-0.7,1-1.3,2.1-1.6,3.4
			c-0.3,1.3-0.5,2.6-0.5,4c0,1.5,0.2,2.9,0.5,4.3c0.3,1.3,0.9,2.5,1.6,3.5c0.7,1,1.7,1.8,2.8,2.4c1.1,0.6,2.5,0.9,4.1,0.9
			c1.2,0,2.2-0.2,3.1-0.6s1.7-0.9,2.3-1.6c0.7-0.7,1.2-1.5,1.5-2.4c0.4-0.9,0.6-1.9,0.7-3h3.5c-0.3,3.3-1.5,5.9-3.4,7.7
			c-1.9,1.8-4.6,2.8-8,2.8c-2,0-3.8-0.3-5.3-1.1c-1.5-0.7-2.8-1.7-3.8-2.9c-1-1.2-1.8-2.7-2.3-4.4c-0.5-1.7-0.8-3.5-0.8-5.4
			s0.3-3.7,0.8-5.4c0.5-1.7,1.3-3.2,2.4-4.4c1-1.3,2.3-2.2,3.9-3c1.6-0.7,3.4-1.1,5.4-1.1c1.4,0,2.7,0.2,3.9,0.6
			c1.2,0.4,2.3,0.9,3.3,1.6c1,0.7,1.8,1.6,2.4,2.7c0.6,1.1,1.1,2.3,1.3,3.7h-3.5C28.2,135.7,27.3,134.3,26,133.4z"/>
		<path class="st0" d="M55.9,154.8c-1.4,1.1-3.2,1.6-5.4,1.6c-1.5,0-2.8-0.2-4-0.7c-1.1-0.5-2.1-1.2-2.8-2.1
			c-0.8-0.9-1.3-1.9-1.7-3.2c-0.4-1.2-0.6-2.6-0.6-4c0-1.4,0.2-2.8,0.7-4c0.4-1.2,1.1-2.3,1.9-3.1s1.7-1.6,2.8-2.1
			c1.1-0.5,2.3-0.7,3.6-0.7c1.7,0,3.1,0.4,4.2,1.1c1.1,0.7,2,1.6,2.7,2.7c0.7,1.1,1.1,2.3,1.4,3.5c0.3,1.3,0.4,2.5,0.3,3.7H44.7
			c0,0.8,0.1,1.6,0.3,2.4c0.2,0.8,0.6,1.4,1.1,2c0.5,0.6,1.1,1,1.9,1.4c0.8,0.3,1.7,0.5,2.7,0.5c1.3,0,2.4-0.3,3.3-0.9
			c0.8-0.6,1.4-1.5,1.7-2.8h3.1C58.3,152.1,57.3,153.7,55.9,154.8z M55.2,142.5c-0.3-0.7-0.7-1.2-1.1-1.7c-0.5-0.5-1-0.9-1.7-1.1
			c-0.7-0.3-1.4-0.4-2.2-0.4c-0.8,0-1.5,0.1-2.2,0.4c-0.7,0.3-1.2,0.7-1.7,1.2c-0.5,0.5-0.8,1.1-1.1,1.7c-0.3,0.7-0.4,1.3-0.5,2.1
			h11C55.6,143.9,55.4,143.2,55.2,142.5z"/>
		<path class="st0" d="M71.4,136.9v3h0.1c1.3-2.3,3.4-3.5,6.2-3.5c1.3,0,2.3,0.2,3.1,0.5c0.8,0.3,1.5,0.8,2,1.4
			c0.5,0.6,0.9,1.3,1.1,2.2c0.2,0.8,0.3,1.8,0.3,2.8V156h-3.1v-12.9c0-1.2-0.3-2.1-1-2.8c-0.7-0.7-1.6-1-2.8-1c-1,0-1.8,0.1-2.5,0.4
			c-0.7,0.3-1.3,0.7-1.8,1.3c-0.5,0.5-0.8,1.2-1.1,1.9c-0.2,0.7-0.4,1.5-0.4,2.4V156h-3.1v-19.1H71.4z"/>
		<path class="st0" d="M103.3,136.9v2.8h-3.8v11.8c0,0.4,0,0.7,0.1,0.9c0.1,0.2,0.2,0.4,0.4,0.5c0.2,0.1,0.4,0.2,0.7,0.2
			c0.3,0,0.7,0.1,1.2,0.1h1.4v2.8h-2.4c-0.8,0-1.5-0.1-2.1-0.2c-0.6-0.1-1-0.3-1.4-0.6c-0.4-0.3-0.6-0.7-0.8-1.3
			c-0.2-0.5-0.3-1.3-0.3-2.1v-12.1h-3.2v-2.8h3.2v-5.7h3.1v5.7H103.3z"/>
		<path class="st0" d="M115.9,136.9v4h0.1c0.8-1.5,1.7-2.7,2.8-3.4c1.1-0.7,2.5-1.1,4.2-1v3.3c-1.3,0-2.3,0.2-3.2,0.5
			c-0.9,0.3-1.6,0.8-2.1,1.5c-0.5,0.7-0.9,1.5-1.2,2.4c-0.2,0.9-0.4,2-0.4,3.3v8.5h-3.1v-19.1H115.9z"/>
		<path class="st0" d="M130.5,142.6c0.4-1.2,1-2.3,1.8-3.2c0.8-0.9,1.8-1.6,2.9-2.1c1.2-0.5,2.5-0.8,4-0.8c1.5,0,2.9,0.3,4,0.8
			c1.1,0.5,2.1,1.2,2.9,2.1c0.8,0.9,1.4,2,1.8,3.2c0.4,1.2,0.6,2.5,0.6,3.9s-0.2,2.7-0.6,3.9c-0.4,1.2-1,2.3-1.8,3.2
			c-0.8,0.9-1.8,1.6-2.9,2.1c-1.1,0.5-2.5,0.8-4,0.8c-1.5,0-2.8-0.3-4-0.8c-1.2-0.5-2.1-1.2-2.9-2.1c-0.8-0.9-1.4-1.9-1.8-3.2
			c-0.4-1.2-0.6-2.5-0.6-3.9S130.1,143.8,130.5,142.6z M133.6,149.6c0.3,0.9,0.7,1.6,1.3,2.3c0.5,0.6,1.2,1.1,1.9,1.4
			c0.7,0.3,1.5,0.5,2.3,0.5c0.8,0,1.6-0.2,2.3-0.5c0.7-0.3,1.4-0.8,1.9-1.4c0.5-0.6,1-1.4,1.3-2.3c0.3-0.9,0.5-1.9,0.5-3.1
			s-0.2-2.2-0.5-3.1c-0.3-0.9-0.7-1.7-1.3-2.3c-0.5-0.6-1.2-1.1-1.9-1.4c-0.7-0.3-1.5-0.5-2.3-0.5c-0.8,0-1.6,0.2-2.3,0.5
			c-0.7,0.3-1.4,0.8-1.9,1.4c-0.5,0.6-1,1.4-1.3,2.3c-0.3,0.9-0.5,1.9-0.5,3.1S133.3,148.7,133.6,149.6z"/>
		<path class="st0" d="M188.7,156v-2.6h-0.1c-0.5,1.1-1.3,1.8-2.4,2.3c-1.1,0.5-2.3,0.7-3.7,0.7c-1.5,0-2.8-0.3-3.9-0.8
			c-1.1-0.5-2-1.3-2.7-2.2c-0.7-0.9-1.3-2-1.6-3.2c-0.4-1.2-0.6-2.5-0.6-3.8c0-1.4,0.2-2.6,0.5-3.8c0.4-1.2,0.9-2.3,1.6-3.2
			c0.7-0.9,1.6-1.6,2.7-2.1c1.1-0.5,2.4-0.8,3.8-0.8c0.5,0,1,0,1.6,0.1c0.6,0.1,1.1,0.3,1.7,0.5c0.6,0.2,1.1,0.5,1.6,0.9
			c0.5,0.4,0.9,0.9,1.3,1.4h0.1v-9.8h3.1V156H188.7z M177.4,149.2c0.2,0.8,0.6,1.6,1.1,2.3c0.5,0.7,1.1,1.2,1.8,1.6
			c0.8,0.4,1.6,0.6,2.6,0.6c1.1,0,2-0.2,2.7-0.6c0.7-0.4,1.3-1,1.8-1.6c0.5-0.7,0.8-1.4,1-2.3c0.2-0.9,0.3-1.7,0.3-2.6
			c0-0.9-0.1-1.8-0.3-2.7c-0.2-0.9-0.6-1.6-1.1-2.3c-0.5-0.7-1.1-1.2-1.9-1.6c-0.8-0.4-1.7-0.6-2.8-0.6c-1.1,0-2,0.2-2.7,0.6
			c-0.7,0.4-1.3,1-1.8,1.7c-0.4,0.7-0.8,1.5-1,2.4c-0.2,0.9-0.3,1.8-0.3,2.7C177.1,147.5,177.2,148.4,177.4,149.2z"/>
		<path class="st0" d="M216.4,154.8c-1.4,1.1-3.2,1.6-5.4,1.6c-1.5,0-2.8-0.2-4-0.7c-1.1-0.5-2.1-1.2-2.8-2.1s-1.3-1.9-1.7-3.2
			c-0.4-1.2-0.6-2.6-0.6-4c0-1.4,0.2-2.8,0.7-4c0.4-1.2,1.1-2.3,1.9-3.1c0.8-0.9,1.7-1.6,2.8-2.1c1.1-0.5,2.3-0.7,3.6-0.7
			c1.7,0,3.1,0.4,4.2,1.1c1.1,0.7,2,1.6,2.7,2.7c0.7,1.1,1.1,2.3,1.4,3.5c0.3,1.3,0.4,2.5,0.3,3.7h-14.3c0,0.8,0.1,1.6,0.3,2.4
			c0.2,0.8,0.6,1.4,1.1,2c0.5,0.6,1.1,1,1.9,1.4c0.8,0.3,1.7,0.5,2.7,0.5c1.3,0,2.4-0.3,3.3-0.9c0.8-0.6,1.4-1.5,1.7-2.8h3.1
			C218.8,152.1,217.8,153.7,216.4,154.8z M215.7,142.5c-0.3-0.7-0.7-1.2-1.1-1.7c-0.5-0.5-1-0.9-1.7-1.1c-0.7-0.3-1.4-0.4-2.2-0.4
			c-0.8,0-1.5,0.1-2.2,0.4c-0.7,0.3-1.2,0.7-1.7,1.2c-0.5,0.5-0.8,1.1-1.1,1.7c-0.3,0.7-0.4,1.3-0.5,2.1h11
			C216.1,143.9,215.9,143.2,215.7,142.5z"/>
		<path class="st0" d="M249.6,129.7V156h-3.5v-26.3H249.6z"/>
		<path class="st0" d="M264.2,136.9v3h0.1c1.3-2.3,3.4-3.5,6.2-3.5c1.3,0,2.3,0.2,3.1,0.5c0.8,0.3,1.5,0.8,2,1.4
			c0.5,0.6,0.9,1.3,1.1,2.2c0.2,0.8,0.3,1.8,0.3,2.8V156h-3.1v-12.9c0-1.2-0.3-2.1-1-2.8c-0.7-0.7-1.6-1-2.8-1c-1,0-1.8,0.1-2.5,0.4
			c-0.7,0.3-1.3,0.7-1.8,1.3c-0.5,0.5-0.8,1.2-1.1,1.9c-0.2,0.7-0.4,1.5-0.4,2.4V156h-3.1v-19.1H264.2z"/>
		<path class="st0" d="M290.9,136.9v3h0.1c1.3-2.3,3.4-3.5,6.2-3.5c1.3,0,2.3,0.2,3.1,0.5c0.8,0.3,1.5,0.8,2,1.4
			c0.5,0.6,0.9,1.3,1.1,2.2c0.2,0.8,0.3,1.8,0.3,2.8V156h-3.1v-12.9c0-1.2-0.3-2.1-1-2.8c-0.7-0.7-1.6-1-2.8-1c-1,0-1.8,0.1-2.5,0.4
			c-0.7,0.3-1.3,0.7-1.8,1.3c-0.5,0.5-0.8,1.2-1.1,1.9c-0.2,0.7-0.4,1.5-0.4,2.4V156H288v-19.1H290.9z"/>
		<path class="st0" d="M314.3,142.6c0.4-1.2,1-2.3,1.8-3.2c0.8-0.9,1.8-1.6,2.9-2.1c1.2-0.5,2.5-0.8,4-0.8c1.5,0,2.9,0.3,4,0.8
			c1.1,0.5,2.1,1.2,2.9,2.1c0.8,0.9,1.4,2,1.8,3.2c0.4,1.2,0.6,2.5,0.6,3.9s-0.2,2.7-0.6,3.9c-0.4,1.2-1,2.3-1.8,3.2
			c-0.8,0.9-1.8,1.6-2.9,2.1c-1.1,0.5-2.5,0.8-4,0.8c-1.5,0-2.8-0.3-4-0.8c-1.2-0.5-2.1-1.2-2.9-2.1c-0.8-0.9-1.4-1.9-1.8-3.2
			c-0.4-1.2-0.6-2.5-0.6-3.9S313.9,143.8,314.3,142.6z M317.5,149.6c0.3,0.9,0.7,1.6,1.3,2.3c0.5,0.6,1.2,1.1,1.9,1.4
			c0.7,0.3,1.5,0.5,2.3,0.5s1.6-0.2,2.3-0.5c0.7-0.3,1.4-0.8,1.9-1.4c0.5-0.6,1-1.4,1.3-2.3c0.3-0.9,0.5-1.9,0.5-3.1
			s-0.2-2.2-0.5-3.1c-0.3-0.9-0.7-1.7-1.3-2.3c-0.5-0.6-1.2-1.1-1.9-1.4c-0.7-0.3-1.5-0.5-2.3-0.5s-1.6,0.2-2.3,0.5
			c-0.7,0.3-1.4,0.8-1.9,1.4c-0.5,0.6-1,1.4-1.3,2.3c-0.3,0.9-0.5,1.9-0.5,3.1S317.2,148.7,317.5,149.6z"/>
		<path class="st0" d="M347.4,156l-7.1-19.1h3.5l5.3,15.9h0.1l5.2-15.9h3.3l-7,19.1H347.4z"/>
		<path class="st0" d="M383.7,155.9c-0.5,0.3-1.3,0.5-2.2,0.5c-0.8,0-1.5-0.2-1.9-0.7c-0.5-0.5-0.7-1.2-0.7-2.2
			c-0.9,1-1.9,1.8-3,2.2c-1.1,0.5-2.4,0.7-3.7,0.7c-0.9,0-1.7-0.1-2.5-0.3c-0.8-0.2-1.4-0.5-2-0.9c-0.6-0.4-1-1-1.3-1.6
			c-0.3-0.7-0.5-1.5-0.5-2.5c0-1.1,0.2-2,0.6-2.7c0.4-0.7,0.9-1.2,1.5-1.7c0.6-0.4,1.3-0.8,2.1-1c0.8-0.2,1.6-0.4,2.4-0.6
			c0.9-0.2,1.7-0.3,2.5-0.4c0.8-0.1,1.5-0.2,2-0.4c0.6-0.2,1.1-0.4,1.4-0.7s0.5-0.8,0.5-1.3c0-0.7-0.1-1.2-0.4-1.7
			c-0.3-0.4-0.6-0.7-1-1c-0.4-0.2-0.9-0.4-1.4-0.4c-0.5-0.1-1-0.1-1.5-0.1c-1.3,0-2.4,0.3-3.3,0.8c-0.9,0.5-1.4,1.5-1.4,2.9h-3.1
			c0-1.2,0.3-2.2,0.7-3c0.4-0.8,1-1.5,1.8-2c0.7-0.5,1.6-0.9,2.5-1.1c0.9-0.2,2-0.3,3-0.3c0.9,0,1.7,0.1,2.6,0.2
			c0.8,0.1,1.6,0.4,2.3,0.8c0.7,0.4,1.2,0.9,1.7,1.6c0.4,0.7,0.6,1.6,0.6,2.7v9.8c0,0.7,0,1.3,0.1,1.6c0.1,0.3,0.4,0.5,0.9,0.5
			c0.3,0,0.6,0,1-0.1V155.9z M378.6,146.2c-0.4,0.3-0.9,0.5-1.5,0.6c-0.6,0.1-1.3,0.2-2,0.3c-0.7,0.1-1.4,0.2-2.1,0.3
			c-0.7,0.1-1.4,0.3-1.9,0.5c-0.6,0.2-1,0.6-1.4,1c-0.4,0.5-0.5,1.1-0.5,1.9c0,0.5,0.1,0.9,0.3,1.3c0.2,0.4,0.5,0.6,0.8,0.9
			c0.3,0.2,0.7,0.4,1.2,0.5c0.4,0.1,0.9,0.1,1.4,0.1c1,0,1.9-0.1,2.7-0.4c0.7-0.3,1.3-0.6,1.8-1.1c0.5-0.4,0.8-0.9,1-1.4
			c0.2-0.5,0.3-1,0.3-1.4V146.2z"/>
		<path class="st0" d="M404.2,140.3c-0.8-0.7-1.8-1-3.2-1c-1.1,0-2.1,0.2-2.8,0.6c-0.8,0.4-1.4,1-1.8,1.7s-0.8,1.5-1,2.4
			c-0.2,0.9-0.3,1.8-0.3,2.8c0,0.9,0.1,1.7,0.3,2.6c0.2,0.8,0.5,1.6,1,2.2c0.4,0.7,1,1.2,1.7,1.6c0.7,0.4,1.6,0.6,2.5,0.6
			c1.5,0,2.8-0.4,3.6-1.2c0.9-0.8,1.4-2,1.6-3.4h3.2c-0.3,2.4-1.2,4.2-2.6,5.5c-1.4,1.3-3.3,1.9-5.8,1.9c-1.5,0-2.7-0.2-3.9-0.7
			c-1.1-0.5-2.1-1.1-2.8-2c-0.8-0.9-1.3-1.9-1.7-3.1c-0.4-1.2-0.6-2.5-0.6-3.9c0-1.4,0.2-2.8,0.6-4c0.4-1.2,0.9-2.3,1.7-3.2
			c0.7-0.9,1.7-1.6,2.8-2.2c1.1-0.5,2.4-0.8,3.9-0.8c1.1,0,2.1,0.1,3,0.4c0.9,0.3,1.8,0.7,2.5,1.2c0.7,0.5,1.3,1.2,1.8,2
			s0.8,1.8,0.9,2.9h-3.2C405.5,141.9,405,140.9,404.2,140.3z"/>
		<path class="st0" d="M419.1,133.5v-3.8h3.1v3.8H419.1z M422.2,136.9V156h-3.1v-19.1H422.2z"/>
		<path class="st0" d="M432.9,142.6c0.4-1.2,1-2.3,1.8-3.2c0.8-0.9,1.8-1.6,2.9-2.1c1.2-0.5,2.5-0.8,4-0.8c1.5,0,2.9,0.3,4,0.8
			c1.1,0.5,2.1,1.2,2.9,2.1c0.8,0.9,1.4,2,1.8,3.2c0.4,1.2,0.6,2.5,0.6,3.9s-0.2,2.7-0.6,3.9c-0.4,1.2-1,2.3-1.8,3.2
			c-0.8,0.9-1.8,1.6-2.9,2.1c-1.1,0.5-2.5,0.8-4,0.8c-1.5,0-2.8-0.3-4-0.8c-1.2-0.5-2.1-1.2-2.9-2.1c-0.8-0.9-1.4-1.9-1.8-3.2
			c-0.4-1.2-0.6-2.5-0.6-3.9S432.5,143.8,432.9,142.6z M436.1,149.6c0.3,0.9,0.7,1.6,1.3,2.3c0.5,0.6,1.2,1.1,1.9,1.4
			c0.7,0.3,1.5,0.5,2.3,0.5c0.8,0,1.6-0.2,2.3-0.5c0.7-0.3,1.4-0.8,1.9-1.4c0.5-0.6,1-1.4,1.3-2.3c0.3-0.9,0.5-1.9,0.5-3.1
			s-0.2-2.2-0.5-3.1c-0.3-0.9-0.7-1.7-1.3-2.3c-0.5-0.6-1.2-1.1-1.9-1.4c-0.7-0.3-1.5-0.5-2.3-0.5c-0.8,0-1.6,0.2-2.3,0.5
			c-0.7,0.3-1.4,0.8-1.9,1.4c-0.5,0.6-1,1.4-1.3,2.3c-0.3,0.9-0.5,1.9-0.5,3.1S435.8,148.7,436.1,149.6z M442.6,127.6l-3.5,6h2.4
			l5.2-6H442.6z"/>
		<path class="st0" d="M463.7,136.9v3h0.1c1.3-2.3,3.4-3.5,6.2-3.5c1.3,0,2.3,0.2,3.1,0.5c0.8,0.3,1.5,0.8,2,1.4
			c0.5,0.6,0.9,1.3,1.1,2.2c0.2,0.8,0.3,1.8,0.3,2.8V156h-3.1v-12.9c0-1.2-0.3-2.1-1-2.8c-0.7-0.7-1.6-1-2.8-1c-1,0-1.8,0.1-2.5,0.4
			c-0.7,0.3-1.3,0.7-1.8,1.3c-0.5,0.5-0.8,1.2-1.1,1.9c-0.2,0.7-0.4,1.5-0.4,2.4V156h-3.1v-19.1H463.7z"/>
	</g>
</g>
</svg>
