<?xml version="1.0" encoding="utf-8"?>
<!-- Generator: Adobe Illustrator 21.0.0, SVG Export Plug-In . SVG Version: 6.00 Build 0)  -->
<svg version="1.1" id="Capa_1" xmlns="http://www.w3.org/2000/svg" xmlns:xlink="http://www.w3.org/1999/xlink" x="0px" y="0px"
	 viewBox="0 0 500 500" style="enable-background:new 0 0 500 500;" xml:space="preserve">
<style type="text/css">
	.st0{fill:#028071;}
	.st1{fill:#FEFEFE;}
	.st2{fill:#FFFFFF;}
</style>
<circle class="st0" cx="250" cy="250" r="250"/>
<path class="st1" d="M351.3,137.1c3.6,10.4,5.4,21.6,5.4,33.3C356.7,228.7,309,276,250,276c-59.1,0-106.8-47.3-106.8-105.6
	c0-18.3,4.7-35.6,13.1-50.5c-5.8,12.8-9,26.9-9,41.7c0,56.6,46.3,102.5,103.6,102.5c57.1,0,103.6-45.9,103.6-102.5
	C354.4,153.2,353.3,145.1,351.3,137.1z"/>
<path class="st1" d="M300.6,58c-5.4,0-12-0.2-16.3-0.8c-2.6-0.5-5.1-0.9-7.8-1.4c-0.5,0-0.2,0.6,0.6,0.9c2.9,0.8,5.9,1.4,8.7,2
	c3.6,0.3,8.9,0.6,14.8,0.6l0,0.1c3.7,0,7.6-0.2,11.7-0.5c3.7-0.2,12.6-1.2,12.6-1.2s-5.1-0.3-14.1,0c-1.6,0.1-5.4,0.3-10.1,0.3
	 M270.9,40.4c3.9,0,6.8-3,6.8-6.5c0-3.7-2.9-6.7-6.8-6.7H270c0,0-4,1.4-5.2,3.6c0.8-0.8,2-1.4,3.3-1.4c1.1,0,2.2,0.5,2.9,1.2h-0.1
	c0.8,0.8,1.1,1.7,1.1,2.8s-0.3,2-1.1,2.8h0.1c-0.8,0.8-1.9,1.2-2.9,1.2c-1.7,0-3.1-0.9-3.9-2.3C264.8,38.2,267.6,40.4,270.9,40.4
	L270.9,40.4 M300.7,18.8L300.7,18.8c0.7,0,1.5,0.2,2.2,0.3c7.1,1.3,12.3,8.9,13.7,14.2c1.7,6.5,5,11,7.5,13.1c5,4.3,3,12-3,14.5
	c-3.9,1.6-13.2,5-15.2,7.8c2.5,4.3,29.7,34.5,34.8,44.8c5.8,8.6,9.8,19.8,12.4,29.7c1.2,3.3,1.7,5.9,1.9,7.9v0.8
	c-0.3,4.4-3.3,3.1-5.9-9.5c-2.8-5.4-2.5-4.2-6.1-11.3c1.6,5.6-0.3,6.1-3.1,5.7c-5.8-0.6-10.4-6.4-9.8-14.8c0.9-11.7-14.8-29-28.9-37
	l-1.6-1c-5.3-3.1-9.3-3.8-13-3.5c-4.5-0.2-9-0.5-14.7-0.6H270c-18.7-0.6-38.8-0.6-38.8,2.8c0,2.3-4.7,7.8,3.3,14
	c7.3,5.6,13.4,10.7,22.1,14.3c4.2,2.3,8.3,4,13.5,5.6l1.3,0.3c0,0,16.1,3.9,21,5.9c3.6,2.6,4.8,7.5,0.5,10.9
	c-4.2,2.2-12.9-3.3-18.3-5.3c-1.4-0.6-2.8-1.2-3.6-1.6l-0.9-0.9c-1.1-0.5-0.7,0.3,0.6,1.4l0.5,0.4c0,0,4.5,3.4,10.2,7.9
	c10.7,8.2,16,10.9,18.8,13.7c0,0,2.4,2.8,2.7,4.2c0.4,2.7-0.2,6.4-2.2,8.3l-0.4,0.3c-1.9,1.7-4.4,1.9-8.8-1.1
	c-6-4.5-14.3-11.8-20.5-17.7l-0.3-0.3c-5.1-4.8-8.5-8.2-8.5-8.2c1.5,11.3,5.7,20.4,9,27.4l0.2,0.2c0,0,3.3,6.8,3.9,9.4
	c1.7,5.8-0.7,9.4-4.1,10.8c-2.2,0.9-5,0.9-7-0.1c-4.2-2-5.4-7-6.4-16.5c-1.2-11.3-11.5-24.1-13.8-27.5c-2.5-1.7-2.5,22.4-4.7,27.2
	c-2.2,4.5-8.7,3.6-12.1,1.7c-3.3-1.9-6.2-7.6-0.8-14.2c4.4-8.7,5.1-30.7-2.5-39.5c-7.5-8.7-12.9-18.8-13.8-24.6
	c-1.2-7.8-0.2-9.9,1.4-12c-2.2,3-13.7,9.8-23.5,4.5c-1.7,2.8-6.1,8.4,1.4,9c7.9,2,19.1,8.4,19.9,12.9c1.1,4.7-7.6,9.6-11.5,4.7
	c-5-6.1-7.9-9.5-13.2-10.7c0.5,1.6,0.6,2.8,1.7,4.5c2.6,5.9,8.6,9.5,10.1,13.8c2.6,5.3-3.4,10.6-8.6,9.8c-5.1-0.6-6.7-4.4-6.4-9.5
	s-4.2-13-6.2-14.3c-0.9,1.6-0.5,4.7-0.5,7.6c0,4.4,4.8,12.3,3.3,18.2c-1.1,4-7.3,6.7-10,4c-2.8-2.8,0-9.2-1.1-16.3
	c-0.5-3-2-8.1-2.5-9c-0.6,1.1-2.3,6.4-2.2,12c0,7.3,2,10.9-1.1,15.7c-1.9,3.1-5.7,4.5-8.1,0c-2.3-4.4,1.4-17,2.7-21.9
	c4.7-17.9,8.5-33.8,28.4-51c3.3-5.5,6.2-9,12.3-8.6c4.2,0.2,5.1,3.1,6.1,3.9c0,0,2.5-13.7,30-14.3c9.3-0.1,14.1,0.6,16-0.9
	c3-0.9,7.5-3.4,9.5-5.8c0,0,3-12.8,7.3-15.5c1.4-0.9,2.4-1.9,4.8-1.9l0.9,0l0,0c3.3-0.1,7.2,1.6,11,7.5c0.9,0,5.3-0.2,7.8-0.5
	c0,0,3.7-6.2,10.9-6.2"/>
<g>
	<path class="st2" d="M364.3,360.3h-30.6v-47.2h30.6v4.9H340v15.2h22.8v4.8H340v17.4h24.3V360.3z"/>
	<path class="st2" d="M410.6,336.3l12.4-23.2h5.8l-15.5,28.4v18h-5.4v-17.7l-15.4-28.6h5.9L410.6,336.3z"/>
	<path class="st2" d="M132.8,359.1l-9.9-21.5h-32l-9.8,21.5h-9.4l31.5-67.9h7.8l31.3,67.9H132.8z M119.9,330.5l-9.3-20.9
		c-1.2-2.7-2.4-5.9-3.7-9.8c-0.8,3-1.9,6.2-3.4,9.8l-9.4,20.9H119.9z"/>
	<path class="st2" d="M172.8,359.9h-5.4V318h-14.8v-4.8h35v4.8h-14.8V359.9z"/>
	<path class="st2" d="M246.7,359.5l-7.6-14.6h-24.3l-7.5,14.6h-7.1l24-46.2h5.9l23.9,46.2H246.7z M236.9,340.1l-7.1-14.3
		c-0.9-1.8-1.9-4-2.8-6.6c-0.6,2-1.5,4.2-2.6,6.6l-7.1,14.3H236.9z"/>
	<path class="st2" d="M270.3,313.3h17.3c8.1,0,14,0.9,17.6,2.8s5.4,4.8,5.4,8.8c0,2.8-1,5-3,6.8s-5,3-8.9,3.5v0.3
		c9.3,1.2,14,4.9,14,11.2c0,4.2-1.9,7.4-5.6,9.8c-3.7,2.3-8.9,3.5-15.5,3.5h-21.4v-46.7H270.3z M277.4,333.3h11.7
		c5,0,8.6-0.6,10.9-1.8c2.2-1.2,3.3-3.2,3.3-6.1c0-2.6-1.2-4.5-3.7-5.7s-6.4-1.7-11.7-1.7h-10.5L277.4,333.3L277.4,333.3z
		 M277.4,337.9v17.4h12.8c4.9,0,8.7-0.7,11.2-2.2s3.8-3.7,3.8-6.8c0-2.9-1.3-5-3.8-6.4c-2.6-1.4-6.4-2-11.7-2H277.4z"/>
	<g>
		<path class="st2" d="M84,372.7c-1-0.7-2.2-1-3.5-1c-1.2,0-2.2,0.2-3,0.7c-0.8,0.4-1.5,1-2.1,1.8c-0.5,0.7-0.9,1.6-1.2,2.5
			c-0.3,0.9-0.4,1.9-0.4,3s0.1,2.2,0.4,3.2s0.7,1.9,1.2,2.6s1.2,1.3,2.1,1.8c0.8,0.4,1.8,0.7,3,0.7c0.9,0,1.6-0.1,2.3-0.4
			s1.2-0.7,1.7-1.2s0.9-1.1,1.1-1.8c0.3-0.7,0.4-1.4,0.5-2.2h2.6c-0.3,2.5-1.1,4.4-2.5,5.7c-1.4,1.4-3.4,2.1-5.9,2.1
			c-1.5,0-2.8-0.3-4-0.8c-1.1-0.5-2.1-1.2-2.8-2.1c-0.7-0.9-1.3-2-1.7-3.2s-0.6-2.6-0.6-4s0.2-2.8,0.6-4s1-2.3,1.8-3.3
			c0.8-0.9,1.7-1.7,2.9-2.2c1.2-0.5,2.5-0.8,4-0.8c1,0,2,0.1,2.9,0.4s1.7,0.7,2.4,1.2c0.7,0.5,1.3,1.2,1.8,2s0.8,1.7,0.9,2.7h-2.6
			C85.6,374.4,85,373.4,84,372.7z"/>
		<path class="st2" d="M106.2,388.6c-1.1,0.8-2.4,1.2-4,1.2c-1.1,0-2.1-0.2-2.9-0.5c-0.8-0.4-1.5-0.9-2.1-1.5
			c-0.6-0.7-1-1.4-1.3-2.4c-0.3-0.9-0.4-1.9-0.5-3c0-1.1,0.2-2.1,0.5-3s0.8-1.7,1.4-2.3c0.6-0.7,1.3-1.2,2.1-1.5
			c0.8-0.4,1.7-0.5,2.7-0.5c1.3,0,2.3,0.3,3.1,0.8c0.8,0.5,1.5,1.2,2,2s0.8,1.7,1,2.6s0.3,1.9,0.2,2.7H97.8c0,0.6,0.1,1.2,0.2,1.8
			c0.2,0.6,0.4,1,0.8,1.5s0.8,0.8,1.4,1c0.6,0.3,1.2,0.4,2,0.4c1,0,1.8-0.2,2.4-0.7s1-1.1,1.2-2.1h2.3
			C107.9,386.6,107.2,387.8,106.2,388.6z M105.6,379.5c-0.2-0.5-0.5-0.9-0.8-1.3c-0.4-0.4-0.8-0.6-1.3-0.8c-0.5-0.2-1-0.3-1.6-0.3
			s-1.1,0.1-1.6,0.3c-0.5,0.2-0.9,0.5-1.2,0.9c-0.3,0.4-0.6,0.8-0.8,1.3c-0.2,0.5-0.3,1-0.4,1.5h8.1
			C105.9,380.5,105.8,380,105.6,379.5z"/>
		<path class="st2" d="M117.6,375.3v2.2h0.1c1-1.7,2.5-2.6,4.6-2.6c0.9,0,1.7,0.1,2.3,0.4c0.6,0.3,1.1,0.6,1.5,1.1s0.7,1,0.8,1.6
			c0.2,0.6,0.2,1.3,0.2,2.1v9.3h-2.3v-9.6c0-0.9-0.3-1.6-0.8-2.1s-1.2-0.8-2.1-0.8c-0.7,0-1.3,0.1-1.8,0.3s-1,0.5-1.3,0.9
			s-0.6,0.9-0.8,1.4c-0.2,0.5-0.3,1.1-0.3,1.8v8h-2.3v-14.1h2.2V375.3z"/>
		<path class="st2" d="M141.3,375.3v2.1h-2.8v8.8c0,0.3,0,0.5,0.1,0.7c0,0.2,0.1,0.3,0.3,0.4c0.1,0.1,0.3,0.2,0.5,0.2s0.5,0,0.9,0
			h1.1v2.1h-1.8c-0.6,0-1.1,0-1.5-0.1s-0.8-0.2-1-0.5c-0.3-0.2-0.5-0.5-0.6-0.9s-0.2-0.9-0.2-1.6v-9h-2.4v-2.1h2.4v-4.2h2.3v4.2h2.7
			V375.3z"/>
		<path class="st2" d="M150.6,375.3v3h0.1c0.6-1.1,1.3-2,2.1-2.5s1.9-0.8,3.1-0.8v2.5c-0.9,0-1.7,0.1-2.4,0.4s-1.2,0.6-1.6,1.1
			c-0.4,0.5-0.7,1.1-0.9,1.8c-0.2,0.7-0.3,1.5-0.3,2.4v6.3h-2.3v-14.1L150.6,375.3L150.6,375.3z"/>
		<path class="st2" d="M161.4,379.5c0.3-0.9,0.7-1.7,1.3-2.4c0.6-0.7,1.3-1.2,2.2-1.6s1.8-0.6,3-0.6c1.1,0,2.1,0.2,3,0.6
			c0.8,0.4,1.6,0.9,2.1,1.6c0.6,0.7,1,1.4,1.3,2.4c0.3,0.9,0.4,1.9,0.4,2.9s-0.1,2-0.4,2.9c-0.3,0.9-0.7,1.7-1.3,2.3
			c-0.6,0.7-1.3,1.2-2.1,1.6s-1.8,0.6-3,0.6c-1.1,0-2.1-0.2-3-0.6s-1.6-0.9-2.2-1.6c-0.6-0.7-1-1.4-1.3-2.3s-0.4-1.9-0.4-2.9
			S161.1,380.4,161.4,379.5z M163.8,384.7c0.2,0.7,0.5,1.2,0.9,1.7c0.4,0.4,0.9,0.8,1.4,1s1.1,0.4,1.7,0.4c0.6,0,1.2-0.1,1.7-0.4
			c0.5-0.2,1-0.6,1.4-1s0.7-1,0.9-1.7s0.3-1.4,0.3-2.3s-0.1-1.6-0.3-2.3c-0.2-0.7-0.5-1.2-0.9-1.7s-0.9-0.8-1.4-1s-1.1-0.4-1.7-0.4
			c-0.6,0-1.2,0.1-1.7,0.4c-0.5,0.2-1,0.6-1.4,1c-0.4,0.5-0.7,1-0.9,1.7s-0.3,1.4-0.3,2.3S163.5,384,163.8,384.7z"/>
		<path class="st2" d="M204.6,389.5v-1.9h-0.1c-0.4,0.8-1,1.3-1.8,1.7s-1.7,0.5-2.7,0.5c-1.1,0-2-0.2-2.9-0.6
			c-0.8-0.4-1.5-0.9-2-1.6s-0.9-1.5-1.2-2.4s-0.4-1.8-0.4-2.8s0.1-2,0.4-2.8c0.3-0.9,0.7-1.7,1.2-2.3c0.5-0.7,1.2-1.2,2-1.6
			s1.8-0.6,2.8-0.6c0.4,0,0.8,0,1.2,0.1s0.8,0.2,1.3,0.4c0.4,0.2,0.8,0.4,1.2,0.7c0.4,0.3,0.7,0.6,0.9,1.1h0.1v-7.3h2.3v19.5h-2.3
			V389.5z M196.2,384.4c0.2,0.6,0.4,1.2,0.8,1.7c0.4,0.5,0.8,0.9,1.4,1.2c0.6,0.3,1.2,0.4,2,0.4s1.4-0.2,2-0.5
			c0.5-0.3,1-0.7,1.3-1.2s0.6-1.1,0.8-1.7s0.2-1.3,0.2-1.9c0-0.7-0.1-1.4-0.2-2c-0.2-0.6-0.4-1.2-0.8-1.7c-0.4-0.5-0.8-0.9-1.4-1.2
			c-0.6-0.3-1.2-0.5-2.1-0.5c-0.8,0-1.4,0.2-2,0.5c-0.5,0.3-1,0.7-1.3,1.2s-0.6,1.1-0.7,1.7c-0.1,0.7-0.2,1.3-0.2,2
			C196,383.2,196,383.8,196.2,384.4z"/>
		<path class="st2" d="M225.1,388.6c-1.1,0.8-2.4,1.2-4,1.2c-1.1,0-2.1-0.2-2.9-0.5c-0.8-0.4-1.5-0.9-2.1-1.5
			c-0.6-0.7-1-1.4-1.3-2.4c-0.3-0.9-0.4-1.9-0.5-3c0-1.1,0.2-2.1,0.5-3s0.8-1.7,1.4-2.3c0.6-0.7,1.3-1.2,2.1-1.5
			c0.8-0.4,1.7-0.5,2.7-0.5c1.3,0,2.3,0.3,3.1,0.8s1.5,1.2,2,2s0.8,1.7,1,2.6s0.3,1.9,0.2,2.7h-10.6c0,0.6,0.1,1.2,0.2,1.8
			c0.2,0.6,0.4,1,0.8,1.5c0.4,0.4,0.8,0.8,1.4,1c0.6,0.3,1.2,0.4,2,0.4c1,0,1.8-0.2,2.4-0.7c0.6-0.5,1-1.1,1.2-2.1h2.3
			C226.8,386.6,226.2,387.8,225.1,388.6z M224.5,379.5c-0.2-0.5-0.5-0.9-0.8-1.3c-0.4-0.4-0.8-0.6-1.3-0.8c-0.5-0.2-1-0.3-1.6-0.3
			s-1.1,0.1-1.6,0.3c-0.5,0.2-0.9,0.5-1.2,0.9s-0.6,0.8-0.8,1.3s-0.3,1-0.4,1.5h8.1C224.9,380.5,224.8,380,224.5,379.5z"/>
		<path class="st2" d="M249.7,369.9v19.5h-2.6v-19.5H249.7z"/>
		<path class="st2" d="M260.5,375.3v2.2h0.1c1-1.7,2.5-2.6,4.6-2.6c0.9,0,1.7,0.1,2.3,0.4c0.6,0.3,1.1,0.6,1.5,1.1s0.7,1,0.8,1.6
			c0.2,0.6,0.2,1.3,0.2,2.1v9.3h-2.3v-9.6c0-0.9-0.3-1.6-0.8-2.1s-1.2-0.8-2.1-0.8c-0.7,0-1.3,0.1-1.8,0.3s-1,0.5-1.3,0.9
			s-0.6,0.9-0.8,1.4c-0.2,0.5-0.3,1.1-0.3,1.8v8h-2.3v-14.1h2.2V375.3z"/>
		<path class="st2" d="M280.3,375.3v2.2h0.1c1-1.7,2.5-2.6,4.6-2.6c0.9,0,1.7,0.1,2.3,0.4c0.6,0.3,1.1,0.6,1.5,1.1s0.7,1,0.8,1.6
			c0.2,0.6,0.2,1.3,0.2,2.1v9.3h-2.3v-9.6c0-0.9-0.3-1.6-0.8-2.1s-1.2-0.8-2.1-0.8c-0.7,0-1.3,0.1-1.8,0.3s-1,0.5-1.3,0.9
			s-0.6,0.9-0.8,1.4c-0.2,0.5-0.3,1.1-0.3,1.8v8h-2.3v-14.1h2.2V375.3z"/>
		<path class="st2" d="M297.6,379.5c0.3-0.9,0.7-1.7,1.3-2.4c0.6-0.7,1.3-1.2,2.2-1.6c0.9-0.4,1.8-0.6,3-0.6c1.1,0,2.1,0.2,3,0.6
			c0.8,0.4,1.6,0.9,2.1,1.6c0.6,0.7,1,1.4,1.3,2.4c0.3,0.9,0.4,1.9,0.4,2.9s-0.1,2-0.4,2.9s-0.7,1.7-1.3,2.3
			c-0.6,0.7-1.3,1.2-2.1,1.6c-0.8,0.4-1.8,0.6-3,0.6c-1.1,0-2.1-0.2-3-0.6s-1.6-0.9-2.2-1.6s-1-1.4-1.3-2.3s-0.4-1.9-0.4-2.9
			S297.3,380.4,297.6,379.5z M300,384.7c0.2,0.7,0.5,1.2,0.9,1.7c0.4,0.4,0.9,0.8,1.4,1s1.1,0.4,1.7,0.4s1.2-0.1,1.7-0.4
			c0.5-0.2,1-0.6,1.4-1s0.7-1,0.9-1.7c0.2-0.7,0.3-1.4,0.3-2.3s-0.1-1.6-0.3-2.3c-0.2-0.7-0.5-1.2-0.9-1.7s-0.9-0.8-1.4-1
			s-1.1-0.4-1.7-0.4s-1.2,0.1-1.7,0.4c-0.5,0.2-1,0.6-1.4,1c-0.4,0.5-0.7,1-0.9,1.7c-0.2,0.7-0.3,1.4-0.3,2.3S299.8,384,300,384.7z"
			/>
		<path class="st2" d="M322.2,389.5l-5.2-14.1h2.6l4,11.8h0.1l3.9-11.8h2.4l-5.2,14.1H322.2z"/>
		<path class="st2" d="M349.1,389.4c-0.4,0.2-1,0.4-1.7,0.4c-0.6,0-1.1-0.2-1.4-0.5c-0.4-0.3-0.5-0.9-0.5-1.7
			c-0.6,0.8-1.4,1.3-2.2,1.7c-0.8,0.3-1.8,0.5-2.7,0.5c-0.6,0-1.2-0.1-1.8-0.2c-0.6-0.1-1.1-0.4-1.5-0.7c-0.4-0.3-0.8-0.7-1-1.2
			s-0.4-1.1-0.4-1.8c0-0.8,0.1-1.5,0.4-2s0.6-0.9,1.1-1.2c0.4-0.3,1-0.6,1.5-0.7c0.6-0.2,1.2-0.3,1.8-0.4c0.6-0.1,1.2-0.2,1.8-0.3
			c0.6-0.1,1.1-0.2,1.5-0.3s0.8-0.3,1-0.5c0.3-0.2,0.4-0.6,0.4-1c0-0.5-0.1-0.9-0.3-1.2c-0.2-0.3-0.4-0.5-0.7-0.7
			c-0.3-0.2-0.6-0.3-1-0.3c-0.4-0.1-0.7-0.1-1.1-0.1c-1,0-1.8,0.2-2.5,0.6s-1,1.1-1.1,2.1h-2.3c0-0.9,0.2-1.6,0.5-2.2
			s0.8-1.1,1.3-1.5s1.2-0.6,1.9-0.8c0.7-0.2,1.5-0.2,2.3-0.2c0.6,0,1.3,0,1.9,0.1s1.2,0.3,1.7,0.6c0.5,0.3,0.9,0.7,1.2,1.2
			c0.3,0.5,0.5,1.2,0.5,2v7.3c0,0.5,0,0.9,0.1,1.2c0.1,0.3,0.3,0.4,0.6,0.4c0.2,0,0.4,0,0.7-0.1L349.1,389.4L349.1,389.4z
			 M345.3,382.2c-0.3,0.2-0.7,0.4-1.1,0.5c-0.5,0.1-1,0.2-1.5,0.2c-0.5,0.1-1,0.1-1.6,0.2c-0.5,0.1-1,0.2-1.4,0.4
			c-0.4,0.2-0.8,0.4-1,0.8c-0.3,0.3-0.4,0.8-0.4,1.4c0,0.4,0.1,0.7,0.2,1c0.2,0.3,0.4,0.5,0.6,0.6c0.2,0.2,0.5,0.3,0.9,0.4
			c0.3,0.1,0.7,0.1,1,0.1c0.8,0,1.4-0.1,2-0.3c0.5-0.2,1-0.5,1.3-0.8s0.6-0.7,0.8-1c0.2-0.4,0.2-0.7,0.2-1V382.2z"/>
		<path class="st2" d="M364.3,377.8c-0.6-0.5-1.4-0.7-2.4-0.7c-0.8,0-1.5,0.2-2.1,0.5s-1,0.7-1.4,1.2c-0.3,0.5-0.6,1.1-0.7,1.8
			c-0.1,0.7-0.2,1.4-0.2,2.1s0.1,1.3,0.2,1.9c0.2,0.6,0.4,1.2,0.7,1.7c0.3,0.5,0.8,0.9,1.3,1.2c0.5,0.3,1.2,0.4,1.9,0.4
			c1.1,0,2-0.3,2.7-0.9c0.6-0.6,1-1.4,1.2-2.5h2.4c-0.3,1.8-0.9,3.1-2,4c-1,0.9-2.5,1.4-4.3,1.4c-1.1,0-2-0.2-2.9-0.5
			c-0.8-0.3-1.5-0.8-2.1-1.5c-0.6-0.6-1-1.4-1.3-2.3s-0.4-1.9-0.4-2.9c0-1.1,0.1-2,0.4-3c0.3-0.9,0.7-1.7,1.2-2.4
			c0.6-0.7,1.3-1.2,2.1-1.6c0.8-0.4,1.8-0.6,2.9-0.6c0.8,0,1.6,0.1,2.3,0.3c0.7,0.2,1.3,0.5,1.9,0.9c0.5,0.4,1,0.9,1.3,1.5
			s0.6,1.3,0.7,2.2h-2.4C365.3,379,364.9,378.3,364.3,377.8z"/>
		<path class="st2" d="M375.3,372.8V370h2.3v2.8H375.3z M377.6,375.3v14.1h-2.3v-14.1H377.6z"/>
		<path class="st2" d="M385.5,379.5c0.3-0.9,0.7-1.7,1.3-2.4c0.6-0.7,1.3-1.2,2.2-1.6c0.9-0.4,1.8-0.6,3-0.6c1.1,0,2.1,0.2,3,0.6
			c0.8,0.4,1.6,0.9,2.1,1.6c0.6,0.7,1,1.4,1.3,2.4c0.3,0.9,0.4,1.9,0.4,2.9s-0.1,2-0.4,2.9s-0.7,1.7-1.3,2.3
			c-0.6,0.7-1.3,1.2-2.1,1.6c-0.8,0.4-1.8,0.6-3,0.6c-1.1,0-2.1-0.2-3-0.6s-1.6-0.9-2.2-1.6s-1-1.4-1.3-2.3s-0.4-1.9-0.4-2.9
			S385.2,380.4,385.5,379.5z M387.9,384.7c0.2,0.7,0.5,1.2,0.9,1.7c0.4,0.4,0.9,0.8,1.4,1s1.1,0.4,1.7,0.4s1.2-0.1,1.7-0.4
			c0.5-0.2,1-0.6,1.4-1s0.7-1,0.9-1.7c0.2-0.7,0.3-1.4,0.3-2.3s-0.1-1.6-0.3-2.3c-0.2-0.7-0.5-1.2-0.9-1.7s-0.9-0.8-1.4-1
			s-1.1-0.4-1.7-0.4s-1.2,0.1-1.7,0.4c-0.5,0.2-1,0.6-1.4,1c-0.4,0.5-0.7,1-0.9,1.7c-0.2,0.7-0.3,1.4-0.3,2.3S387.7,384,387.9,384.7
			z M392.7,368.4l-2.6,4.4h1.8l3.9-4.4H392.7z"/>
		<path class="st2" d="M408.4,375.3v2.2h0.1c1-1.7,2.5-2.6,4.6-2.6c0.9,0,1.7,0.1,2.3,0.4c0.6,0.3,1.1,0.6,1.5,1.1s0.7,1,0.8,1.6
			c0.2,0.6,0.2,1.3,0.2,2.1v9.3h-2.3v-9.6c0-0.9-0.3-1.6-0.8-2.1s-1.2-0.8-2.1-0.8c-0.7,0-1.3,0.1-1.8,0.3s-1,0.5-1.3,0.9
			s-0.6,0.9-0.8,1.4c-0.2,0.5-0.3,1.1-0.3,1.8v8h-2.3v-14.1h2.2V375.3z"/>
	</g>
</g>
</svg>
