<?xml version="1.0" encoding="utf-8"?>
<!-- Generator: Adobe Illustrator 26.0.0, SVG Export Plug-In . SVG Version: 6.00 Build 0)  -->
<svg version="1.1" id="Capa_1" xmlns="http://www.w3.org/2000/svg" xmlns:xlink="http://www.w3.org/1999/xlink" x="0px" y="0px"
	 viewBox="0 0 123 123" style="enable-background:new 0 0 123 123;" xml:space="preserve">
<style type="text/css">
	.st0{fill:#E08709;}
</style>
<g id="icono3" transform="translate(-11.625)">
	<g id="Group_11">
		<g id="Group_10">
			<path id="Path_7" class="st0" d="M73.1,15c-25.7,0-46.5,20.8-46.5,46.5S47.4,108,73.1,108s46.5-20.8,46.5-46.5S98.8,15,73.1,15z
				 M75.1,103.9v-8.2c0.1-1.1-0.8-2.1-1.9-2.1c-1.1-0.1-2.1,0.8-2.1,1.9c0,0.1,0,0.2,0,0.3v8.2c-21.9-1-39.4-18.5-40.4-40.4h8.2
				c1.1,0,2-0.9,2-2c0-1.1-0.9-2-2-2h-8.2c1-21.9,18.5-39.4,40.4-40.4v8.2c0,1.1,0.9,2,2,2s2-0.9,2-2v-8.2
				c21.9,1,39.4,18.5,40.4,40.4h-8.2c-1.1-0.1-2.1,0.8-2.1,1.9c-0.1,1.1,0.8,2.1,1.9,2.1c0.1,0,0.2,0,0.3,0h8.2
				C114.5,85.4,97,102.9,75.1,103.9z"/>
		</g>
	</g>
	<g id="Group_13">
		<g id="Group_12">
			<path id="Path_8" class="st0" d="M94.2,80.1L75.1,60.7V40.6c0.1-1.1-0.8-2.1-1.9-2.1c-1.1-0.1-2.1,0.8-2.1,1.9c0,0.1,0,0.2,0,0.3
				v20.9c0,0.5,0.2,1,0.6,1.4l19.6,19.9c0.8,0.7,2.1,0.7,2.8-0.1C94.8,82,94.8,80.8,94.2,80.1z"/>
		</g>
	</g>
</g>
</svg>
