<?xml version="1.0" encoding="utf-8"?>
<!-- Generator: Adobe Illustrator 26.0.0, SVG Export Plug-In . SVG Version: 6.00 Build 0)  -->
<svg version="1.1" id="Capa_1" xmlns="http://www.w3.org/2000/svg" xmlns:xlink="http://www.w3.org/1999/xlink" x="0px" y="0px"
	 viewBox="0 0 123 123" style="enable-background:new 0 0 123 123;" xml:space="preserve">
<style type="text/css">
	.st0{clip-path:url(#SVGID_00000163783224679796056470000008206288565075505831_);}
	.st1{fill:#FFFFFF;}
	.st2{fill:#E08709;}
</style>
<g>
	<defs>
		<rect id="SVGID_1_" y="15" width="123" height="93"/>
	</defs>
	<clipPath id="SVGID_00000101076403091231617740000004649717292521285025_">
		<use xlink:href="#SVGID_1_"  style="overflow:visible;"/>
	</clipPath>
	<g id="Watch_38mm_1" style="clip-path:url(#SVGID_00000101076403091231617740000004649717292521285025_);">
		<rect y="15" class="st1" width="123" height="93"/>
		<g id="icono1" transform="translate(-1.153)">
			<g id="Group_1" transform="translate(24.153)">
				<path id="Path_1" class="st2" d="M56.1,52.5V33.9c0-10.4-9.2-18.9-20.6-18.9s-20.6,8.5-20.6,18.9v18.6H0V108h72.5V52.5H56.1z
					 M18.1,33.9c0-8.6,7.8-15.7,17.3-15.7s17.3,7,17.3,15.7v18.6H18.1L18.1,33.9z M69.2,104.7H3.3v-6.5h65.9V104.7z M3.3,94.9V55.8
					h65.9v39.2H3.3z"/>
				<path id="Path_2" class="st2" d="M36.3,65.6c-3.6,0-6.6,2.9-6.6,6.5v9.8c0,3.6,2.9,6.6,6.5,6.7c3.6,0,6.6-2.9,6.7-6.5
					c0-0.1,0-0.1,0-0.2v-9.8C42.8,68.5,39.9,65.6,36.3,65.6L36.3,65.6z M39.6,81.9c0,1.8-1.5,3.3-3.3,3.3c-1.8,0-3.3-1.5-3.3-3.3
					c0,0,0,0,0,0v-9.8c0-1.8,1.5-3.3,3.3-3.3s3.3,1.5,3.3,3.3c0,0,0,0,0,0V81.9z"/>
			</g>
		</g>
	</g>
</g>
</svg>
