<?xml version="1.0" encoding="utf-8"?>
<!-- Generator: Adobe Illustrator 26.0.0, SVG Export Plug-In . SVG Version: 6.00 Build 0)  -->
<svg version="1.1" id="Capa_1" xmlns="http://www.w3.org/2000/svg" xmlns:xlink="http://www.w3.org/1999/xlink" x="0px" y="0px"
	 viewBox="0 0 123 123" style="enable-background:new 0 0 123 123;" xml:space="preserve">
<style type="text/css">
	.st0{fill:#E08709;}
</style>
<g id="icono2" transform="translate(-15.872 -14.115)">
	<g id="Group_3" transform="translate(15.88 14.115)">
		<g id="Group_2">
			<path id="Path_3" class="st0" d="M120.8,62.8c-0.2-0.3-0.4-0.6-0.7-0.7h0.1l-77-46.8c-0.6-0.4-1.5-0.4-2.1,0L3,35.7
				c-1,0.5-1.5,1.8-0.9,2.8c0.2,0.3,0.4,0.6,0.8,0.8l77.1,47.9c0.7,0.4,1.5,0.4,2.1,0l38-21.6C121.1,65.1,121.4,63.8,120.8,62.8
				C120.8,62.8,120.8,62.8,120.8,62.8z M81.1,83.1l-73-45.4l33.9-18.2l72.8,44.3L81.1,83.1z"/>
		</g>
	</g>
	<g id="Group_5" transform="translate(15.872 44.728)">
		<g id="Group_4" transform="translate(0 0)">
			<path id="Path_4" class="st0" d="M120.9,42.4c-0.6-1-1.9-1.4-2.9-0.8c0,0,0,0,0,0h0.1l-37,21L5.1,15.3c-1-0.6-2.3-0.4-2.9,0.6
				s-0.4,2.3,0.6,2.9c0,0,0,0,0.1,0l77.1,47.9c0.7,0.4,1.5,0.4,2.1,0l38-21.6C121.1,44.7,121.5,43.4,120.9,42.4z"/>
		</g>
	</g>
	<g id="Group_7" transform="translate(15.872 54.934)">
		<g id="Group_6">
			<path id="Path_5" class="st0" d="M120.4,42.3c-0.5-0.7-1.5-1-2.3-0.7l-37.1,21l-76-47.3c-1-0.6-2.3-0.4-2.9,0.6s-0.4,2.3,0.6,2.9
				c0,0,0,0,0.1,0l77.1,48c0.7,0.4,1.5,0.4,2.1,0l38-21.6C121,44.6,121.2,43.3,120.4,42.3C120.4,42.3,120.4,42.3,120.4,42.3
				L120.4,42.3z"/>
		</g>
	</g>
	<g id="Group_9" transform="translate(63.143 38.316)">
		<g id="Group_8">
			<path id="Path_6" class="st0" d="M26.3,15.8c-0.7-0.9-2-1-2.9-0.3c0,0,0,0,0,0c-0.1,0-0.1,0.1-0.2,0.1l-2.2,2.1
				c-0.7-0.6-1.5-1.2-2.3-1.6c-1.1-0.5-2.4-0.7-3.6-0.6c-1.1,0.1-2.1,0.6-2.9,1.3c-0.8,0.7-1.4,1.7-1.6,2.8c-0.1,1.1,0,2.3,0.4,3.4
				c0.3,0.9,0.7,1.8,1.1,2.6l-4.2,3.8c0-0.1-0.1-0.3-0.1-0.4c-0.2-1,0-2,0.3-3c0.2-0.5,0.3-0.9,0.3-1.4c0-0.5-0.2-0.9-0.5-1.2
				c-0.7-0.9-2.1-1-3-0.3c0,0,0,0-0.1,0.1c-0.7,0.7-1.2,1.5-1.3,2.5c-0.2,1.3-0.1,2.5,0.4,3.7C4,30.3,4.4,31.1,5,31.9L2.6,34
				c-0.9,0.8-1,2.1-0.2,3c0.4,0.5,1,0.7,1.6,0.7l0,0.1c0.5,0,1-0.2,1.4-0.5l2.4-2.1c0.8,0.7,1.7,1.4,2.6,1.9c2.4,1.4,5.5,1,7.5-0.9
				c0.7-0.6,1.2-1.4,1.4-2.3c0.2-1,0.2-2.1-0.1-3.1c-0.4-1.4-0.9-2.7-1.6-4v-0.1l3.5-3.1c0.1,0.6,0.1,1.2,0,1.7
				c-0.1,0.6-0.2,1.3-0.2,1.9c0,0.5,0.2,1,0.6,1.4c0.4,0.5,1,0.8,1.6,0.9c0.6,0,1.1-0.2,1.5-0.5c0.4-0.4,0.8-1,0.9-1.6
				c0.2-0.8,0.2-1.6,0-2.3c-0.2-1-0.5-2-1-2.8c-0.2-0.4-0.5-0.8-0.7-1.2l2.3-2.1C26.9,18,27,16.7,26.3,15.8
				C26.3,15.8,26.3,15.8,26.3,15.8z M13.4,32.9c-0.5,0.4-1.3,0.5-1.9,0.3c-0.4-0.1-0.8-0.3-1.2-0.5l3.5-3.1c0.2,0.4,0.3,0.8,0.4,1.2
				C14.4,31.6,14,32.4,13.4,32.9z M15.5,22.6c-0.1-0.3-0.2-0.7-0.2-1c-0.1-0.6,0.1-1.2,0.5-1.5c0.5-0.4,1.2-0.5,1.8-0.3
				c0.2,0.1,0.4,0.2,0.6,0.3L15.5,22.6z"/>
		</g>
	</g>
</g>
</svg>
