<?xml version="1.0" encoding="utf-8"?>
<!-- Generator: Adobe Illustrator 21.0.0, SVG Export Plug-In . SVG Version: 6.00 Build 0)  -->
<svg version="1.1" id="Capa_1" xmlns="http://www.w3.org/2000/svg" xmlns:xlink="http://www.w3.org/1999/xlink" x="0px" y="0px"
	 viewBox="0 0 100 100" style="enable-background:new 0 0 100 100;" xml:space="preserve">
<style type="text/css">
	.st0{fill:#FFFFFF;}
</style>
<title>5. Call 24 hours</title>
<desc>Created with Sketch.</desc>
<path id="Layer-1" class="st0" d="M37.9,32.5c1.3-3,0.7-7.5-1.5-10.1l-9.6-11.3c-2.1-2.5-5.8-2.7-8.1-0.3l-6.6,6.7
	c-4.1,4.1-2.5,12-0.4,17.3c0,0,2.7,9,23.5,30S65,88.7,65,88.7c5.3,2.1,13.1,3.7,17.2-0.4l6.6-6.7c2.3-2.3,2.2-6-0.3-8.1l-11.2-9.7
	c-2.5-2.2-7-2.8-10-1.5c0,0-8.2,4-10.5,1.7L46.5,53.5L35.9,42.8C33.6,40.4,37.9,32.5,37.9,32.5z"/>
</svg>
