<?xml version="1.0" encoding="utf-8"?>
<!-- Generator: Adobe Illustrator 21.0.0, SVG Export Plug-In . SVG Version: 6.00 Build 0)  -->
<svg version="1.1" id="Capa_1" xmlns="http://www.w3.org/2000/svg" xmlns:xlink="http://www.w3.org/1999/xlink" x="0px" y="0px"
	 viewBox="0 0 200 200" style="enable-background:new 0 0 200 200;" xml:space="preserve">
<style type="text/css">
	.st0{fill:#FDFDFD;}
	.st1{fill:#84DAFE;}
	.st2{fill:#344C60;}
</style>
<circle class="st0" cx="100" cy="100" r="94.3"/>
<path class="st1" d="M0.9,111.4c0-7.1,0-14.2,0-21.2c0.8-0.6,0.8-1.5,0.9-2.4c5.4-41,34.8-74,74.8-84.1c4.2-1.1,8.7-0.9,12.7-2.9
	c7.4,0,14.7,0,22.1,0c1.7,1.5,3.9,1.2,5.8,1.6c40.8,8.4,67.2,32.6,79.1,72.4c1.6,5.3,2.3,10.8,3.5,16.2c0,6.5,0,13,0,19.5
	c-0.3,0.7-0.7,1.3-0.8,2c-5.5,42.3-35.4,75.3-77.1,84.9c-3.5,0.8-7.3,0.6-10.6,2.4c-7.7,0-15.3,0-23,0c-1.4-1.4-3.3-1.2-4.9-1.6
	c-38.6-7.6-64.2-30.1-77.6-66.9C3.5,124.9,3,118,0.9,111.4z M100.4,141.5c15.6,0,31.2,0,46.9,0c13.9,0,24.9-8.1,28.8-21
	c3.7-12.2-1.1-25.1-12.4-32.7c-1.9-1.3-2.3-2.3-1.9-4.6c1.4-9.6-2.5-15.5-12-17.9c-2.1-0.6-3.1-1.8-3.9-3.7
	c-10.4-24.2-38.5-29.8-57.3-11.3c-1.8,1.8-3.1,2-5.4,1.2c-4.2-1.6-8.5-2.4-13-1.6c-15.1,2.8-23.7,13.5-23.3,29
	c0.1,2.6,0.2,4.4-3.2,5.5c-13.3,4.2-22.3,18.1-20.3,30.6c2.5,16.2,13.9,26.4,29.8,26.4C68.8,141.6,84.6,141.5,100.4,141.5z"/>
<path class="st2" d="M90.8,94.7C90.9,87,94.3,78,107,78s17.7,6.3,17.5,17.2c-0.2,9.5-7.6,16.4-17.2,16.3
	C97.6,111.3,90.7,104.4,90.8,94.7z M108.3,84.7c-5.4-0.2-9.8,3.9-10.1,9.5c-0.3,5.9,3.8,10.8,9,11c5.4,0.2,10-4.3,10.2-10
	C117.6,89.7,113.4,84.9,108.3,84.7z"/>
<path class="st2" d="M74.3,111.5c-7.6-0.1-13.7-4.3-15.9-10.7c-2.4-7.1-0.2-14.6,5.5-19c6-4.6,15.7-4.4,21.4,0.4
	c1,0.9,3.3,1.7,1.1,3.6c-1.5,1.2-2.1,4.6-5.3,1.8c-3.2-2.9-7.3-3.3-11.1-1.1c-4,2.3-5.3,6.1-4.7,10.6c1,7.6,8.7,10.6,15.5,6
	c1.3-0.9,2.1-2.1,3.9-0.4c2.7,2.4,2.6,4-0.4,5.8C81.2,110.4,77.9,111.8,74.3,111.5z"/>
<path class="st2" d="M134.7,113.6c2.6,0,4.1,0,5.7,0c1.5,0,2.5,0.3,2.6,2.1c0.1,2.1-1.2,2-2.6,2c-3.1,0-6.2,0.1-9.3,0
	c-1,0-2.6,0.8-3.1-0.8c-0.4-1.4-0.3-2.8,1-4c2.4-2.4,4.8-4.8,7-7.3c1.2-1.3,2.4-2.9,0.9-4.7c-1.6-1.9-3.3-0.8-4.4,0.6
	c-1.5,1.9-2.6,0.3-3.6-0.4c-1.7-1.2,0-2.1,0.7-2.7c2.7-2.7,7.9-2.6,11-0.6c2.6,1.7,2.4,6.1-0.2,9.5
	C138.9,109.2,137.1,110.9,134.7,113.6z"/>
<path class="st0" d="M108.3,84.7c5.2,0.2,9.3,5,9.2,10.5c-0.2,5.7-4.8,10.2-10.2,10c-5.3-0.2-9.3-5.1-9-11
	C98.5,88.6,102.9,84.4,108.3,84.7z"/>
</svg>
