<?xml version="1.0" encoding="utf-8"?>
<!-- Generator: Adobe Illustrator 21.0.0, SVG Export Plug-In . SVG Version: 6.00 Build 0)  -->
<svg version="1.1" id="Capa_1" xmlns="http://www.w3.org/2000/svg" xmlns:xlink="http://www.w3.org/1999/xlink" x="0px" y="0px"
	 viewBox="0 0 200 200" style="enable-background:new 0 0 200 200;" xml:space="preserve">
<style type="text/css">
	.st0{fill:#7FB141;}
	.st1{fill:#7F6057;}
</style>
<path class="st0" d="M92.1,128.7c-1.2-0.4-1.8,0.6-2.5,1.1c-11.3,8.9-27.9,9-39.2,0.1c-4.8-3.8-8.2-8.6-10.3-14.4
	c-0.4-1.1-0.9-2.1-1.9-2.9c-16.1-12.5-17-35.2-2-48.9c1.6-1.5,2.3-2.9,2.1-5.1C37.3,40.1,51.7,25,70.2,25.2c3.3,0,5.3-0.8,7.6-3.1
	c9.5-9.7,22.8-12.1,35.4-6.9c4.8,2,8.8,4.8,11.8,9c0.8,1,1.6,1.3,2.8,1.2c19.6-1.8,35.8,13.9,34.7,33.7c-0.1,1.9,0.4,3.2,1.9,4.5
	c12.2,10.9,14.4,27.9,5.5,41.6c-1.6,2.5-3.5,4.7-5.9,6.5c-1.8,1.3-2.9,3-3.7,5.1c-6.5,17.3-27.9,25.2-44.1,16.4
	c-0.3-0.2-0.6-0.4-1-0.7c0.1-0.8,0.7-1.2,1.2-1.7c2.7-2.6,5.3-5.1,8-7.7c1.3-1.2,1.3-2.3,0.1-3.5c-1.7-1.6-3.3-3.3-5-4.9
	c-1.4-1.4-2.4-1.4-3.8,0c-1.8,1.6-3.2,3.6-5.3,4.9c-0.5,0.3-0.8,1.3-1.5,0.9c-0.6-0.3-0.3-1.2-0.3-1.8c0-8.5,0-16.9,0-25.4
	c0-2.2-0.4-2.6-2.6-2.6c-2.3,0-4.6,0-6.8,0c-2.3,0-2.7,0.4-2.7,2.6c0,3.6,0,7.3,0,10.9c0,0.5,0.3,1.3-0.4,1.6
	c-0.5,0.2-0.9-0.5-1.2-0.8c-2.4-2.5-4.8-5.1-7.3-7.6c-1-1-2.1-1.5-3.2-0.4c-1.6,1.5-3.1,3.1-4.6,4.7c-1.2,1.3-0.9,2.5,0.3,3.7
	c3.7,4,7.4,8,11.2,11.9c0.5,0.6,1,1.1,1,2C92.1,122.4,92.1,125.6,92.1,128.7z"/>
<path class="st1" d="M92.1,128.7c0-3.2,0-6.4,0.1-9.6c0-0.9-0.5-1.4-1-2c-3.7-4-7.4-8-11.2-11.9c-1.2-1.2-1.5-2.4-0.3-3.7
	c1.5-1.6,3-3.2,4.6-4.7c1.2-1.1,2.3-0.6,3.2,0.4c2.4,2.5,4.8,5.1,7.3,7.6c0.3,0.4,0.7,1,1.2,0.8c0.7-0.2,0.4-1,0.4-1.6
	c0-3.6,0-7.3,0-10.9c0-2.2,0.4-2.6,2.7-2.6c2.3,0,4.6,0,6.8,0c2.2,0,2.6,0.4,2.6,2.6c0,8.5,0,16.9,0,25.4c0,0.6-0.3,1.5,0.3,1.8
	c0.7,0.4,1-0.5,1.5-0.9c2-1.4,3.5-3.3,5.3-4.9c1.4-1.3,2.4-1.4,3.8,0c1.7,1.6,3.3,3.3,5,4.9c1.3,1.2,1.2,2.3-0.1,3.5
	c-2.7,2.5-5.4,5.1-8,7.7c-0.5,0.5-1.1,0.9-1.2,1.7c-2.6,1.4-4.4,3.6-6.3,5.7c-0.5,0.5-0.2,1.4-0.2,2.1c0,14.9,0,29.8,0,44.7
	c0,3-0.4,3.4-3.4,3.4c-3.2,0-6.4,0-9.6,0c-3.3,0-3.6-0.3-3.6-3.5c0-17.8,0-35.6,0-53.5C92.1,130.4,92.1,129.6,92.1,128.7z"/>
</svg>
