<?xml version="1.0" encoding="utf-8"?>
<!-- Generator: Adobe Illustrator 21.0.0, SVG Export Plug-In . SVG Version: 6.00 Build 0)  -->
<svg version="1.1" id="Capa_1" xmlns="http://www.w3.org/2000/svg" xmlns:xlink="http://www.w3.org/1999/xlink" x="0px" y="0px"
	 viewBox="0 0 200 200" style="enable-background:new 0 0 200 200;" xml:space="preserve">
<style type="text/css">
	.st0{opacity:0.7;}
	.st1{fill:#606060;}
</style>
<g class="st0">
	<g>
		<path class="st1" d="M113.9,168.8c-0.8-0.1-1.7,0.2-2.4,0.4C99,172,85.2,172,79.4,169c-2.4-1.3-3.3-2.9-2.6-4.8
			c0.1-0.4,0.2-0.7-0.3-1c-7.6-4.2,1.2-11.8,18.3-16.2c1.8-0.5,2.9-0.9,3.7-1.7c6.8-6.1,23.1-10.9,36.3-10.6
			c2.4,0.1,4.1-0.2,6.5-0.9c10.2-3.1,20.3-3.6,27.4-1.7c2.7,0.7,4.6,1.7,5.4,3.1c0.2,0.3,0.7,0.4,1.6,0.4
			c14.5-0.3,21.7,4.9,15.3,11.3c-0.6,0.6-0.6,1,0.1,1.5c6.3,3.6,3.5,9-7.1,13.4c-1.9,0.8-4.1,1.5-6.5,2c-1.8,0.4-3.1,0.9-4.4,1.6
			c-10.2,5.5-30.3,8-40.9,5.1c-0.2-0.1-0.4-0.1-0.6-0.2c0.3-0.3,1-0.4,1.5-0.6c3-0.8,6-1.6,9-2.4c1.4-0.4,1.8-0.7,1.1-1.1
			c-0.9-0.5-1.6-1.1-2.4-1.6c-0.7-0.5-1.5-0.5-3.1,0c-1.9,0.5-3.8,1.1-5.9,1.6c-0.5,0.1-1.1,0.4-1.5,0.3c-0.4-0.1,0.2-0.4,0.4-0.6
			c2.8-2.8,5.6-5.5,8.4-8.3c0.7-0.7,0.6-0.8-1.2-0.9c-1.8,0-3.5,0-5.3-0.1c-1.8,0-2.2,0.1-3,0.8c-1.3,1.2-2.5,2.4-3.8,3.6
			c-0.2,0.2-0.2,0.4-0.8,0.5c-0.5,0.1-0.5-0.2-0.7-0.3c-1-0.8-2-1.7-3.1-2.5c-0.4-0.3-1.1-0.5-2.4-0.2c-1.8,0.5-3.6,1-5.4,1.5
			c-1.5,0.4-1.6,0.8-1.1,1.2c1.6,1.3,3.1,2.7,4.7,4c0.2,0.2,0.4,0.4,0.1,0.7C116.2,166.7,115.1,167.8,113.9,168.8z"/>
		<path class="st1" d="M113.9,168.8c1.1-1,2.3-2.1,3.4-3.1c0.3-0.3,0.1-0.5-0.1-0.7c-1.6-1.3-3.1-2.7-4.7-4
			c-0.5-0.4-0.3-0.8,1.1-1.2c1.8-0.5,3.6-1,5.4-1.5c1.3-0.3,2-0.2,2.4,0.2c1,0.8,2,1.7,3.1,2.5c0.1,0.1,0.2,0.3,0.7,0.3
			c0.6-0.1,0.6-0.3,0.8-0.5c1.3-1.2,2.5-2.4,3.8-3.6c0.8-0.7,1.2-0.8,3-0.8s3.5,0,5.3,0.1c1.7,0,1.9,0.1,1.2,0.9
			c-2.8,2.8-5.6,5.5-8.4,8.3c-0.2,0.2-0.8,0.5-0.4,0.6c0.4,0.1,1-0.2,1.5-0.3c2.1-0.4,3.9-1,5.9-1.6c1.6-0.4,2.4-0.4,3.1,0
			c0.8,0.5,1.6,1.1,2.4,1.6c0.6,0.4,0.2,0.8-1.1,1.1c-3,0.8-6,1.6-9,2.4c-0.6,0.2-1.2,0.3-1.5,0.6c-2.6,0.4-4.8,1.2-7,1.8
			c-0.6,0.2-0.6,0.4-0.9,0.7c-5,4.8-9.9,9.7-14.9,14.5c-1,1-1.5,1.1-4.1,1.1c-2.8,0-5.6,0-8.4,0c-2.9,0-3.1-0.1-1.9-1.2
			c6.2-5.8,12.5-11.6,18.7-17.5C113.4,169.4,113.7,169.1,113.9,168.8z"/>
	</g>
</g>
</svg>
