<?xml version="1.0" encoding="utf-8"?>
<!-- Generator: Adobe Illustrator 26.0.0, SVG Export Plug-In . SVG Version: 6.00 Build 0)  -->
<svg version="1.1" id="Capa_1" xmlns="http://www.w3.org/2000/svg" xmlns:xlink="http://www.w3.org/1999/xlink" x="0px" y="0px"
	 viewBox="0 0 1080 250" style="enable-background:new 0 0 1080 250;" xml:space="preserve">
<style type="text/css">
	.st0{fill:#090A0F;}
	.st1{fill:#B6C4C6;}
	.st2{fill:#DAE2E1;}
	.st3{fill:#A4B5B9;}
</style>
<rect class="st0" width="1080" height="250"/>
<path class="st1" d="M664.1,28.4c25.8,0.2,48.9-12.7,49.7-27.7c0-0.2,0-0.5,0-0.7h-99.2C614.4,15,637.4,28.3,664.1,28.4z"/>
<path class="st2" d="M33,0c485,0,1014,0,1014,0C782.5,299.2,314,291.2,33,0z"/>
<path class="st3" d="M1005.8,0c-6.3,11.6-13.8,23.2-22.5,34.6c-27.8,36.5-66.3,68-114.2,95.3c-47.6,27.2-102.6,47.2-163.7,61.3
	c-68.6,15.7-139.7,21.8-212.2,18.4c-77.9-3.7-151.2-17.9-218.5-42.9C184.1,133,118.1,86.2,73.8,27.5c-1.7-2.2-1-0.6-8.1-14.6
	c0,0,0,0,0,0C63.6,9,61.3,4.6,59,0H0c62.3,143.8,280.5,250,540,250s477.7-106.2,540-250H1005.8z"/>
<path class="st1" d="M341.7,139.8c59.5,35.5,171.8,33.1,225.4-7.6c34-25.8,33-62.5-4-86.7C502.3,5.7,389.1,7,330.9,48.3
	c-30.8,21.8-34.5,52.5-9.3,76.7C323.7,127.1,339.7,138.7,341.7,139.8z"/>
<path class="st1" d="M913.7-0.7c-15,17.8-43.5,45.5-65.7,61.3c-5.7,4.1-5.9,13-7.2,18.6c-5.9,25.9-21.2,46.6-59.5,33.8
	c-94.2,32.7-146,45.3-231.6,38.7c-65.5,31.8-198.2,23.6-237.3-27.3c-2.3-3-136.4-0.4-181.1-109.7c-25.8,28.2-65.7-2.3-65.7-2.3
	C99.8,97.9,184.1,137.3,274.7,171c67.3,25,140.6,34.2,218.5,37.9c72.5,3.5,143.6-2.6,212.2-18.4c61.1-14,116.1-34,163.7-61.3
	c47.8-27.3,86.4-58.8,114.2-95.3c8.7-11.5,16.2-23,22.5-34.6H913.7z"/>
<path class="st1" d="M671,0c36.3,56.7,102,34.8,121,0H671z"/>
<path class="st1" d="M64.7,0c0,0,41.3,28.9,74.9,0H64.7z"/>
<ellipse class="st1" cx="240.3" cy="24.6" rx="23" ry="18.2"/>
<ellipse class="st1" cx="664.3" cy="24.6" rx="29" ry="22.2"/>
<path class="st3" d="M804.6,102c17.1-5.7,25.8-15.4,26.1-27.2c0.3-12.2-6.7-22.9-25.2-29.1c-28.2-9.4-59.9,5.1-59.8,27.2
	c0,2.3-0.3,4.6,0.1,6.9C748.6,97.9,780.1,110,804.6,102z"/>
</svg>
