<?xml version="1.0" encoding="utf-8"?>
<!-- Generator: Adobe Illustrator 21.0.0, SVG Export Plug-In . SVG Version: 6.00 Build 0)  -->
<svg version="1.1" id="Capa_1" focusable="false" xmlns="http://www.w3.org/2000/svg" xmlns:xlink="http://www.w3.org/1999/xlink"
	 x="0px" y="0px" viewBox="0 0 512 512" style="enable-background:new 0 0 512 512;" xml:space="preserve">
<style type="text/css">
	.st0{fill:#FE4918;}
</style>
<path class="st0" d="M496,128v16c0,4.4-3.6,8-8,8h-24v12c0,6.6-5.4,12-12,12H60c-6.6,0-12-5.4-12-12v-12H24c-4.4,0-8-3.6-8-8v-16
	c0-3.2,2-6.2,4.9-7.4l232-88c2-0.8,4.2-0.8,6.1,0l232,88C494,121.8,496,124.8,496,128z M472,432H40c-13.3,0-24,10.7-24,24v16
	c0,4.4,3.6,8,8,8h464c4.4,0,8-3.6,8-8v-16C496,442.7,485.3,432,472,432z M96,192v192H60c-6.6,0-12,5.4-12,12v20h416v-20
	c0-6.6-5.4-12-12-12h-36V192h-64v192h-64V192h-64v192h-64V192H96z"/>
</svg>
