<?xml version="1.0" encoding="utf-8"?>
<!-- Generator: Adobe Illustrator 26.0.0, SVG Export Plug-In . SVG Version: 6.00 Build 0)  -->
<svg version="1.1" id="Capa_1" xmlns="http://www.w3.org/2000/svg" xmlns:xlink="http://www.w3.org/1999/xlink" x="0px" y="0px"
	 viewBox="0 0 500 500" style="enable-background:new 0 0 500 500;" xml:space="preserve">
<style type="text/css">
	.st0{fill:#FFFFFF;}
</style>
<path class="st0" d="M490,208.6c0-12.4-7.4-19.5-19.8-19.8c-12.5-0.3-25.1,0.1-37.6-0.1c-17-0.3-31.4,5.8-43.3,17.7
	c-6.6,6.5-12.8,13.4-20.6,21.5c-3.8-36.3-19.7-60.5-52.1-72.9c-2.7-1-5-6.4-5.1-9.8c-0.6-15.6-0.2-31.3-0.3-47
	c-0.2-15.3-7-22.1-22.3-22.2c-21.9-0.1-43.9,0.1-65.8-0.1c-21.5-0.1-39.7,7.5-55,22.4c-11.2,10.9-23.2,21.3-33,33.4
	c-12.7,15.7-27.4,20.7-47.6,20c-44.5-1.5-77.2,32.2-77.3,76.5c-0.1,42.7-0.1,85.4,0,128.1c0,44.4,32.7,77.1,77.2,77.1
	c67.7,0.1,135.5,0.1,203.3,0c5.1,0,10.3-0.2,15.2-1.3c36.5-8,55.9-32,63.6-69.7c21.7,40.5,57.3,46.8,97.4,42.6
	c1.1-0.1,2.3,0.1,3.5,0c12.3-0.6,19.6-7.6,19.6-20.1C490.2,326.1,490.2,267.4,490,208.6z M272.8,114.6c0,11.6,0,23.5,0,36
	c-33.8,0-67.3,0-100.4,0C194.5,108.1,233.3,111.2,272.8,114.6z M330,356.1c-0.1,23.9-15.9,39.7-39.9,39.8c-34.1,0.1-68.2,0-102.3,0
	c-33,0-65.9,0-98.7,0c-25.7-0.1-41.2-15.4-41.3-40.8c-0.1-41.9-0.1-83.9,0-125.8c0.1-24.8,15.7-40.4,40.5-40.4c67-0.1,134-0.1,201,0
	c24.9,0.1,40.6,15.6,40.7,40.2C330.2,271.4,330.2,313.8,330,356.1z M451.4,366.7c-17.7,3.6-31.6,0.2-42.6-15.1
	c-9.3-13-20.8-24.4-31.4-36.4c-14.8-16.6-14.4-29.1,1.4-44.9c9.2-9.2,19.2-17.6,27.2-27.6c11.9-14.9,26.6-19.2,45.4-15.2
	C451.4,273.4,451.4,319.7,451.4,366.7z"/>
<path class="st0" d="M369.3,123c14.9,0.1,29.8,0,44.7,0c15.7,0,31.3,0.2,46.9,0c16.5-0.3,28.7-12.2,28.9-27.8
	c0.2-16-12.2-28.4-29.3-28.5c-30.6-0.2-61.1-0.2-91.7,0c-17.1,0.1-29.5,12.4-29.4,28.4C339.5,111,352,122.8,369.3,123z"/>
<path class="st0" d="M196.3,217.2c-32.9-0.2-65.8-0.1-98.7,0c-14.5,0.1-21.4,7.1-21.5,21.7c-0.1,23.1-0.1,46.2,0,69.3
	c0,14.6,7,21.7,21.4,21.8c16.4,0.1,32.9,0,49.3,0c16.4,0,32.9,0.1,49.5,0c13.7-0.1,20.8-7.3,20.9-21.1c0.2-23.5,0.2-47,0-70.5
	C217.1,224.5,210,217.3,196.3,217.2z M178.8,291.4c-21,0-42.3,0-64.8,0c0-12,0-23.6,0-36c21.7,0,42.9,0,64.8,0
	C178.8,267.3,178.8,278.9,178.8,291.4z"/>
</svg>
