<?xml version="1.0" encoding="utf-8"?>
<!-- Generator: Adobe Illustrator 21.0.0, SVG Export Plug-In . SVG Version: 6.00 Build 0)  -->
<svg version="1.1" id="Capa_1" xmlns="http://www.w3.org/2000/svg" xmlns:xlink="http://www.w3.org/1999/xlink" x="0px" y="0px"
	 viewBox="0 0 494 80" style="enable-background:new 0 0 494 80;" xml:space="preserve">
<style type="text/css">
	.st0{fill:none;}
	.st1{fill:#FFFFFF;}
	.st2{fill:#FE4918;}
</style>
<rect x="41" y="14.8" class="st0" width="441" height="50.4"/>
<path class="st1" d="M179.6,42.8l0.9,8.9h0.3l1-9.1l8.8-28h6.5l8.6,28.2l1,8.9h0.3l1.1-9.1l6.2-28h9.9l-13.9,50.8h-6.6l-9-28
	l-1.2-7.7h-0.4l-1.2,7.8L183,65.4h-7l-13.8-50.8h10.7L179.6,42.8z"/>
<path class="st1" d="M228.6,14.8h29.9v8.8h-20v11.7h18.2v8.8h-18.2v12.3h20.4v8.8h-30.2V14.8z"/>
<path class="st1" d="M300.1,26.5c0,1.2-0.2,2.5-0.5,3.7c-0.3,1.2-0.8,2.4-1.5,3.4c-0.7,1-1.6,1.9-2.8,2.7s-2.5,1.4-4.2,1.8v0.4
	c1.4,0.2,2.8,0.6,4.1,1.2s2.4,1.4,3.4,2.4s1.7,2.2,2.3,3.7c0.5,1.4,0.8,3.1,0.8,5.1c0,2.6-0.6,4.8-1.7,6.7c-1.1,1.9-2.6,3.4-4.4,4.6
	c-1.8,1.2-3.9,2.1-6.3,2.7c-2.4,0.6-4.8,0.9-7.3,0.9c-0.8,0-1.9,0-3.1,0s-2.6,0-4.1-0.1c-1.5-0.1-3-0.2-4.5-0.3
	c-1.5-0.1-2.9-0.4-4.1-0.6V15.2c0.9-0.1,2-0.3,3.1-0.4c1.2-0.1,2.4-0.3,3.8-0.4c1.3-0.1,2.7-0.2,4.1-0.2c1.4,0,2.8-0.1,4.2-0.1
	c2.4,0,4.6,0.2,6.9,0.5c2.2,0.4,4.2,1,6,1.9c1.8,0.9,3.2,2.2,4.2,3.8C299.5,22,300.1,24,300.1,26.5z M279,36c0.7,0,1.5,0,2.3-0.1
	c0.9,0,1.6-0.1,2.2-0.2c1.8-0.6,3.4-1.4,4.7-2.6c1.3-1.1,2-2.6,2-4.5c0-1.2-0.2-2.3-0.7-3.1c-0.5-0.8-1.1-1.4-1.9-1.9
	c-0.8-0.5-1.7-0.8-2.7-1c-1-0.2-2.1-0.3-3.2-0.3c-1.2,0-2.4,0-3.5,0.1c-1.1,0-1.9,0.1-2.4,0.2V36L279,36L279,36z M282.1,57.6
	c1.2,0,2.3-0.1,3.4-0.4s2.1-0.7,2.9-1.3c0.8-0.6,1.5-1.3,2-2.2c0.5-0.9,0.8-2,0.8-3.2c0-1.6-0.3-2.8-0.9-3.7
	c-0.6-0.9-1.4-1.6-2.4-2.1c-1-0.5-2.1-0.8-3.3-1c-1.2-0.1-2.5-0.2-3.7-0.2h-5.2v13.8c0.2,0.1,0.6,0.2,1.1,0.2c0.5,0,1.1,0.1,1.7,0.1
	c0.6,0,1.2,0,1.8,0.1S281.6,57.6,282.1,57.6z"/>
<path class="st1" d="M116.1,26.5c0,1.2-0.2,2.5-0.5,3.7c-0.3,1.2-0.8,2.4-1.5,3.4c-0.7,1-1.6,1.9-2.8,2.7s-2.5,1.4-4.2,1.8v0.4
	c1.4,0.2,2.8,0.6,4.1,1.2s2.4,1.4,3.4,2.4s1.7,2.2,2.3,3.7c0.5,1.4,0.8,3.1,0.8,5.1c0,2.6-0.6,4.8-1.7,6.7c-1.1,1.9-2.6,3.4-4.4,4.6
	c-1.8,1.2-3.9,2.1-6.3,2.7c-2.4,0.6-4.8,0.9-7.3,0.9c-0.8,0-1.9,0-3.1,0s-2.6,0-4.1-0.1c-1.5-0.1-3-0.2-4.5-0.3
	c-1.5-0.1-2.9-0.4-4.1-0.6V15.2c0.9-0.1,2-0.3,3.1-0.4c1.2-0.1,2.4-0.3,3.8-0.4c1.3-0.1,2.7-0.2,4.1-0.2c1.4,0,2.8-0.1,4.2-0.1
	c2.4,0,4.6,0.2,6.9,0.5c2.2,0.4,4.2,1,6,1.9c1.8,0.9,3.2,2.2,4.2,3.8C115.6,22,116.1,24,116.1,26.5z M95,36c0.7,0,1.5,0,2.3-0.1
	c0.9,0,1.6-0.1,2.2-0.2c1.8-0.6,3.4-1.4,4.7-2.6c1.3-1.1,2-2.6,2-4.5c0-1.2-0.2-2.3-0.7-3.1c-0.5-0.8-1.1-1.4-1.9-1.9
	c-0.8-0.5-1.7-0.8-2.7-1c-1-0.2-2.1-0.3-3.2-0.3c-1.2,0-2.4,0-3.5,0.1c-1.1,0-1.9,0.1-2.4,0.2V36L95,36L95,36z M98.1,57.6
	c1.2,0,2.3-0.1,3.4-0.4s2.1-0.7,2.9-1.3c0.8-0.6,1.5-1.3,2-2.2c0.5-0.9,0.8-2,0.8-3.2c0-1.6-0.3-2.8-0.9-3.7
	c-0.6-0.9-1.4-1.6-2.4-2.1c-1-0.5-2.1-0.8-3.3-1c-1.2-0.1-2.5-0.2-3.7-0.2h-5.2v13.8c0.2,0.1,0.6,0.2,1.1,0.2c0.5,0,1.1,0.1,1.7,0.1
	c0.6,0,1.2,0,1.8,0.1S97.7,57.6,98.1,57.6z"/>
<path class="st1" d="M342.8,63.1c-1.5,1.1-3.5,1.9-5.9,2.4c-2.4,0.5-4.8,0.7-7.3,0.7c-3,0-5.9-0.5-8.6-1.4c-2.7-0.9-5.1-2.4-7.2-4.5
	c-2.1-2.1-3.7-4.8-4.9-8.1c-1.2-3.3-1.8-7.4-1.8-12.1c0-4.9,0.7-9.1,2.1-12.4c1.4-3.3,3.1-6,5.3-8.1s4.6-3.5,7.3-4.4
	c2.7-0.9,5.4-1.3,8.1-1.3c2.9,0,5.3,0.2,7.3,0.6c2,0.4,3.6,0.8,4.9,1.4l-1.9,8.4c-1.1-0.5-2.4-0.9-3.9-1.2c-1.5-0.2-3.3-0.4-5.5-0.4
	c-4,0-7.2,1.4-9.6,4.3c-2.4,2.8-3.6,7.2-3.6,13.2c0,2.6,0.3,5,0.9,7.1c0.6,2.1,1.5,4,2.6,5.5c1.2,1.5,2.6,2.7,4.4,3.5
	c1.8,0.8,3.8,1.3,6.1,1.3c2.2,0,4-0.2,5.5-0.6c1.5-0.4,2.8-1,3.9-1.7L342.8,63.1z"/>
<path class="st1" d="M157.6,63.1c-1.5,1.1-3.5,1.9-5.9,2.4c-2.4,0.5-4.8,0.7-7.3,0.7c-3,0-5.9-0.5-8.6-1.4c-2.7-0.9-5.1-2.4-7.2-4.5
	c-2.1-2.1-3.7-4.8-4.9-8.1c-1.2-3.3-1.8-7.4-1.8-12.1c0-4.9,0.7-9.1,2.1-12.4c1.4-3.3,3.1-6,5.3-8.1s4.6-3.5,7.3-4.4
	c2.7-0.9,5.4-1.3,8.1-1.3c2.9,0,5.3,0.2,7.3,0.6c2,0.4,3.6,0.8,4.9,1.4l-1.9,8.4c-1.1-0.5-2.4-0.9-3.9-1.2c-1.5-0.2-3.3-0.4-5.5-0.4
	c-4,0-7.2,1.4-9.6,4.3c-2.4,2.8-3.6,7.2-3.6,13.2c0,2.6,0.3,5,0.9,7.1c0.6,2.1,1.5,4,2.6,5.5c1.2,1.5,2.6,2.7,4.4,3.5
	c1.8,0.8,3.8,1.3,6.1,1.3c2.2,0,4-0.2,5.5-0.6c1.5-0.4,2.8-1,3.9-1.7L157.6,63.1z"/>
<path class="st1" d="M370.6,54.2h-15.5l-3.8,11.2h-9.9l18.1-50.8h7.3L385,65.4h-10.4L370.6,54.2z M357.7,46.3h10.8l-3.7-11.2
	l-1.5-7.9h-0.4l-1.5,8L357.7,46.3z"/>
<path class="st1" d="M63.2,54.2H47.7l-3.8,11.2H34l18.1-50.8h7.3l18.1,50.8H67.2L63.2,54.2z M50.2,46.3H61l-3.7-11.2l-1.5-7.9h-0.4
	l-1.5,8L50.2,46.3z"/>
<path class="st1" d="M428.4,39.1l1.1-10h-0.4l-3.1,8.1l-10.7,18.8h-3.2L400.8,37l-3.2-8h-0.4l1.4,9.9v26.2h-9.4V14.8h9l13.5,23
	l2.4,5.8h0.3l2.2-5.9l12.7-22.9h8.9v50.4h-9.9L428.4,39.1L428.4,39.1z"/>
<path class="st1" d="M446.9,15.7c2-0.4,4.2-0.7,6.7-0.9c2.4-0.2,4.8-0.3,7.2-0.3c2.5,0,5,0.2,7.5,0.6c2.5,0.4,4.8,1.2,6.8,2.4
	c2,1.2,3.7,2.9,4.9,5.1c1.3,2.2,1.9,5,1.9,8.5c0,3.2-0.6,5.8-1.7,8c-1.1,2.2-2.6,4-4.4,5.4c-1.8,1.4-3.9,2.4-6.2,3
	c-2.3,0.6-4.7,0.9-7.2,0.9c-0.2,0-0.6,0-1.2,0s-1.1,0-1.7,0c-0.6,0-1.1-0.1-1.7-0.1c-0.6,0-0.9-0.1-1.2-0.1v17.4h-9.9L446.9,15.7
	L446.9,15.7z M461.6,22.9c-1,0-1.9,0-2.7,0.1c-0.9,0.1-1.6,0.2-2.1,0.3v16.3c0.2,0,0.5,0.1,0.9,0.1c0.4,0,0.8,0.1,1.2,0.1
	c0.4,0,0.9,0,1.3,0c0.4,0,0.7,0,0.9,0c1.3,0,2.6-0.1,3.9-0.4c1.3-0.2,2.4-0.7,3.4-1.3c1-0.6,1.8-1.5,2.4-2.7
	c0.6-1.2,0.9-2.7,0.9-4.5c0-1.6-0.3-2.9-0.9-3.9c-0.6-1-1.3-1.9-2.3-2.5c-0.9-0.6-2-1.1-3.2-1.3C464.1,23.1,462.9,22.9,461.6,22.9z"
	/>
<rect x="9" y="10.6" class="st2" width="18" height="58.8"/>
</svg>
